<svg width="114" height="111" viewBox="0 0 114 111" fill="none" xmlns="http://www.w3.org/2000/svg">
<path d="M96.9724 101.19C74.991 113.925 39.3497 113.925 17.3636 101.19C0.898612 91.6489 -3.24105 77.6659 4.97037 65.8955H109.366C117.577 77.6659 113.437 91.6489 96.9724 101.19Z" fill="#FAFAFA"/>
<path opacity="0.2" d="M4.20545 38.7671C3.0036 42.2056 2.09883 45.7409 1.5011 49.334L57.1359 65.8926L4.20545 38.7671ZM50.6946 0L57.1359 65.8926L63.5772 0H50.6946ZM26.1845 9.32827L57.1359 65.8926L37.2337 3.30845C33.3326 4.88595 29.6253 6.90576 26.1845 9.32827ZM9.36364 27.6523L57.1289 65.8926L16.313 18.1344C13.6925 21.0734 11.365 24.2612 9.36364 27.6523ZM110.066 38.7671L57.1359 65.8926L112.768 49.334C112.171 45.7409 111.268 42.2057 110.066 38.7671ZM57.1359 65.8926H113.377C113.533 64.188 113.619 62.464 113.635 60.7204L57.1359 65.8926ZM0.892323 65.8926H57.1359L0.634766 60.7204C0.653497 62.464 0.73935 64.188 0.892323 65.8926ZM97.9565 18.1274L57.1359 65.8926L104.901 27.6523C102.901 24.2614 100.575 21.0737 97.9565 18.1344V18.1274ZM77.0264 3.30845L57.1359 65.8926L88.0757 9.32827C84.6346 6.90616 80.9274 4.88638 77.0264 3.30845Z" fill="#7D3091"/>
<path d="M57.1674 108.715C69.2828 108.715 79.1043 103.025 79.1043 96.0057C79.1043 88.9865 69.2828 83.2964 57.1674 83.2964C45.052 83.2964 35.2305 88.9865 35.2305 96.0057C35.2305 103.025 45.052 108.715 57.1674 108.715Z" fill="#E6E6E6"/>
<path d="M66.8743 87.6666C66.7807 85.358 68.0942 72.0142 68.0942 72.0142L60.2832 75.2922C61.0044 81.1059 62.1774 85.6179 62.2196 88.9357C62.2196 88.9357 64.1887 90.9119 65.2869 92.1739C66.2116 93.2746 67.2301 94.293 68.3307 95.2178C69.1783 95.8944 71.0936 96.3417 71.4612 95.782C70.1289 94.2367 68.5695 92.5251 67.5979 90.865C67.1342 90.1088 66.9376 89.2588 66.8743 87.6666Z" fill="#FFA8A7"/>
<path d="M74.0095 97.5869C74.0938 97.5986 74.0259 98.582 73.4967 98.9192C72.8856 99.3102 71.2091 99.8441 69.254 99.2517C67.2989 98.6593 66.3413 97.8304 65.6763 96.9922C65.0113 96.154 64.0841 94.9715 63.2178 94.6157C62.4123 94.2855 61.5788 93.7376 61.3587 93.4192C61.1386 93.1007 61.4243 91.8809 61.4243 91.8809L74.0095 97.5869Z" fill="#263238"/>
<path d="M62.1786 88.0015C62.1063 88.0291 62.0441 88.0778 61.9998 88.1413C61.9556 88.2047 61.9314 88.28 61.9304 88.3574C61.8929 88.8139 62.0475 89.2635 61.825 90.0291C61.5908 90.7698 61.4431 91.5351 61.3848 92.3097C61.3731 92.9536 62.6633 93.6092 63.4734 94.1009C64.2835 94.5926 65.192 95.5058 65.946 96.454C66.6999 97.4023 68.552 98.5613 69.8562 98.7955C71.8511 99.142 73.2606 98.7744 73.8108 98.079C74.4922 97.2173 74.2112 96.6109 72.1367 95.1241C71.7434 94.8408 70.4041 93.6443 69.9522 93.2158C68.7276 92.0568 67.5897 90.5326 67.2712 88.7671C67.2598 88.5592 67.1771 88.3616 67.0371 88.2075C66.9068 88.1223 66.752 88.0828 66.5969 88.0951C66.1999 88.0924 65.8049 88.1517 65.4262 88.2707C65.0867 88.3784 64.4264 88.4698 64.3491 88.8865C64.3378 89.0803 64.352 89.2748 64.3912 89.4649C64.3912 89.5562 64.424 89.8699 64.3421 89.9097C64.2601 89.9495 64.122 89.7177 64.0798 89.6451C63.8785 89.3056 63.827 89.109 63.5179 88.9872C63.2088 88.8655 62.3753 88.7226 62.209 88.348L62.1786 88.0015Z" fill="#37474F"/>
<path d="M72.4623 95.3652C69.5261 95.117 68.2477 96.8613 67.8848 98.011C68.4922 98.3778 69.1559 98.642 69.8492 98.793C71.8441 99.1395 73.3356 98.793 73.8859 98.0906C74.5274 97.2781 74.3518 96.5125 72.4623 95.3652Z" fill="#FAFAFA"/>
<path d="M68.1158 94.7094C68.083 94.7044 68.0531 94.6878 68.0315 94.6625C68.0075 94.6303 67.9966 94.5902 68.0009 94.5502C68.0053 94.5103 68.0246 94.4734 68.0549 94.4471C68.5607 93.9905 69.8602 93.4848 70.8881 93.7728C70.9064 93.7784 70.9234 93.7876 70.9381 93.7998C70.9528 93.8121 70.9649 93.8272 70.9736 93.8443C70.9823 93.8613 70.9876 93.8799 70.9889 93.899C70.9903 93.9181 70.9879 93.9373 70.9817 93.9554C70.9768 93.9745 70.9682 93.9924 70.9564 94.0081C70.9445 94.0239 70.9297 94.0371 70.9127 94.0471C70.8958 94.0571 70.877 94.0637 70.8575 94.0664C70.838 94.0692 70.8182 94.0681 70.7991 94.0631C69.8391 93.7986 68.638 94.309 68.2352 94.6719C68.2196 94.6869 68.2006 94.6982 68.1799 94.7047C68.1592 94.7112 68.1373 94.7128 68.1158 94.7094Z" fill="#F0F0F0"/>
<path d="M67.0213 93.7449C66.9892 93.7398 66.96 93.7231 66.9393 93.698C66.9147 93.6667 66.9031 93.627 66.907 93.5873C66.9109 93.5476 66.9301 93.5109 66.9604 93.485C67.4662 93.0167 68.768 92.518 69.7936 92.8083C69.8121 92.8139 69.8294 92.8231 69.8443 92.8356C69.8592 92.848 69.8714 92.8633 69.8801 92.8807C69.8889 92.898 69.8941 92.9169 69.8953 92.9362C69.8965 92.9556 69.8937 92.975 69.8872 92.9933C69.8767 93.0315 69.8518 93.0641 69.8177 93.0842C69.7836 93.1043 69.743 93.1103 69.7046 93.101C68.7446 92.8341 67.5434 93.3351 67.1407 93.7074C67.1253 93.7228 67.1064 93.7342 67.0856 93.7407C67.0648 93.7472 67.0427 93.7487 67.0213 93.7449Z" fill="#F0F0F0"/>
<path d="M66.0394 92.6842C66.006 92.6792 65.9758 92.6616 65.9551 92.635C65.9313 92.6032 65.9204 92.5634 65.9248 92.5239C65.9291 92.4843 65.9483 92.4479 65.9785 92.4219C66.4843 91.9654 67.7885 91.4596 68.8117 91.7453C68.8301 91.7511 68.8471 91.7605 68.8619 91.773C68.8766 91.7856 68.8886 91.8009 68.8973 91.8181C68.9061 91.8353 68.9113 91.8541 68.9126 91.8734C68.914 91.8926 68.9115 91.912 68.9053 91.9302C68.9004 91.9493 68.8918 91.9672 68.88 91.983C68.8681 91.9987 68.8533 92.0119 68.8363 92.0219C68.8194 92.032 68.8006 92.0385 68.7811 92.0413C68.7616 92.044 68.7418 92.0429 68.7227 92.0379C67.7627 91.7734 66.5616 92.2838 66.1588 92.6467C66.1429 92.6613 66.1239 92.6723 66.1033 92.6787C66.0827 92.6852 66.0609 92.6871 66.0394 92.6842Z" fill="#F0F0F0"/>
<path d="M65.0796 91.6307C65.0482 91.6255 65.0198 91.6088 65 91.5839C64.9756 91.5526 64.9639 91.5132 64.9674 91.4737C64.9709 91.4341 64.9892 91.3974 65.0187 91.3708C65.7211 90.7199 67.0698 90.4343 68.0954 90.7176C68.1139 90.7231 68.1312 90.7324 68.1461 90.7448C68.161 90.7573 68.1732 90.7726 68.1819 90.7899C68.1907 90.8072 68.1959 90.8261 68.1971 90.8455C68.1983 90.8649 68.1955 90.8843 68.189 90.9026C68.178 90.9404 68.153 90.9726 68.1191 90.9927C68.0851 91.0127 68.0448 91.019 68.0064 91.0103C67.0815 90.7527 65.8242 91.0103 65.1967 91.5909C65.1811 91.6055 65.1626 91.6166 65.1424 91.6235C65.1222 91.6303 65.1008 91.6328 65.0796 91.6307Z" fill="#F0F0F0"/>
<path d="M52.8842 76.4648L45.7522 75.5493C45.4197 80.0168 45.5859 84.1377 45.1434 88.3218C44.8531 89.5675 44.5182 95.2103 44.5978 96.8634C44.7173 99.3476 47.6417 99.4062 47.9882 97.9756C48.3348 96.5449 49.6273 89.6213 49.7326 88.9821C50.4257 86.1513 52.8233 76.6896 52.8842 76.4648Z" fill="#FFA8A7"/>
<path d="M48.6797 99.3247C48.5064 100.753 48.2114 101.687 47.6307 102.493C47.05 103.298 46.0245 103.492 45.02 103.176C44.0155 102.86 42.7512 102.111 42.5357 100.854C42.3203 99.5963 42.4304 98.7464 42.7418 97.4375L48.6797 99.3247Z" fill="#263238"/>
<path d="M45.1446 88.3223C44.7231 88.3223 44.5967 90.5771 44.2385 92.49C43.8521 94.5388 43.1544 95.3512 42.8196 97.0301C42.4379 98.9477 42.4918 99.821 43.131 101.039C43.7702 102.256 46.2146 103.581 47.5563 101.989C48.6521 100.69 48.7855 99.1795 48.8113 97.2384C48.837 95.2318 49.0665 93.8574 49.2445 92.3472C49.413 90.9025 50.0874 89.1699 49.7338 88.9826C49.6917 89.1933 49.6495 89.4625 49.6074 89.6709C49.5746 89.8278 49.4833 90.6075 49.2491 90.6075C49.2398 90.4244 49.2492 90.2408 49.2772 90.0596C49.31 89.8982 49.279 89.7303 49.1906 89.5913C49.0686 89.466 48.9092 89.3839 48.7364 89.3572C48.329 89.2495 47.0974 89.123 46.6736 89.0481C46.4652 89.0153 46.2544 88.9919 46.0461 88.9802C45.8666 88.9648 45.6858 88.9767 45.5099 89.0153C45.4601 89.0274 45.4135 89.0499 45.3731 89.0814C45.3328 89.1129 45.2995 89.1526 45.2757 89.198C45.2488 89.2673 45.2368 89.3415 45.2406 89.4157C45.2314 89.5503 45.2054 89.6832 45.1633 89.8114C45.1446 89.8653 45.0978 89.9332 45.0392 89.9144C44.9807 89.8957 44.976 89.8419 44.9784 89.7927C44.9901 89.5585 45.0322 89.3923 45.0603 89.1207C45.072 88.9966 45.1048 88.8257 45.1142 88.6992C45.1235 88.5728 45.1282 88.444 45.1446 88.3223Z" fill="#37474F"/>
<path d="M42.6348 98.1421C42.4896 99.3409 42.5107 100.17 43.0117 101.123C43.651 102.343 46.2898 103.682 47.6408 102.09C48.3081 101.298 48.5352 100.324 48.6804 99.3222C48.0154 97.9782 43.8734 97.1329 42.6348 98.1421Z" fill="#FAFAFA"/>
<path d="M47.7311 97.1331C47.713 97.1312 47.6955 97.1256 47.6796 97.1167C46.5636 96.5716 45.3136 96.3618 44.0808 96.5126C44.0409 96.5188 44.0001 96.5094 43.9669 96.4863C43.9338 96.4631 43.9108 96.4281 43.9029 96.3885C43.8992 96.3689 43.8996 96.3487 43.9041 96.3293C43.9086 96.3098 43.917 96.2915 43.9289 96.2755C43.9407 96.2594 43.9558 96.246 43.973 96.2361C43.9903 96.2261 44.0095 96.2198 44.0293 96.2176C45.3321 96.0515 46.6549 96.2739 47.8318 96.8568C47.8492 96.8661 47.8646 96.8788 47.8771 96.8941C47.8896 96.9094 47.899 96.927 47.9046 96.946C47.9103 96.9649 47.9121 96.9848 47.9101 97.0044C47.908 97.0241 47.9021 97.0431 47.8927 97.0605C47.8764 97.0877 47.8522 97.1092 47.8233 97.1222C47.7944 97.1352 47.7622 97.139 47.7311 97.1331Z" fill="#F0F0F0"/>
<path d="M44.272 95.0844C44.2432 95.0802 44.2161 95.0678 44.1941 95.0487C44.1722 95.0296 44.1561 95.0046 44.1479 94.9767C44.1426 94.9576 44.1413 94.9377 44.1439 94.9181C44.1465 94.8985 44.153 94.8796 44.163 94.8625C44.1731 94.8455 44.1865 94.8307 44.2024 94.8189C44.2183 94.8071 44.2364 94.7987 44.2556 94.7941C46.1732 94.3141 47.9785 95.356 48.0534 95.4005C48.071 95.4097 48.0864 95.4224 48.0988 95.4379C48.1111 95.4534 48.1201 95.4713 48.1252 95.4905C48.1302 95.5096 48.1313 95.5296 48.1282 95.5492C48.1251 95.5688 48.118 95.5875 48.1072 95.6042C48.0847 95.638 48.0501 95.662 48.0105 95.6711C47.9709 95.6803 47.9293 95.6739 47.8942 95.6534C47.8755 95.6534 46.1241 94.6348 44.3399 95.0821C44.3178 95.0887 44.2944 95.0895 44.272 95.0844Z" fill="#F0F0F0"/>
<path d="M44.464 93.7305C44.4353 93.7262 44.4084 93.714 44.3861 93.6955C44.3638 93.6769 44.347 93.6526 44.3375 93.6252C44.3322 93.6061 44.3307 93.5862 44.3332 93.5665C44.3356 93.5469 44.3419 93.5279 44.3517 93.5107C44.3615 93.4935 44.3746 93.4784 44.3902 93.4663C44.4059 93.4542 44.4238 93.4453 44.4429 93.4402C45.0967 93.2769 45.7765 93.246 46.4424 93.3493C47.1083 93.4527 47.7468 93.6882 48.3203 94.0419C48.3368 94.0526 48.351 94.0664 48.362 94.0827C48.373 94.0989 48.3805 94.1172 48.3843 94.1365C48.388 94.1557 48.3878 94.1755 48.3836 94.1947C48.3795 94.2139 48.3715 94.232 48.3601 94.248C48.3354 94.2808 48.2989 94.3028 48.2583 94.3094C48.2177 94.3159 48.1762 94.3065 48.1424 94.2831C47.0573 93.6297 45.7583 93.4304 44.5272 93.7282C44.5065 93.733 44.485 93.7337 44.464 93.7305Z" fill="#F0F0F0"/>
<path d="M44.6837 92.216C44.6555 92.2113 44.629 92.199 44.6072 92.1804C44.5853 92.1619 44.5689 92.1378 44.5596 92.1107C44.5536 92.0918 44.5515 92.0718 44.5535 92.0521C44.5554 92.0324 44.5614 92.0132 44.5711 91.9959C44.5807 91.9786 44.5938 91.9634 44.6096 91.9513C44.6253 91.9392 44.6434 91.9305 44.6626 91.9257C46.6435 91.3661 48.4862 92.5204 48.5635 92.5696C48.5803 92.5798 48.5949 92.5934 48.6064 92.6095C48.6178 92.6255 48.6259 92.6438 48.63 92.663C48.6342 92.6823 48.6344 92.7023 48.6306 92.7216C48.6268 92.741 48.6191 92.7594 48.608 92.7756C48.5965 92.7924 48.5818 92.8068 48.5647 92.8179C48.5476 92.829 48.5285 92.8366 48.5085 92.8403C48.4885 92.844 48.468 92.8437 48.4481 92.8394C48.4281 92.8352 48.4093 92.827 48.3925 92.8154C48.3738 92.8154 46.5943 91.6916 44.754 92.2114C44.7311 92.2176 44.7072 92.2192 44.6837 92.216Z" fill="#EBEBEB"/>
<path d="M52.4859 35.8391C51.1701 38.1805 48.4212 42.1024 48.0747 48.9909C47.5291 59.8411 47.2083 65.4722 47.2083 65.4722C46.5715 67.528 46.0985 67.7036 45.7239 73.1451C45.4242 77.4885 45.375 82.8902 45.375 82.8902C45.375 82.8902 48.55 84.5783 51.1583 83.6652C52.3501 80.1905 54.2795 72.5036 55.6211 67.8371C56.841 63.6014 58.1967 56.7762 58.1967 56.7762L60.1401 67.2213C59.7645 69.4863 59.6983 71.7918 59.9434 74.0747C60.2642 76.9804 61.3881 82.7497 61.3881 82.7497C61.3881 82.7497 64.926 84.0445 67.2042 82.5155C67.2042 82.5155 68.3515 70.0006 68.4522 66.4884C68.6044 61.2178 68.7402 52.3977 68.3281 45.158C68.1712 42.3904 67.2065 37.7005 66.8623 35.832L52.4859 35.8391Z" fill="#37474F"/>
<path d="M45.2988 81.8623C46.3103 82.5647 50.0402 83.328 51.4849 82.8668L50.9206 84.4519C50.9206 84.4519 49.984 84.7821 48.0289 84.576C46.0738 84.37 45.2988 83.4545 45.2988 83.4545V81.8623Z" fill="#455A64"/>
<path d="M61.2285 82.1221C62.3875 82.5904 65.9582 82.5178 67.2858 81.7451L67.1594 83.5597C67.1594 83.5597 66.5366 84.117 64.4293 84.2364C62.4344 84.3511 61.5071 83.7798 61.5071 83.7798L61.2285 82.1221Z" fill="#455A64"/>
<path d="M58.1855 56.7761L59.6536 48.2556C59.6536 48.2556 64.2522 47.9372 65.9919 46.4199C65.9919 46.4199 63.7511 49.2765 60.6253 49.6066L59.0987 56.7761L60.1196 67.1299L58.1855 56.7761Z" fill="#263238"/>
<path d="M50.3393 14.7139C50.3393 14.7139 50.646 17.0272 49.8593 18.9285C49.3488 20.1718 48.4942 22.4406 47.5178 24.9225C46.6047 27.264 45.4925 33.7123 53.0834 35.946C57.4713 37.2385 63.648 35.9975 65.7272 34.3562C71.2857 29.966 70.1548 24.9366 63.9641 18.5093C62.5288 17.0155 61.9973 13.7305 61.9973 13.7305L50.3393 14.7139Z" fill="#37474F"/>
<path d="M61.6816 21.4409C64.1167 21.5393 64.7536 21.5556 68.7458 22.9699L73.1781 24.548L78.7507 27.2641C78.849 28.018 79.0551 29.4158 78.4229 30.4812C77.9101 31.3452 77.0297 31.2211 75.3978 30.8465C73.0423 30.3056 66.4067 28.6244 66.4067 28.6244L61.6816 21.4409Z" fill="#FFA8A7"/>
<path d="M71.9199 24.0913C72.1189 27.0509 72.4983 27.6035 73.6362 28.8725L73.402 24.6415L73.1866 24.5362L71.9199 24.0913Z" fill="#F28F8F"/>
<path d="M72.3889 25.2246C72.4098 26.422 72.7703 27.5888 73.4285 28.5892C74.2237 29.7562 75.3999 30.6104 76.7557 31.0056C77.6127 31.214 78.7272 30.9939 78.8349 28.9545C78.9637 26.4913 77.9241 24.4027 76.9758 21.7733C75.6857 18.1956 75.3368 17.3246 75.1378 16.2639C75.0113 15.5872 75.0909 14.2924 74.8053 13.6509C74.4836 12.9033 74.0665 12.2005 73.5643 11.56C73.0164 10.8295 72.5247 11.3024 72.4428 11.4265C71.923 10.9372 71.272 10.9582 70.9817 11.3914C70.7214 11.354 70.4559 11.4003 70.2236 11.5237C69.9913 11.647 69.8042 11.8409 69.6892 12.0774C69.2982 11.9768 68.7339 12.2367 68.7527 12.7471C68.8022 12.952 68.8956 13.1438 69.0266 13.309C68.9938 13.6321 69.6541 14.9129 69.4387 15.3273C69.2233 15.7418 68.7222 15.7535 68.0877 15.8682C67.4134 15.9923 66.7835 16.3365 66.636 16.8048C66.5213 17.1701 66.7437 17.3199 67.0715 17.3176C67.3619 17.3176 68.083 17.1654 68.6356 17.1513C69.4481 17.1302 69.7618 17.0951 70.1692 17.2661C70.6433 17.4432 71.0933 17.6792 71.5085 17.9685C71.8153 18.2237 72.1477 18.5655 72.2882 19.7175C72.4287 20.8695 72.3889 23.9134 72.3889 25.2246Z" fill="#FFA8A7"/>
<path opacity="0.5" d="M70.2947 14.4285C70.1891 14.4854 70.0679 14.5066 69.9493 14.4889C69.8307 14.4711 69.721 14.4154 69.6367 14.3302C69.7585 14.5643 69.8451 14.7118 69.9317 14.8429C70.0675 15.0443 70.3345 15.2199 70.5967 14.967C70.8589 14.7142 70.7981 14.4777 70.6716 14.0586C70.6389 14.1436 70.5883 14.2206 70.5233 14.2845C70.4583 14.3483 70.3803 14.3974 70.2947 14.4285ZM72.7977 13.4404C72.7112 13.4346 72.6283 13.4041 72.5586 13.3527C72.4889 13.3012 72.4354 13.2309 72.4043 13.1501C72.4043 13.1805 72.4043 13.3163 72.416 13.4311C72.416 13.4755 72.416 13.5177 72.416 13.5505C72.416 13.6839 72.1538 13.8806 72.0226 13.89C71.8915 13.8993 71.6644 13.8666 71.4982 13.506C71.4994 13.5145 71.4994 13.5232 71.4982 13.5317C71.505 13.6556 71.4736 13.7787 71.4083 13.8842C71.3429 13.9897 71.2468 14.0726 71.1329 14.1218C71.0577 14.1602 70.9726 14.1747 70.8889 14.1634C70.8052 14.1521 70.7269 14.1155 70.6646 14.0586C70.738 14.2726 70.8482 14.4723 70.9901 14.6486C71.2242 14.9272 71.552 14.6626 71.6293 14.4941C71.6341 14.5625 71.6588 14.628 71.7005 14.6825C71.7421 14.737 71.7987 14.7781 71.8634 14.8008C72.1116 14.8898 72.3317 14.6814 72.3902 14.1873C72.3902 14.1873 72.3902 14.1709 72.3902 14.1616C72.5331 14.5901 72.9405 14.5503 73.0646 14.2833C73.1867 13.9096 73.2653 13.5231 73.2987 13.1313C73.2964 13.3093 73.102 13.4545 72.7977 13.4404Z" fill="#F28F8F"/>
<path d="M72.5096 14.0978V14.1189C72.5494 14.2593 72.643 14.3788 72.7695 14.3834C72.8011 14.3852 72.8328 14.3805 72.8626 14.3696C72.8924 14.3587 72.9196 14.3419 72.9427 14.3202C72.9934 14.267 73.0296 14.2017 73.0481 14.1306C73.1469 13.8007 73.2182 13.4631 73.2612 13.1214V13.1472V13.1331C73.2846 12.9411 73.2963 12.7374 73.3384 12.5431C73.3595 12.4447 73.3899 12.3487 73.418 12.2551C73.4456 12.1601 73.4536 12.0605 73.4414 11.9624C73.4627 12.0604 73.4627 12.1618 73.4414 12.2598C73.4204 12.3581 73.397 12.4518 73.3853 12.5501C73.3548 12.7444 73.3595 12.9411 73.3478 13.1425V13.1167V13.1331C73.3286 13.4848 73.2792 13.8342 73.2003 14.1774C73.181 14.2769 73.1348 14.3692 73.0668 14.4443C73.0292 14.4851 72.9836 14.5178 72.9329 14.5404C72.8821 14.5629 72.8273 14.5748 72.7718 14.5754C72.6575 14.5769 72.5472 14.5332 72.4651 14.4537C72.3898 14.3815 72.3329 14.2924 72.2988 14.1938V14.2149L72.5096 14.0978Z" fill="#F28F8F"/>
<path d="M73.7933 12.4565C73.7582 12.5653 73.6998 12.6652 73.6223 12.7492C73.546 12.8362 73.4604 12.9147 73.3671 12.9834L73.3086 12.885C73.5106 12.7958 73.6799 12.6461 73.7933 12.4565Z" fill="#F28F8F"/>
<path d="M70.9824 11.3916C71.0682 11.5557 71.1388 11.7274 71.1931 11.9044C71.2493 12.0776 71.3032 12.2532 71.3477 12.4289L71.4226 12.6911L71.4835 12.958L71.6006 13.5012V13.5387L71.6942 14.1077L71.7364 14.391C71.7415 14.4728 71.7639 14.5525 71.8019 14.6251C71.8207 14.6507 71.8445 14.6722 71.8719 14.6883C71.8993 14.7044 71.9296 14.7148 71.9611 14.7188C71.9912 14.7239 72.022 14.7212 72.0507 14.7109C72.0794 14.7007 72.105 14.6832 72.125 14.6602C72.2269 14.524 72.2878 14.3616 72.3007 14.192V14.1522C72.3198 13.9334 72.3245 13.7136 72.3147 13.4942V12.7941C72.3147 12.56 72.3147 12.3258 72.3264 12.1057C72.3264 11.9887 72.3428 11.8716 72.3545 11.7592C72.3602 11.6433 72.3905 11.53 72.4435 11.4267C72.408 11.5346 72.3944 11.6484 72.4037 11.7615C72.4037 11.8763 72.4037 11.9957 72.4037 12.1034L72.4505 12.7894L72.4997 13.4755L72.5161 13.822C72.5223 13.9447 72.5184 14.0676 72.5044 14.1896V14.2037C72.4909 14.4223 72.409 14.6312 72.2702 14.8007C72.226 14.8505 72.1701 14.8885 72.1076 14.9114C72.0451 14.9343 71.9779 14.9413 71.912 14.9318C71.85 14.9218 71.7905 14.9004 71.7364 14.8686C71.6785 14.8346 71.6295 14.7872 71.5935 14.7305C71.5411 14.6337 71.5107 14.5266 71.5046 14.4167L71.4648 14.1264L71.4086 13.5434V13.5246L71.3266 12.9931L71.2868 12.7239L71.2306 12.4546C71.1704 12.0954 71.0875 11.7403 70.9824 11.3916Z" fill="#F28F8F"/>
<path d="M69.6953 12.0752C70.0752 12.5652 70.3937 13.0999 70.6436 13.6674L70.8122 14.0982C70.8615 14.2363 70.9234 14.3695 70.9971 14.4962C71.0768 14.625 71.154 14.7304 71.2875 14.7163C71.3593 14.7079 71.4285 14.6841 71.4904 14.6465C71.5522 14.6089 71.6052 14.5585 71.6457 14.4986C71.6191 14.5766 71.5742 14.6471 71.5147 14.7041C71.4552 14.7611 71.3829 14.8031 71.3039 14.8264C71.2114 14.8465 71.1148 14.8297 71.0346 14.7795C70.9637 14.7305 70.9019 14.6695 70.852 14.5993C70.7581 14.469 70.6795 14.3284 70.6178 14.1801L70.4422 13.7587C70.3252 13.4777 70.1917 13.2038 70.0676 12.9251C69.9435 12.6465 69.8124 12.3726 69.6953 12.0752Z" fill="#F28F8F"/>
<path d="M70.6536 14.0116L70.6747 14.0608C70.742 14.2236 70.7838 14.3957 70.7988 14.5712C70.8002 14.6644 70.7798 14.7565 70.7391 14.8403C70.6985 14.9241 70.6387 14.9971 70.5646 15.0536C70.4886 15.1167 70.3918 15.1492 70.293 15.1449C70.1955 15.1368 70.103 15.0983 70.0284 15.0348C69.8999 14.9087 69.7952 14.7604 69.7194 14.597L69.2043 13.6932C69.12 13.541 69.0333 13.3912 68.9514 13.2249C68.862 13.0748 68.798 12.9111 68.7617 12.7402C68.8165 12.9069 68.8954 13.0647 68.9959 13.2085L69.2768 13.6464C69.4665 13.9367 69.6398 14.2434 69.813 14.5385C69.8852 14.6892 69.9808 14.8275 70.0963 14.9482C70.1513 15.0015 70.2235 15.0335 70.3 15.0382C70.3764 15.0429 70.452 15.0201 70.5131 14.974C70.5821 14.9294 70.6394 14.8689 70.6801 14.7976C70.7209 14.7263 70.7439 14.6463 70.7473 14.5642C70.745 14.3924 70.7206 14.2217 70.6747 14.0561L70.6536 14.0116Z" fill="#F28F8F"/>
<path d="M71.862 14.6699C72.1881 14.8819 72.4696 15.1555 72.6909 15.4754C72.9185 15.7815 73.0688 16.1382 73.1287 16.515C73.0346 16.1538 72.8537 15.8211 72.6019 15.5456C72.3653 15.2669 72.0766 15.0371 71.752 14.8689L71.862 14.6699Z" fill="#F28F8F"/>
<path d="M74.442 16.8777C74.1048 17.1118 73.6693 17.1118 73.3649 17.3061C73.0605 17.5005 72.3885 17.9453 71.6861 17.6339C71.1476 17.3998 70.3281 17.1516 69.8926 17.1656C69.9873 17.1893 70.0803 17.219 70.1712 17.2546C70.6453 17.4318 71.0952 17.6678 71.5105 17.9571C71.8172 18.2123 72.1497 18.5541 72.2902 19.7061C72.2902 19.7717 72.3066 19.8489 72.3136 19.9402C72.3136 19.9402 72.3441 19.0201 72.5829 18.5588C72.8217 18.0975 73.5031 17.8189 74.154 17.4349C74.8049 17.0509 74.7792 16.6505 74.442 16.8777Z" fill="#F28F8F"/>
<path d="M57.1213 21.6726C55.4035 21.8978 53.7051 22.2516 52.0403 22.7309C51.3215 23.1032 49.8277 23.8759 50.2749 28.4792C50.4271 30.0456 51.7313 32.4385 51.6798 35.1827C51.647 37.0722 50.509 38.2266 49.3828 41.9354C53.0401 45.8268 66.2903 45.8854 68.0604 42.5886C67.6202 37.6365 66.6392 37.2853 67.1005 32.6188C67.1005 32.6188 68.0581 30.5443 67.8965 29.2308C67.6624 27.3061 67.2199 26.6411 65.3397 24.5737C64.2551 23.3819 63.0265 22.3296 61.6824 21.4408C60.1584 21.407 58.634 21.4845 57.1213 21.6726Z" fill="#7D3091"/>
<path d="M55.2652 20.5909C54.6775 20.0899 53.7784 19.7808 52.3946 18.6569C50.4676 17.0952 48.4423 11.9136 51.2239 10.7335C50.957 6.57513 56.8176 4.98764 59.4377 5.49807C67.0684 6.98722 63.9168 11.9674 63.9168 11.9674L55.2652 20.5909Z" fill="#37474F"/>
<path d="M62.2074 9.2935C63.165 10.0615 63.6848 10.2863 64.0524 14.4447C64.3381 17.6875 63.6778 18.9285 62.2893 19.6871C61.7976 19.9564 60.8236 20.1788 59.873 20.1765L60.0275 21.6937C60.0275 21.6937 61.7789 23.7261 61.7601 26.3321C55.9581 23.883 55.0121 22.1667 55.0121 22.1667L54.2605 17.0553C54.099 17.4089 53.1624 17.9755 52.2609 17.0741C51.2003 16.0158 51.2354 14.5922 51.987 13.9787C52.7386 13.3653 53.7969 13.7305 54.2863 14.6413C55.2088 14.8989 55.8106 14.0138 55.3399 10.6234C57.2061 9.34267 59.8214 8.37097 62.2074 9.2935Z" fill="#FFA8A7"/>
<path d="M62.0537 7.55346C62.618 8.99812 62.3955 11.4988 60.3515 12.4986C60.7027 11.5128 60.4732 9.74738 60.4732 9.74738C60.4732 9.74738 59.3142 13.4211 54.9826 13.2595L54.3223 9.37743C56.2516 7.65648 59.3868 6.17201 62.0537 7.55346Z" fill="#37474F"/>
<path d="M59.8725 20.1696C57.0324 20.0665 55.4238 18.9988 55.0117 17.9312C55.0117 17.9312 55.2201 19.2751 56.1988 19.8909C57.3859 20.6355 59.9451 20.9212 59.9451 20.9212L59.8725 20.1696Z" fill="#F28F8F"/>
<path d="M60.9633 17.1519L58.9825 16.6836C58.9453 16.8105 58.9345 16.9436 58.9506 17.0748C58.9668 17.206 59.0097 17.3326 59.0766 17.4466C59.1435 17.5606 59.233 17.6598 59.3396 17.738C59.4462 17.8161 59.5677 17.8717 59.6966 17.9011C59.9635 17.9614 60.2433 17.9174 60.4788 17.7781C60.7143 17.6388 60.8876 17.4148 60.9633 17.1519Z" fill="#B16668"/>
<path d="M60.1387 17.9052C59.9937 17.9367 59.8435 17.9367 59.6985 17.9052C59.5199 17.8639 59.3569 17.7726 59.2283 17.6419C59.0998 17.5113 59.0111 17.3468 58.9727 17.1676C59.2201 17.1512 59.4663 17.2138 59.6759 17.3464C59.8854 17.4789 60.0475 17.6746 60.1387 17.9052Z" fill="#F28F8F"/>
<path d="M57.6952 13.712C57.7077 13.8213 57.7524 13.9245 57.8236 14.0083C57.8948 14.0922 57.9893 14.153 58.0951 14.183C58.201 14.213 58.3134 14.2109 58.418 14.1769C58.5226 14.143 58.6148 14.0786 58.6828 13.9921C58.7508 13.9057 58.7916 13.8009 58.7999 13.6912C58.8082 13.5815 58.7838 13.4718 58.7296 13.376C58.6755 13.2803 58.5941 13.2028 58.4958 13.1533C58.3975 13.1039 58.2867 13.0849 58.1776 13.0985C58.0323 13.1161 57.9 13.1906 57.8096 13.3056C57.7192 13.4206 57.6781 13.5667 57.6952 13.712Z" fill="#263238"/>
<path d="M61.6952 13.2575C61.7072 13.367 61.7515 13.4704 61.8225 13.5546C61.8935 13.6388 61.9879 13.7 62.0938 13.7304C62.1996 13.7608 62.3121 13.759 62.417 13.7252C62.5218 13.6914 62.6142 13.6273 62.6824 13.5408C62.7506 13.4544 62.7916 13.3496 62.8001 13.2398C62.8086 13.13 62.7842 13.0201 62.7301 12.9242C62.6759 12.8283 62.5945 12.7507 62.4961 12.7012C62.3977 12.6518 62.2868 12.6327 62.1776 12.6464C62.1057 12.6549 62.0363 12.6773 61.9732 12.7126C61.9101 12.7479 61.8545 12.7953 61.8097 12.852C61.7649 12.9088 61.7318 12.9738 61.7121 13.0434C61.6925 13.113 61.6867 13.1857 61.6952 13.2575Z" fill="#263238"/>
<path d="M59.957 12.7427L60.6969 16.3859L62.364 15.4798L59.957 12.7427Z" fill="#F28F8F"/>
<path d="M63.1319 12.0915L61.8184 11.8105C61.8331 11.7244 61.8652 11.6422 61.9126 11.5689C61.96 11.4955 62.0218 11.4325 62.0942 11.3837C62.1667 11.3349 62.2482 11.3013 62.334 11.2849C62.4198 11.2685 62.5081 11.2697 62.5934 11.2884C62.7689 11.3278 62.9226 11.4331 63.0228 11.5825C63.123 11.7319 63.1621 11.9141 63.1319 12.0915Z" fill="#263238"/>
<path d="M57.0914 12.6189L58.2621 11.9352C58.2209 11.8574 58.1646 11.7886 58.0964 11.733C58.0281 11.6774 57.9495 11.636 57.865 11.6113C57.7805 11.5867 57.6919 11.5792 57.6045 11.5894C57.517 11.5996 57.4325 11.6272 57.356 11.6706C57.1964 11.7624 57.0792 11.9133 57.0298 12.0906C56.9803 12.268 57.0024 12.4577 57.0914 12.6189Z" fill="#263238"/>
<path d="M58.0264 15.2384C58.0521 15.7067 57.5581 16.1212 56.9072 16.1563C56.2563 16.1914 55.7201 15.8402 55.6943 15.3672C55.6686 14.8943 56.1626 14.4845 56.8135 14.447C57.4644 14.4096 58.0006 14.7655 58.0264 15.2384Z" fill="#F28F8F"/>
<path d="M64.9882 13.9787C65.1545 14.4212 64.8033 14.9644 64.2015 15.1939C63.5998 15.4234 62.9723 15.2524 62.7967 14.8099C62.621 14.3674 62.9793 13.8242 63.5834 13.5947C64.1875 13.3652 64.8197 13.5432 64.9882 13.9787Z" fill="#F28F8F"/>
<path d="M46.1248 48.9902C45.8157 48.5219 45.3896 48.1028 45.317 47.5292C45.2932 47.3823 45.304 47.2319 45.3488 47.09C45.3935 46.9481 45.4708 46.8186 45.5746 46.712C45.6259 46.6761 45.6684 46.6288 45.6987 46.5739C45.7139 46.5247 45.7187 46.4728 45.7127 46.4217C45.6921 46.2068 45.7387 45.9908 45.8462 45.8035C45.8975 45.7283 45.9641 45.6647 46.0415 45.6167C46.1189 45.5687 46.2055 45.5374 46.2957 45.5249C46.2446 45.205 46.2962 44.877 46.4432 44.5883C46.6212 44.2488 47.0333 44.0194 47.2159 44.4549C47.3006 44.6712 47.3634 44.8956 47.4032 45.1245C47.5069 45.6935 47.5431 46.2727 47.5109 46.8501C47.4828 47.4519 47.3751 49.1518 46.4456 49.0932C46.373 49.0815 46.1646 49.0558 46.1248 48.9902Z" fill="#F28F8F"/>
<path d="M52.6078 22.6118C49.6154 23.0801 48.7257 23.5859 46.8385 26.0631C44.6703 28.9079 41.7388 32.2819 40.8702 33.5955C39.7978 35.2204 39.5238 35.8667 41.1183 38.0067C41.9496 39.1072 43.1203 40.4512 44.291 41.945C45.2276 43.1157 46.3585 44.3965 47.2459 45.607C47.3688 45.7416 47.4511 45.9082 47.4834 46.0876C47.5158 46.267 47.4967 46.4518 47.4285 46.6209C47.3175 46.842 47.2197 47.0695 47.1358 47.3022C47.09 47.617 47.0688 47.9348 47.0726 48.2529C47.0398 48.5689 46.8876 48.9155 46.5809 49.0045C46.4312 49.043 46.2741 49.043 46.1243 49.0045C46.3565 49.2432 46.6243 49.4447 46.9181 49.6015C47.2154 49.76 47.5617 49.8002 47.8874 49.7139C48.1942 49.6179 48.4517 49.3767 48.7725 49.3299C48.9434 49.3065 49.1214 49.3416 49.2946 49.3299C49.4701 49.3079 49.634 49.2309 49.7629 49.1098C49.9713 48.9155 50.0907 48.6111 50.3576 48.5128C50.4898 48.4829 50.6234 48.4603 50.758 48.4449C50.8913 48.4043 51.0128 48.332 51.1119 48.2341C51.211 48.1362 51.2848 48.0157 51.327 47.8829C51.4086 47.6178 51.4427 47.3404 51.4277 47.0634C51.4273 46.3171 51.3859 45.5714 51.3036 44.8297C51.2634 44.5771 51.1785 44.3337 51.0531 44.1109C50.9243 43.8486 50.8025 43.5794 50.6574 43.3241C49.6716 41.5962 46.5903 35.8596 46.5903 35.8596L51.9943 30.3947C51.9943 30.3947 54.8274 25.5784 52.6078 22.6118Z" fill="#FFA8A7"/>
<path d="M46.6 35.8384C45.3684 36.7305 43.6873 36.5666 43.0879 36.4378C44.4342 37.6085 46.888 36.3558 46.888 36.3558L46.6 35.8384Z" fill="#F28F8F"/>
<path d="M40.1873 82.8492C40.1462 82.8564 40.1038 82.8479 40.0687 82.8254C40.0336 82.8028 40.0082 82.7678 39.9976 82.7274L39.9602 82.5729C39.9117 82.3786 39.7948 82.2082 39.631 82.093C39.4672 81.9778 39.2674 81.9254 39.0681 81.9454L38.9089 81.9618C38.866 81.9692 38.822 81.9594 38.7864 81.9343C38.7508 81.9093 38.7267 81.8712 38.7192 81.8283C38.7118 81.7855 38.7216 81.7414 38.7467 81.7058C38.7717 81.6703 38.8098 81.6461 38.8527 81.6387L39.0072 81.5989C39.2015 81.5504 39.3719 81.4335 39.4871 81.2697C39.6024 81.1059 39.6548 80.9061 39.6347 80.7068L39.6183 80.5476C39.6109 80.5047 39.6208 80.4607 39.6458 80.4251C39.6708 80.3895 39.7089 80.3653 39.7518 80.3579C39.7946 80.3504 39.8387 80.3603 39.8743 80.3853C39.9098 80.4104 39.934 80.4485 39.9415 80.4914L39.9813 80.6459C40.0293 80.8405 40.1461 81.0111 40.31 81.1264C40.4739 81.2417 40.674 81.2939 40.8733 81.2734L41.0302 81.257C41.0715 81.2534 41.1126 81.2654 41.1455 81.2905C41.1784 81.3156 41.2007 81.3521 41.2082 81.3928C41.2159 81.4337 41.2076 81.476 41.1849 81.5109C41.1622 81.5458 41.1269 81.5706 41.0864 81.5801L40.9319 81.6199C40.738 81.6689 40.5682 81.786 40.4534 81.9497C40.3386 82.1135 40.2866 82.3131 40.3067 82.512L40.3208 82.6712C40.325 82.7122 40.3136 82.7533 40.2888 82.7863C40.2641 82.8193 40.2279 82.8417 40.1873 82.8492ZM39.5504 81.6785C39.7417 81.7492 39.9112 81.8686 40.0421 82.025C40.1125 81.8329 40.232 81.6625 40.3887 81.531C40.1974 81.4602 40.0279 81.3408 39.897 81.1844C39.8266 81.3766 39.7071 81.5469 39.5504 81.6785Z" fill="#E0E0E0"/>
<path d="M35.3944 77.8225C35.3535 77.8297 35.3115 77.8211 35.2768 77.7985C35.242 77.7759 35.2171 77.741 35.2071 77.7008L35.1673 77.5462C35.1188 77.3519 35.0019 77.1816 34.8381 77.0663C34.6743 76.9511 34.4745 76.8987 34.2752 76.9187L34.116 76.9351C34.0747 76.9387 34.0336 76.9268 34.0007 76.9017C33.9678 76.8765 33.9454 76.8401 33.938 76.7993C33.9309 76.7585 33.9394 76.7165 33.962 76.6817C33.9846 76.647 34.0195 76.622 34.0598 76.612L34.2143 76.5722C34.4086 76.5237 34.579 76.4069 34.6942 76.243C34.8094 76.0792 34.8618 75.8794 34.8418 75.6801L34.8254 75.5209C34.8224 75.4798 34.8345 75.4389 34.8595 75.4061C34.8845 75.3733 34.9207 75.3509 34.9612 75.343C35.002 75.3364 35.0437 75.3452 35.0784 75.3677C35.113 75.3902 35.138 75.4248 35.1485 75.4647L35.1883 75.6192C35.2364 75.8138 35.3531 75.9845 35.5171 76.0998C35.681 76.2151 35.8811 76.2673 36.0804 76.2467L36.2396 76.2304C36.2808 76.2273 36.3216 76.2394 36.3544 76.2645C36.3872 76.2895 36.4097 76.3257 36.4176 76.3662C36.4242 76.4069 36.4154 76.4487 36.3929 76.4833C36.3704 76.5179 36.3358 76.543 36.2958 76.5535L36.1413 76.5933C35.9467 76.6413 35.7761 76.7581 35.6608 76.922C35.5455 77.0859 35.4933 77.286 35.5138 77.4854L35.5302 77.6446C35.5338 77.6858 35.5218 77.7269 35.4967 77.7598C35.4716 77.7928 35.4351 77.8151 35.3944 77.8225ZM34.7575 76.6518C34.9496 76.7222 35.12 76.8417 35.2516 76.9984C35.3219 76.8062 35.4414 76.6359 35.5981 76.5043C35.406 76.434 35.2356 76.3145 35.104 76.1578C35.0344 76.3516 34.9149 76.5236 34.7575 76.6565V76.6518Z" fill="#E0E0E0"/>
<path d="M74.0279 71.5329C73.9869 71.5386 73.9452 71.5289 73.911 71.5055C73.8767 71.4821 73.8525 71.4468 73.843 71.4064L73.8078 71.2495C73.7644 71.0543 73.6519 70.8813 73.4909 70.7626C73.33 70.6438 73.1315 70.5872 72.9322 70.6033L72.7729 70.615C72.7315 70.6173 72.6907 70.6043 72.6583 70.5783C72.6259 70.5524 72.6042 70.5155 72.5973 70.4745C72.5915 70.4335 72.6013 70.3918 72.6247 70.3575C72.6481 70.3233 72.6834 70.2991 72.7238 70.2896L72.8806 70.2544C73.076 70.2101 73.249 70.0971 73.368 69.9359C73.4871 69.7748 73.5443 69.5762 73.5292 69.3764L73.5175 69.2195C73.5144 69.1783 73.527 69.1375 73.5528 69.1052C73.5785 69.0729 73.6155 69.0515 73.6563 69.0453C73.6971 69.0391 73.7388 69.0485 73.773 69.0717C73.8071 69.0949 73.8313 69.1301 73.8406 69.1704L73.8757 69.3249C73.9192 69.5208 74.032 69.6943 74.1934 69.8135C74.3548 69.9327 74.5538 69.9895 74.7538 69.9735L74.913 69.9618C74.9542 69.9595 74.9947 69.9727 75.0267 69.9986C75.0587 70.0246 75.0799 70.0615 75.0863 70.1022C75.0926 70.1434 75.0831 70.1854 75.0596 70.2197C75.0361 70.2541 75.0005 70.2782 74.9598 70.2872L74.8053 70.3223C74.6101 70.3662 74.4372 70.4788 74.3181 70.6395C74.199 70.8003 74.1417 70.9985 74.1567 71.198L74.1684 71.3573C74.1718 71.3989 74.1592 71.4403 74.1331 71.473C74.1069 71.5056 74.0693 71.527 74.0279 71.5329ZM73.4215 70.3504C73.6112 70.4261 73.7782 70.5495 73.9062 70.7087C73.9813 70.5186 74.1048 70.3515 74.2644 70.224C74.0731 70.1513 73.9054 70.0273 73.7797 69.8658C73.7041 70.0567 73.5788 70.2241 73.4168 70.3504H73.4215Z" fill="#E0E0E0"/>
<path d="M77.8797 77.2533C77.8413 77.2381 77.81 77.2088 77.7922 77.1715C77.7744 77.1341 77.7714 77.0914 77.7837 77.052L77.8329 76.8998C77.8928 76.7085 77.882 76.5022 77.8025 76.3182C77.723 76.1343 77.5801 75.985 77.3997 75.8976L77.2569 75.8274C77.2198 75.8091 77.1908 75.7776 77.1756 75.7391C77.1604 75.7005 77.1602 75.6577 77.175 75.619C77.1902 75.5805 77.2194 75.5493 77.2568 75.5315C77.2941 75.5137 77.3368 75.5106 77.3763 75.523L77.5309 75.5698C77.7215 75.6303 77.9275 75.62 78.1111 75.5409C78.2947 75.4617 78.4437 75.3191 78.5307 75.139L78.6009 74.9962C78.6192 74.959 78.6507 74.93 78.6892 74.9149C78.7278 74.8997 78.7706 74.8995 78.8093 74.9142C78.8478 74.9295 78.879 74.9587 78.8968 74.9961C78.9146 75.0334 78.9177 75.0761 78.9053 75.1156L78.8585 75.2678C78.7979 75.4587 78.8081 75.6651 78.8872 75.8491C78.9663 76.0331 79.109 76.1825 79.2893 76.2699L79.4345 76.3402C79.4544 76.3482 79.4727 76.36 79.4881 76.375C79.5035 76.3901 79.5158 76.408 79.5242 76.4278C79.5327 76.4476 79.5372 76.4688 79.5375 76.4904C79.5377 76.5119 79.5338 76.5332 79.5258 76.5532C79.5178 76.5732 79.5059 76.5914 79.4909 76.6068C79.4759 76.6222 79.4579 76.6345 79.4381 76.643C79.4184 76.6515 79.3971 76.656 79.3756 76.6563C79.354 76.6565 79.3327 76.6525 79.3127 76.6445L79.1605 76.5977C78.9696 76.5366 78.763 76.5466 78.5789 76.6257C78.3947 76.7049 78.2454 76.848 78.1584 77.0285L78.0881 77.1714C78.0703 77.2089 78.0388 77.2383 78.0001 77.2535C77.9614 77.2687 77.9184 77.2686 77.8797 77.2533ZM77.95 75.9257C78.0751 76.0871 78.1558 76.2784 78.1841 76.4806C78.3436 76.3537 78.5346 76.2728 78.7367 76.2465C78.611 76.0855 78.5302 75.894 78.5026 75.6916C78.3427 75.8178 78.1518 75.8986 77.95 75.9257Z" fill="#E0E0E0"/>
<path d="M40.1944 73.1208C40.1317 73.131 40.0675 73.1175 40.0142 73.0828C39.9609 73.0482 39.9225 72.9949 39.9064 72.9335L39.8479 72.6993C39.7731 72.4017 39.5939 72.1408 39.3429 71.9642C39.0919 71.7876 38.7859 71.707 38.4805 71.737L38.2463 71.7627C38.1829 71.7684 38.1197 71.7502 38.069 71.7117C38.0183 71.6731 37.9838 71.617 37.9724 71.5543C37.9616 71.4916 37.9749 71.427 38.0096 71.3737C38.0444 71.3203 38.098 71.2819 38.1597 71.2664L38.3939 71.2055C38.6918 71.1315 38.953 70.9524 39.1294 70.7012C39.3058 70.4499 39.3855 70.1434 39.3539 69.8381L39.3304 69.6039C39.3249 69.5409 39.3433 69.478 39.3819 69.4278C39.4205 69.3776 39.4765 69.3438 39.5389 69.3329C39.6013 69.322 39.6654 69.3349 39.7187 69.369C39.7721 69.4032 39.8106 69.4561 39.8268 69.5173L39.8854 69.7514C39.9603 70.0493 40.1399 70.3103 40.3914 70.4865C40.643 70.6628 40.9495 70.7426 41.2551 70.7114L41.4892 70.688C41.5524 70.6824 41.6154 70.7007 41.6657 70.7393C41.716 70.7779 41.7499 70.8339 41.7608 70.8964C41.7721 70.959 41.759 71.0234 41.7241 71.0766C41.6893 71.1297 41.6354 71.1675 41.5735 71.1821L41.3394 71.2429C41.0415 71.3169 40.7803 71.496 40.6039 71.7473C40.4275 71.9985 40.3478 72.305 40.3794 72.6103L40.4028 72.8445C40.4091 72.9083 40.3912 72.9721 40.3526 73.0233C40.314 73.0745 40.2575 73.1093 40.1944 73.1208ZM39.2204 71.3319C39.515 71.4393 39.7759 71.6226 39.9767 71.8634C40.0832 71.569 40.2658 71.3081 40.5058 71.1071C40.212 70.9997 39.9518 70.8163 39.7519 70.5756C39.6451 70.8705 39.4617 71.1316 39.2204 71.3319Z" fill="#E0E0E0"/>
<path d="M72.9741 82.8682C72.9114 82.8578 72.855 82.8239 72.8163 82.7735C72.7776 82.7231 72.7595 82.6598 72.7657 82.5966L72.7891 82.3507C72.8181 82.045 72.7362 81.7391 72.5582 81.4889C72.3802 81.2386 72.1181 81.0608 71.8198 80.988L71.5856 80.9294C71.5249 80.9131 71.4724 80.8747 71.4384 80.8217C71.4044 80.7687 71.3915 80.705 71.402 80.6429C71.4125 80.5809 71.4458 80.525 71.4954 80.4862C71.5449 80.4474 71.6072 80.4284 71.6699 80.4331L71.9041 80.4565C72.2095 80.4861 72.5154 80.4046 72.7657 80.227C73.016 80.0494 73.1939 79.7876 73.2668 79.4895L73.3277 79.2553C73.3388 79.1898 73.3756 79.1314 73.4298 79.093C73.484 79.0546 73.5513 79.0393 73.6168 79.0504C73.6823 79.0616 73.7407 79.0984 73.7791 79.1526C73.8176 79.2068 73.8329 79.2741 73.8217 79.3396L73.8006 79.5738C73.771 79.8792 73.8525 80.1851 74.0301 80.4354C74.2077 80.6857 74.4695 80.8636 74.7676 80.9365L75.0018 80.995C75.0626 81.0114 75.115 81.0498 75.149 81.1028C75.183 81.1558 75.1959 81.2195 75.1854 81.2815C75.1749 81.3436 75.1416 81.3995 75.092 81.4383C75.0425 81.4771 74.9802 81.496 74.9175 81.4914L74.6833 81.468C74.378 81.4389 74.0723 81.5205 73.8221 81.698C73.572 81.8756 73.394 82.1371 73.3206 82.435L73.2598 82.6691C73.2467 82.7326 73.2098 82.7886 73.1566 82.8256C73.1035 82.8627 73.0381 82.8779 72.9741 82.8682ZM72.6533 80.8569C72.8952 81.0562 73.0795 81.3165 73.1872 81.6108C73.3863 81.3682 73.6466 81.1832 73.9411 81.0746C73.6998 80.8757 73.5156 80.6164 73.4073 80.323C73.2079 80.5649 72.9477 80.7492 72.6533 80.8569Z" fill="#E0E0E0"/>
<path d="M72.5394 39.0453L73.209 39.8508L74.2182 39.5815C74.9698 39.3825 76.96 38.8533 77.4822 37.2167C77.6078 36.8205 77.5783 36.3914 77.3996 36.0162C77.2208 35.641 76.9062 35.3478 76.5195 35.1957C76.1327 35.0437 75.7026 35.0443 75.3162 35.1973C74.9298 35.3504 74.616 35.6445 74.4383 36.0202C74.5432 35.5979 74.4761 35.1513 74.2518 34.7785C74.0274 34.4057 73.6641 34.1373 73.2418 34.0323C72.8195 33.9274 72.3729 33.9945 72.0001 34.2189C71.6273 34.4432 71.3589 34.8065 71.2539 35.2288C70.7248 36.8655 72.043 38.4506 72.5394 39.0453Z" fill="#7D3091"/>
<path opacity="0.25" d="M72.5394 39.0453L73.209 39.8508L74.2182 39.5815C74.9698 39.3825 76.96 38.8533 77.4822 37.2167C77.6078 36.8205 77.5783 36.3914 77.3996 36.0162C77.2208 35.641 76.9062 35.3478 76.5195 35.1957C76.1327 35.0437 75.7026 35.0443 75.3162 35.1973C74.9298 35.3504 74.616 35.6445 74.4383 36.0202C74.5432 35.5979 74.4761 35.1513 74.2518 34.7785C74.0274 34.4057 73.6641 34.1373 73.2418 34.0323C72.8195 33.9274 72.3729 33.9945 72.0001 34.2189C71.6273 34.4432 71.3589 34.8065 71.2539 35.2288C70.7248 36.8655 72.043 38.4506 72.5394 39.0453Z" fill="white"/>
<path d="M43.6455 19.4551L44.7811 19.7384L45.5139 18.83C46.0595 18.1533 47.5042 16.3597 46.8931 14.5381C46.7459 14.0947 46.4352 13.7242 46.0243 13.5019C45.6135 13.2796 45.1333 13.2223 44.6817 13.3417C44.23 13.4611 43.8409 13.7482 43.5936 14.1445C43.3462 14.5408 43.2593 15.0165 43.3505 15.4747C43.1447 15.0566 42.7879 14.7323 42.3521 14.5673C41.9163 14.4023 41.4342 14.409 41.0031 14.586C40.5721 14.763 40.2244 15.0971 40.0303 15.5207C39.8362 15.9443 39.8103 16.4258 39.9577 16.8678C40.5688 18.6941 42.8049 19.2467 43.6455 19.4551Z" fill="#7D3091"/>
<path opacity="0.35" d="M43.6455 19.4551L44.7811 19.7384L45.5139 18.83C46.0595 18.1533 47.5042 16.3597 46.8931 14.5381C46.7459 14.0947 46.4352 13.7242 46.0243 13.5019C45.6135 13.2796 45.1333 13.2223 44.6817 13.3417C44.23 13.4611 43.8409 13.7482 43.5936 14.1445C43.3462 14.5408 43.2593 15.0165 43.3505 15.4747C43.1447 15.0566 42.7879 14.7323 42.3521 14.5673C41.9163 14.4023 41.4342 14.409 41.0031 14.586C40.5721 14.763 40.2244 15.0971 40.0303 15.5207C39.8362 15.9443 39.8103 16.4258 39.9577 16.8678C40.5688 18.6941 42.8049 19.2467 43.6455 19.4551Z" fill="white"/>
<path d="M40.4399 25.7609L41.1166 25.7024L41.3507 25.0655C41.5216 24.5972 41.9782 23.3375 41.3015 22.4548C41.1345 22.2499 40.8973 22.1144 40.636 22.0746C40.3747 22.0349 40.1079 22.0937 39.8875 22.2396C39.6671 22.3856 39.5089 22.6082 39.4435 22.8644C39.3781 23.1205 39.4103 23.3918 39.5338 23.6255C39.3459 23.4187 39.0844 23.2939 38.8055 23.278C38.5265 23.2622 38.2525 23.3566 38.0425 23.5408C37.8325 23.725 37.7032 23.9844 37.6826 24.263C37.662 24.5416 37.7516 24.8172 37.9322 25.0304C38.6089 25.9178 39.9388 25.803 40.4399 25.7609Z" fill="#7D3091"/>
<path d="M24.6502 56.93C22.6553 55.7967 19.9111 55.97 16.8813 57.7191C10.7935 61.2312 5.84375 69.7985 5.84375 76.8392C5.84375 80.3513 7.07769 82.8239 9.07259 83.9782L12.8446 86.1487C14.8395 87.2984 17.5978 87.1298 20.6416 85.3737C26.7294 81.8616 31.6815 73.2943 31.6815 66.2536C31.6815 62.7414 30.4522 60.2782 28.4644 59.1216C27.6285 58.6369 25.4931 57.4076 24.6502 56.93Z" fill="#7D3091"/>
<path opacity="0.15" d="M6.24882 73.1792C5.98761 74.3818 5.85186 75.6082 5.84375 76.8389C5.84375 80.351 7.07769 82.8236 9.07259 83.9779L12.8446 86.1484C14.8395 87.298 17.5978 87.1295 20.6416 85.3734C21.7012 84.7525 22.6931 84.0227 23.6012 83.1959L6.24882 73.1792Z" fill="black"/>
<path d="M28.4501 77.1249C30.445 73.6666 31.679 69.7705 31.679 66.2536C31.679 59.2153 26.7362 56.3611 20.6391 59.8826C14.542 63.4041 9.60156 71.9621 9.60156 79.0004C9.60156 86.0388 14.5537 88.893 20.6414 85.3738C22.2421 84.4255 23.6945 83.2468 24.952 81.8757L29.4569 82.6999C29.5872 82.7234 29.7214 82.7117 29.8457 82.6659C29.9699 82.6201 30.0796 82.542 30.1635 82.4395C30.2473 82.337 30.3022 82.214 30.3225 82.0832C30.3428 81.9523 30.3277 81.8184 30.2788 81.6954L28.4501 77.1249Z" fill="#7D3091"/>
<path opacity="0.35" d="M28.4501 77.1249C30.445 73.6666 31.679 69.7705 31.679 66.2536C31.679 59.2153 26.7362 56.3611 20.6391 59.8826C14.542 63.4041 9.60156 71.9621 9.60156 79.0004C9.60156 86.0388 14.5537 88.893 20.6414 85.3738C22.2421 84.4255 23.6945 83.2468 24.952 81.8757L29.4569 82.6999C29.5872 82.7234 29.7214 82.7117 29.8457 82.6659C29.9699 82.6201 30.0796 82.542 30.1635 82.4395C30.2473 82.337 30.3022 82.214 30.3225 82.0832C30.3428 81.9523 30.3277 81.8184 30.2788 81.6954L28.4501 77.1249Z" fill="white"/>
<path d="M25.9891 70.8031C26.4001 70.2901 26.6363 69.6592 26.6635 69.0025C26.6635 68.3774 26.4293 68.1175 26.1952 68.0332C26.4108 67.6132 26.5277 67.1495 26.537 66.6775C26.537 66.0406 26.1765 65.3031 25.4061 65.7409L22.5285 67.3986C22.7158 66.0968 22.6339 65.0947 22.2616 64.1066C21.9197 63.2005 21.0581 63.4814 20.5945 63.8724C20.4771 63.9544 20.3795 64.0614 20.3086 64.1857C20.2377 64.31 20.1954 64.4486 20.1847 64.5913C20.1847 64.6802 20.1847 64.8605 20.2035 65.0923C20.2269 65.6473 20.2831 66.9444 20.2035 67.2839C20.1238 67.6234 19.2364 69.9368 18.6675 71.3767C18.646 71.4304 18.6341 71.4875 18.6323 71.5453V79.3563C18.6323 79.4898 18.7049 79.5577 18.7986 79.5249L18.8314 79.5085L24.0036 76.5279C24.396 76.27 24.7227 75.924 24.9577 75.5175C25.1927 75.111 25.3294 74.6552 25.3569 74.1865C25.3577 73.9503 25.3325 73.7147 25.282 73.484C25.7413 72.9503 26.0279 72.2898 26.1039 71.5898C26.1142 71.3228 26.0753 71.0561 25.9891 70.8031ZM25.0221 73.1445C24.9443 73.1968 24.8858 73.2734 24.8559 73.3623C24.8185 73.4447 24.8127 73.538 24.8395 73.6245C24.9215 73.8737 24.9611 74.1349 24.9566 74.3972C24.9313 74.7181 24.8322 75.0288 24.6668 75.3051C24.5015 75.5813 24.2745 75.8155 24.0036 75.9894L19.0257 78.8693V71.4072C19.2786 70.7656 20.4306 67.799 20.5711 67.2839C20.6834 66.8531 20.6507 65.8791 20.6062 64.8488C20.6062 64.6802 20.5921 64.5421 20.5898 64.4484C20.7395 64.2889 20.9309 64.1746 21.1424 64.1183C21.2193 64.0933 21.3006 64.0842 21.3812 64.0915C21.4618 64.0989 21.5401 64.1226 21.6113 64.1611C21.6824 64.1996 21.745 64.2522 21.7952 64.3157C21.8454 64.3792 21.8822 64.4523 21.9033 64.5304C22.2733 65.5138 22.3318 66.5112 22.0953 67.8622C22.0844 67.8973 22.0819 67.9344 22.088 67.9706C22.0941 68.0068 22.1087 68.0411 22.1305 68.0706C22.1502 68.0922 22.1774 68.1054 22.2066 68.1076C22.2357 68.1098 22.2646 68.1007 22.2873 68.0823L25.4178 66.2818C25.9681 65.9657 26.1484 66.5628 26.1484 66.9046C26.1369 67.3456 25.9934 67.773 25.7363 68.1315C25.6661 68.2239 25.6327 68.339 25.6426 68.4546C25.6426 68.553 25.7128 68.6068 25.7925 68.5857C25.8112 68.5857 26.2607 68.4757 26.2607 69.2296C26.2432 69.7415 26.0264 70.2263 25.6567 70.5807C25.5835 70.649 25.5329 70.7381 25.5115 70.8359C25.4993 70.8749 25.4959 70.9161 25.5016 70.9566C25.5072 70.9971 25.5218 71.0358 25.5443 71.07C25.5443 71.07 25.7011 71.248 25.7011 71.8029C25.7035 72.133 25.3359 72.9759 25.0221 73.1539V73.1445ZM17.8526 71.5055L15.5955 72.8027C15.5356 72.8426 15.4871 72.8975 15.455 72.9619C15.4185 73.0305 15.3985 73.1066 15.3965 73.1843V82.2761C15.3965 82.4072 15.4691 82.4775 15.5627 82.4424L15.5955 82.4283L17.8526 81.1288C17.9131 81.0895 17.9617 81.0345 17.9931 80.9696C18.0299 80.9011 18.0499 80.8249 18.0517 80.7472V71.6554C18.0517 71.5079 17.965 71.4353 17.8526 71.5032V71.5055ZM16.7194 80.3866C16.4853 80.5224 16.2933 80.3866 16.2933 80.0658C16.296 79.9062 16.3359 79.7494 16.4099 79.608C16.4839 79.4665 16.5898 79.3443 16.7194 79.251C16.9535 79.1152 17.1455 79.251 17.1455 79.5741C17.1425 79.733 17.1023 79.889 17.0284 80.0296C16.9544 80.1702 16.8486 80.2917 16.7194 80.3842V80.3866Z" fill="#FAFAFA"/>
<path d="M89.6856 56.93C91.6805 55.7967 94.4247 55.97 97.4545 57.7191C103.542 61.2312 108.492 69.7985 108.492 76.8392C108.492 80.3513 107.258 82.8239 105.263 83.9782L101.491 86.1487C99.4962 87.2984 96.738 87.1298 93.6942 85.3737C87.6064 81.8616 82.6543 73.2943 82.6543 66.2536C82.6543 62.7414 83.8835 60.2782 85.8714 59.1216C86.7073 58.6369 88.8427 57.4076 89.6856 56.93Z" fill="#7D3091"/>
<path opacity="0.15" d="M108.087 73.1792C108.348 74.3818 108.484 75.6082 108.492 76.8389C108.492 80.351 107.258 82.8236 105.263 83.9779L101.491 86.1484C99.496 87.298 96.7378 87.1295 93.694 85.3734C92.6344 84.7525 91.6425 84.0227 90.7344 83.1959L108.087 73.1792Z" fill="black"/>
<path d="M85.8851 77.1249C83.8902 73.6666 82.6562 69.7705 82.6562 66.2536C82.6562 59.2153 87.599 56.3611 93.6961 59.8826C99.7932 63.4041 104.734 71.9621 104.734 79.0004C104.734 86.0388 99.7815 88.893 93.6938 85.3738C92.0931 84.4255 90.6407 83.2468 89.3832 81.8757L84.8783 82.6999C84.748 82.7234 84.6138 82.7117 84.4895 82.6659C84.3653 82.6201 84.2556 82.542 84.1718 82.4395C84.0879 82.337 84.033 82.214 84.0127 82.0832C83.9925 81.9523 84.0075 81.8184 84.0564 81.6954L85.8851 77.1249Z" fill="#7D3091"/>
<path opacity="0.35" d="M85.8851 77.1249C83.8902 73.6666 82.6562 69.7705 82.6562 66.2536C82.6562 59.2153 87.599 56.3611 93.6961 59.8826C99.7932 63.4041 104.734 71.9621 104.734 79.0004C104.734 86.0388 99.7815 88.893 93.6938 85.3738C92.0931 84.4255 90.6407 83.2468 89.3832 81.8757L84.8783 82.6999C84.748 82.7234 84.6138 82.7117 84.4895 82.6659C84.3653 82.6201 84.2556 82.542 84.1718 82.4395C84.0879 82.337 84.033 82.214 84.0127 82.0832C83.9925 81.9523 84.0075 81.8184 84.0564 81.6954L85.8851 77.1249Z" fill="white"/>
<path d="M97.3605 82.129C97.2462 82.1191 97.1356 82.0834 97.037 82.0246C96.9384 81.9658 96.8545 81.8854 96.7915 81.7895L93.5697 77.6685L90.3877 78.0619C90.2859 78.068 90.184 78.05 90.0904 78.0093C89.9969 77.9686 89.9142 77.9064 89.8492 77.8278C89.7153 77.6867 89.6131 77.5187 89.5493 77.335C89.4855 77.1513 89.4616 76.9561 89.4792 76.7624L90.0974 72.2996L87.4516 67.3498C87.2315 66.9354 87.2174 66.4812 87.4375 66.2423C87.5033 66.1712 87.5894 66.1221 87.6842 66.102C87.779 66.0819 87.8777 66.0916 87.9667 66.13L91.4788 67.4763L93.0453 64.1444C93.0833 64.0569 93.1472 63.983 93.2284 63.9328C93.3096 63.8826 93.4042 63.8584 93.4995 63.8634C93.8226 63.8869 94.1434 64.2193 94.2815 64.6712L95.9088 70.0097L99.5404 72.8194C99.6925 72.9495 99.8151 73.1106 99.8999 73.2919C99.9847 73.4732 100.03 73.6706 100.032 73.8707C100.036 73.9693 100.017 74.0674 99.9764 74.1572C99.9357 74.2471 99.8746 74.3262 99.798 74.3882L97.2224 76.2426L97.8358 81.3797C97.8803 81.7356 97.7632 82.0072 97.5268 82.1032C97.4734 82.1221 97.4171 82.1309 97.3605 82.129ZM93.6564 77.2588C93.6867 77.2587 93.7166 77.2656 93.7439 77.279C93.7711 77.2924 93.7948 77.312 93.8132 77.3361L97.1053 81.5506C97.2341 81.7122 97.3394 81.7473 97.3839 81.7309C97.4284 81.7145 97.4752 81.6185 97.4518 81.4219L96.822 76.17C96.8176 76.1347 96.8229 76.0988 96.8374 76.0662C96.8518 76.0336 96.8748 76.0056 96.9039 75.985L99.5661 74.0604C99.5905 74.0332 99.6089 74.0013 99.6202 73.9666C99.6314 73.9319 99.6354 73.8953 99.6317 73.859C99.6289 73.7206 99.5975 73.5842 99.5395 73.4585C99.4814 73.3328 99.3981 73.2205 99.2945 73.1285L95.6138 70.286C95.5806 70.2605 95.5561 70.2253 95.5436 70.1853L93.9046 64.786C93.8039 64.4558 93.5908 64.2709 93.4761 64.2615C93.4573 64.2615 93.4363 64.2615 93.4105 64.3153L91.7715 67.8134C91.7501 67.8586 91.7124 67.8941 91.6659 67.9128C91.6195 67.9314 91.5677 67.9319 91.521 67.9141L87.8379 66.5093C87.7747 66.4859 87.7583 66.5093 87.7489 66.5093C87.7053 66.6161 87.6887 66.732 87.7006 66.8467C87.7124 66.9615 87.7523 67.0715 87.8168 67.1672L90.4814 72.1685C90.5018 72.2056 90.51 72.2482 90.5048 72.2903L89.8749 76.8163C89.8661 76.9521 89.8857 77.0882 89.9325 77.216C89.9793 77.3438 90.0522 77.4605 90.1466 77.5585C90.1715 77.5904 90.2026 77.6169 90.238 77.6366C90.2734 77.6563 90.3124 77.6688 90.3526 77.6732L93.6447 77.2658L93.6564 77.2588Z" fill="#FAFAFA"/>
</svg>
