<svg width="33" height="33" viewBox="0 0 33 33" fill="none" xmlns="http://www.w3.org/2000/svg">
<path fill-rule="evenodd" clip-rule="evenodd" d="M10.0542 21.3252C9.7552 21.6702 9.81579 22.1737 10.1896 22.4497C10.5633 22.7257 11.1087 22.6697 11.4077 22.3247L16.0299 16.9914C16.2831 16.6992 16.2831 16.2841 16.0299 15.9919L11.4077 10.6585C11.1087 10.3135 10.5633 10.2576 10.1896 10.5336C9.81579 10.8096 9.75519 11.313 10.0542 11.6581L14.2433 16.4916L10.0542 21.3252ZM16.9875 21.3252C16.6885 21.6702 16.7491 22.1737 17.1229 22.4497C17.4966 22.7257 18.042 22.6697 18.341 22.3247L22.9633 16.9914C23.2165 16.6992 23.2165 16.2841 22.9633 15.9919L18.341 10.6585C18.042 10.3135 17.4966 10.2576 17.1229 10.5336C16.7491 10.8096 16.6885 11.313 16.9875 11.6581L21.1766 16.4916L16.9875 21.3252Z" fill="#28303F"/>
</svg>
