<svg width="24" height="25" viewBox="0 0 24 25" fill="none" xmlns="http://www.w3.org/2000/svg">
<path d="M16.7286 8.74231C17.1192 9.13284 17.1192 9.766 16.7286 10.1565L13.8998 12.9846L16.7281 15.8133C17.1186 16.2038 17.1186 16.837 16.7281 17.2275C16.3376 17.618 15.7044 17.618 15.3139 17.2275L12.4856 14.3988L9.65712 17.228C9.2666 17.6186 8.63343 17.6186 8.24291 17.228C7.85238 16.8375 7.85238 16.2044 8.24291 15.8138L11.0714 12.9846L8.24347 10.1571C7.85294 9.76655 7.85294 9.13339 8.24347 8.74286C8.63399 8.35234 9.26716 8.35234 9.65768 8.74286L12.4856 11.5704L15.3144 8.74231C15.705 8.35179 16.3381 8.35179 16.7286 8.74231Z" fill="#D44333"/>
</svg>
