<svg width="32" height="33" viewBox="0 0 32 33" fill="none" xmlns="http://www.w3.org/2000/svg">
<path d="M2.66602 17.3053C2.66602 12.6386 4.53268 10.772 9.19935 10.772H14.7993C19.466 10.772 21.3327 12.6386 21.3327 17.3053V22.9053C21.3327 27.572 19.466 29.4386 14.7993 29.4386H9.19935C4.53268 29.4386 2.66602 27.572 2.66602 22.9053" stroke="#292D32" stroke-width="2.5" stroke-linecap="round" stroke-linejoin="round"/>
<path d="M29.3327 14.9053C29.3327 19.572 27.466 21.4386 22.7993 21.4386H21.3327V17.3053C21.3327 12.6386 19.466 10.772 14.7993 10.772H10.666V9.30531C10.666 4.63864 12.5327 2.77197 17.1993 2.77197H22.7993C27.466 2.77197 29.3327 4.63864 29.3327 9.30531" stroke="#292D32" stroke-width="2.5" stroke-linecap="round" stroke-linejoin="round"/>
</svg>
