<svg width="32" height="43" viewBox="0 0 32 43" fill="none" xmlns="http://www.w3.org/2000/svg">
<path d="M0.529914 38.1539V4.23932C0.529914 2.19067 2.19067 0.529914 4.23931 0.529914H18.9709C19.9234 0.529914 20.8394 0.89631 21.5292 1.5532L30.1138 9.72902C30.8489 10.4291 31.265 11.4 31.265 12.4151V38.1538C31.265 40.2025 29.6042 41.8632 27.5556 41.8632H4.23932C2.19067 41.8632 0.529914 40.2025 0.529914 38.1539Z" fill="white" stroke="#E5E9EB" stroke-width="1.05983"/>
<path d="M10.5227 37H8.6392V31.1818H10.5824C11.1525 31.1818 11.642 31.2983 12.0511 31.5312C12.4602 31.7623 12.7737 32.0947 12.9915 32.5284C13.2112 32.9602 13.321 33.4782 13.321 34.0824C13.321 34.6884 13.2102 35.2093 12.9886 35.6449C12.7689 36.0805 12.4508 36.4157 12.0341 36.6506C11.6174 36.8835 11.1136 37 10.5227 37ZM9.51705 36.233H10.4744C10.9176 36.233 11.286 36.1496 11.5795 35.983C11.8731 35.8144 12.0928 35.571 12.2386 35.2528C12.3845 34.9328 12.4574 34.5426 12.4574 34.0824C12.4574 33.6259 12.3845 33.2386 12.2386 32.9205C12.0947 32.6023 11.8797 32.3608 11.5938 32.196C11.3078 32.0312 10.9527 31.9489 10.5284 31.9489H9.51705V36.233ZM16.0225 37.0881C15.6134 37.0881 15.2564 36.9943 14.9515 36.8068C14.6466 36.6193 14.4098 36.357 14.2413 36.0199C14.0727 35.6828 13.9884 35.2888 13.9884 34.8381C13.9884 34.3854 14.0727 33.9896 14.2413 33.6506C14.4098 33.3116 14.6466 33.0483 14.9515 32.8608C15.2564 32.6733 15.6134 32.5795 16.0225 32.5795C16.4316 32.5795 16.7886 32.6733 17.0936 32.8608C17.3985 33.0483 17.6352 33.3116 17.8038 33.6506C17.9723 33.9896 18.0566 34.3854 18.0566 34.8381C18.0566 35.2888 17.9723 35.6828 17.8038 36.0199C17.6352 36.357 17.3985 36.6193 17.0936 36.8068C16.7886 36.9943 16.4316 37.0881 16.0225 37.0881ZM16.0254 36.375C16.2905 36.375 16.5102 36.3049 16.6845 36.1648C16.8587 36.0246 16.9875 35.8381 17.0708 35.6051C17.1561 35.3722 17.1987 35.1155 17.1987 34.8352C17.1987 34.5568 17.1561 34.3011 17.0708 34.0682C16.9875 33.8333 16.8587 33.6449 16.6845 33.5028C16.5102 33.3608 16.2905 33.2898 16.0254 33.2898C15.7583 33.2898 15.5367 33.3608 15.3606 33.5028C15.1864 33.6449 15.0566 33.8333 14.9714 34.0682C14.8881 34.3011 14.8464 34.5568 14.8464 34.8352C14.8464 35.1155 14.8881 35.3722 14.9714 35.6051C15.0566 35.8381 15.1864 36.0246 15.3606 36.1648C15.5367 36.3049 15.7583 36.375 16.0254 36.375ZM20.6828 37.0881C20.2605 37.0881 19.8969 36.9924 19.5919 36.8011C19.2889 36.608 19.0559 36.3419 18.8931 36.0028C18.7302 35.6638 18.6488 35.2756 18.6488 34.8381C18.6488 34.3949 18.7321 34.0038 18.8988 33.6648C19.0654 33.3239 19.3003 33.0578 19.6033 32.8665C19.9063 32.6752 20.2633 32.5795 20.6743 32.5795C21.0058 32.5795 21.3012 32.6411 21.5607 32.7642C21.8202 32.8854 22.0294 33.0559 22.1885 33.2756C22.3495 33.4953 22.4452 33.7519 22.4755 34.0455H21.6488C21.6033 33.8409 21.4991 33.6648 21.3363 33.517C21.1753 33.3693 20.9594 33.2955 20.6885 33.2955C20.4518 33.2955 20.2444 33.358 20.0664 33.483C19.8902 33.6061 19.7529 33.7822 19.6544 34.0114C19.5559 34.2386 19.5067 34.5076 19.5067 34.8182C19.5067 35.1364 19.555 35.411 19.6516 35.642C19.7482 35.8731 19.8845 36.0521 20.0607 36.179C20.2387 36.3059 20.448 36.3693 20.6885 36.3693C20.8495 36.3693 20.9953 36.34 21.126 36.2812C21.2586 36.2206 21.3694 36.1345 21.4584 36.0227C21.5493 35.911 21.6128 35.7765 21.6488 35.6193H22.4755C22.4452 35.9015 22.3533 36.1534 22.1999 36.375C22.0465 36.5966 21.841 36.7708 21.5834 36.8977C21.3277 37.0246 21.0275 37.0881 20.6828 37.0881Z" fill="#005DA9"/>
<path fill-rule="evenodd" clip-rule="evenodd" d="M9.92969 10.7526C9.92969 10.2443 10.1316 9.75676 10.4911 9.39732C10.8505 9.03787 11.338 8.83594 11.8464 8.83594H16.2413C16.7496 8.83605 17.237 9.03805 17.5964 9.39752L20.8681 12.6693C21.2276 13.0286 21.4296 13.5161 21.4297 14.0244V22.2526C21.4297 22.7609 21.2278 23.2484 20.8683 23.6079C20.5089 23.9673 20.0214 24.1693 19.513 24.1693H11.8464C11.338 24.1693 10.8505 23.9673 10.4911 23.6079C10.1316 23.2484 9.92969 22.7609 9.92969 22.2526V10.7526ZM11.8464 16.5026C11.8464 16.2484 11.9473 16.0047 12.127 15.825C12.3068 15.6452 12.5505 15.5443 12.8047 15.5443H18.5547C18.8089 15.5443 19.0526 15.6452 19.2323 15.825C19.4121 16.0047 19.513 16.2484 19.513 16.5026C19.513 16.7568 19.4121 17.0005 19.2323 17.1802C19.0526 17.36 18.8089 17.4609 18.5547 17.4609H12.8047C12.5505 17.4609 12.3068 17.36 12.127 17.1802C11.9473 17.0005 11.8464 16.7568 11.8464 16.5026ZM12.8047 19.3776C12.5505 19.3776 12.3068 19.4786 12.127 19.6583C11.9473 19.838 11.8464 20.0818 11.8464 20.3359C11.8464 20.5901 11.9473 20.8339 12.127 21.0136C12.3068 21.1933 12.5505 21.2943 12.8047 21.2943H18.5547C18.8089 21.2943 19.0526 21.1933 19.2323 21.0136C19.4121 20.8339 19.513 20.5901 19.513 20.3359C19.513 20.0818 19.4121 19.838 19.2323 19.6583C19.0526 19.4786 18.8089 19.3776 18.5547 19.3776H12.8047Z" fill="#4094F7"/>
</svg>
