<svg width="121" height="119" viewBox="0 0 121 119" fill="none" xmlns="http://www.w3.org/2000/svg">
<rect width="3.24797" height="3.24797" rx="1.53834" fill="#BDBDBD"/>
<rect x="12.9919" width="3.24797" height="3.24797" rx="1.53834" fill="#BDBDBD"/>
<rect x="25.9839" width="3.24797" height="3.24797" rx="1.53834" fill="#BDBDBD"/>
<rect x="38.9756" width="3.24797" height="3.24797" rx="1.53834" fill="#BDBDBD"/>
<rect x="51.9678" width="3.24797" height="3.24797" rx="1.53834" fill="#BDBDBD"/>
<rect x="64.9595" width="3.24797" height="3.24797" rx="1.53834" fill="#BDBDBD"/>
<rect x="77.9514" width="3.24797" height="3.24797" rx="1.53834" fill="#BDBDBD"/>
<rect x="90.9434" width="3.24797" height="3.24797" rx="1.53834" fill="#BDBDBD"/>
<rect x="103.935" width="3.24797" height="3.24797" rx="1.53834" fill="#BDBDBD"/>
<rect x="116.927" width="3.24797" height="3.24797" rx="1.53834" fill="#BDBDBD"/>
<rect y="12.9922" width="3.24797" height="3.24797" rx="1.53834" fill="#BDBDBD"/>
<rect x="12.9919" y="12.9922" width="3.24797" height="3.24797" rx="1.53834" fill="#BDBDBD"/>
<rect x="25.9839" y="12.9922" width="3.24797" height="3.24797" rx="1.53834" fill="#BDBDBD"/>
<rect x="38.9756" y="12.9922" width="3.24797" height="3.24797" rx="1.53834" fill="#BDBDBD"/>
<rect x="51.9678" y="12.9922" width="3.24797" height="3.24797" rx="1.53834" fill="#BDBDBD"/>
<rect x="64.9595" y="12.9922" width="3.24797" height="3.24797" rx="1.53834" fill="#BDBDBD"/>
<rect x="77.9514" y="12.9922" width="3.24797" height="3.24797" rx="1.53834" fill="#BDBDBD"/>
<rect x="90.9434" y="12.9922" width="3.24797" height="3.24797" rx="1.53834" fill="#BDBDBD"/>
<rect x="103.935" y="12.9922" width="3.24797" height="3.24797" rx="1.53834" fill="#BDBDBD"/>
<rect x="116.927" y="12.9922" width="3.24797" height="3.24797" rx="1.53834" fill="#BDBDBD"/>
<rect y="25.9844" width="3.24797" height="3.24797" rx="1.53834" fill="#BDBDBD"/>
<rect x="12.9919" y="25.9844" width="3.24797" height="3.24797" rx="1.53834" fill="#BDBDBD"/>
<rect x="25.9839" y="25.9844" width="3.24797" height="3.24797" rx="1.53834" fill="#BDBDBD"/>
<rect x="38.9756" y="25.9844" width="3.24797" height="3.24797" rx="1.53834" fill="#BDBDBD"/>
<rect x="51.9678" y="25.9844" width="3.24797" height="3.24797" rx="1.53834" fill="#BDBDBD"/>
<rect x="64.9595" y="25.9844" width="3.24797" height="3.24797" rx="1.53834" fill="#BDBDBD"/>
<rect x="77.9514" y="25.9844" width="3.24797" height="3.24797" rx="1.53834" fill="#BDBDBD"/>
<rect x="90.9434" y="25.9844" width="3.24797" height="3.24797" rx="1.53834" fill="#BDBDBD"/>
<rect x="103.935" y="25.9844" width="3.24797" height="3.24797" rx="1.53834" fill="#BDBDBD"/>
<rect x="116.927" y="25.9844" width="3.24797" height="3.24797" rx="1.53834" fill="#BDBDBD"/>
<rect y="38.9766" width="3.24797" height="3.24797" rx="1.53834" fill="#BDBDBD"/>
<rect x="12.9919" y="38.9766" width="3.24797" height="3.24797" rx="1.53834" fill="#BDBDBD"/>
<rect x="25.9839" y="38.9766" width="3.24797" height="3.24797" rx="1.53834" fill="#BDBDBD"/>
<rect x="38.9756" y="38.9766" width="3.24797" height="3.24797" rx="1.53834" fill="#BDBDBD"/>
<rect x="51.9678" y="38.9766" width="3.24797" height="3.24797" rx="1.53834" fill="#BDBDBD"/>
<rect x="64.9595" y="38.9766" width="3.24797" height="3.24797" rx="1.53834" fill="#BDBDBD"/>
<rect x="77.9514" y="38.9766" width="3.24797" height="3.24797" rx="1.53834" fill="#BDBDBD"/>
<rect x="90.9434" y="38.9766" width="3.24797" height="3.24797" rx="1.53834" fill="#BDBDBD"/>
<rect x="103.935" y="38.9766" width="3.24797" height="3.24797" rx="1.53834" fill="#BDBDBD"/>
<rect x="116.927" y="38.9766" width="3.24797" height="3.24797" rx="1.53834" fill="#BDBDBD"/>
<rect y="51.9688" width="3.24797" height="3.24797" rx="1.53834" fill="#BDBDBD"/>
<rect x="12.9919" y="51.9688" width="3.24797" height="3.24797" rx="1.53834" fill="#BDBDBD"/>
<rect x="25.9839" y="51.9688" width="3.24797" height="3.24797" rx="1.53834" fill="#BDBDBD"/>
<rect x="38.9756" y="51.9688" width="3.24797" height="3.24797" rx="1.53834" fill="#BDBDBD"/>
<rect x="51.9678" y="51.9688" width="3.24797" height="3.24797" rx="1.53834" fill="#BDBDBD"/>
<rect x="64.9595" y="51.9688" width="3.24797" height="3.24797" rx="1.53834" fill="#BDBDBD"/>
<rect x="77.9514" y="51.9688" width="3.24797" height="3.24797" rx="1.53834" fill="#BDBDBD"/>
<rect x="90.9434" y="51.9688" width="3.24797" height="3.24797" rx="1.53834" fill="#BDBDBD"/>
<rect x="103.935" y="51.9688" width="3.24797" height="3.24797" rx="1.53834" fill="#BDBDBD"/>
<rect x="116.927" y="51.9688" width="3.24797" height="3.24797" rx="1.53834" fill="#BDBDBD"/>
<rect y="64.9609" width="3.24797" height="3.24797" rx="1.53834" fill="#BDBDBD"/>
<rect x="12.9919" y="64.9609" width="3.24797" height="3.24797" rx="1.53834" fill="#BDBDBD"/>
<rect x="25.9839" y="64.9609" width="3.24797" height="3.24797" rx="1.53834" fill="#BDBDBD"/>
<rect x="38.9756" y="64.9609" width="3.24797" height="3.24797" rx="1.53834" fill="#BDBDBD"/>
<rect x="51.9678" y="64.9609" width="3.24797" height="3.24797" rx="1.53834" fill="#BDBDBD"/>
<rect x="64.9595" y="64.9609" width="3.24797" height="3.24797" rx="1.53834" fill="#BDBDBD"/>
<rect x="77.9514" y="64.9609" width="3.24797" height="3.24797" rx="1.53834" fill="#BDBDBD"/>
<rect x="90.9434" y="64.9609" width="3.24797" height="3.24797" rx="1.53834" fill="#BDBDBD"/>
<rect x="103.935" y="64.9609" width="3.24797" height="3.24797" rx="1.53834" fill="#BDBDBD"/>
<rect x="116.927" y="64.9609" width="3.24797" height="3.24797" rx="1.53834" fill="#BDBDBD"/>
<rect y="77.9531" width="3.24797" height="3.24797" rx="1.53834" fill="#BDBDBD"/>
<rect y="90.4805" width="3.24797" height="3.24797" rx="1.53834" fill="#BDBDBD"/>
<rect y="103.012" width="3.24797" height="3.24797" rx="1.53834" fill="#BDBDBD"/>
<rect y="115.543" width="3.24797" height="3.24797" rx="1.53834" fill="#BDBDBD"/>
<rect x="12.9919" y="77.9531" width="3.24797" height="3.24797" rx="1.53834" fill="#BDBDBD"/>
<rect x="12.9919" y="90.4805" width="3.24797" height="3.24797" rx="1.53834" fill="#BDBDBD"/>
<rect x="12.9919" y="103.012" width="3.24797" height="3.24797" rx="1.53834" fill="#BDBDBD"/>
<rect x="12.9919" y="115.543" width="3.24797" height="3.24797" rx="1.53834" fill="#BDBDBD"/>
<rect x="25.9839" y="77.9531" width="3.24797" height="3.24797" rx="1.53834" fill="#BDBDBD"/>
<rect x="25.9839" y="90.4805" width="3.24797" height="3.24797" rx="1.53834" fill="#BDBDBD"/>
<rect x="25.9839" y="103.012" width="3.24797" height="3.24797" rx="1.53834" fill="#BDBDBD"/>
<rect x="25.9839" y="115.543" width="3.24797" height="3.24797" rx="1.53834" fill="#BDBDBD"/>
<rect x="38.9756" y="77.9531" width="3.24797" height="3.24797" rx="1.53834" fill="#BDBDBD"/>
<rect x="38.9756" y="90.4805" width="3.24797" height="3.24797" rx="1.53834" fill="#BDBDBD"/>
<rect x="38.9756" y="103.012" width="3.24797" height="3.24797" rx="1.53834" fill="#BDBDBD"/>
<rect x="38.9756" y="115.543" width="3.24797" height="3.24797" rx="1.53834" fill="#BDBDBD"/>
<rect x="51.9678" y="77.9531" width="3.24797" height="3.24797" rx="1.53834" fill="#BDBDBD"/>
<rect x="51.9678" y="90.4805" width="3.24797" height="3.24797" rx="1.53834" fill="#BDBDBD"/>
<rect x="51.9678" y="103.012" width="3.24797" height="3.24797" rx="1.53834" fill="#BDBDBD"/>
<rect x="51.9678" y="115.543" width="3.24797" height="3.24797" rx="1.53834" fill="#BDBDBD"/>
<rect x="64.9595" y="77.9531" width="3.24797" height="3.24797" rx="1.53834" fill="#BDBDBD"/>
<rect x="64.9595" y="90.4805" width="3.24797" height="3.24797" rx="1.53834" fill="#BDBDBD"/>
<rect x="64.9595" y="103.012" width="3.24797" height="3.24797" rx="1.53834" fill="#BDBDBD"/>
<rect x="64.9595" y="115.543" width="3.24797" height="3.24797" rx="1.53834" fill="#BDBDBD"/>
<rect x="77.9514" y="77.9531" width="3.24797" height="3.24797" rx="1.53834" fill="#BDBDBD"/>
<rect x="77.9514" y="90.4805" width="3.24797" height="3.24797" rx="1.53834" fill="#BDBDBD"/>
<rect x="77.9514" y="103.012" width="3.24797" height="3.24797" rx="1.53834" fill="#BDBDBD"/>
<rect x="77.9514" y="115.543" width="3.24797" height="3.24797" rx="1.53834" fill="#BDBDBD"/>
<rect x="90.9434" y="77.9531" width="3.24797" height="3.24797" rx="1.53834" fill="#BDBDBD"/>
<rect x="90.9434" y="90.4805" width="3.24797" height="3.24797" rx="1.53834" fill="#BDBDBD"/>
<rect x="90.9434" y="103.012" width="3.24797" height="3.24797" rx="1.53834" fill="#BDBDBD"/>
<rect x="90.9434" y="115.543" width="3.24797" height="3.24797" rx="1.53834" fill="#BDBDBD"/>
<rect x="103.935" y="77.9531" width="3.24797" height="3.24797" rx="1.53834" fill="#BDBDBD"/>
<rect x="103.935" y="90.4805" width="3.24797" height="3.24797" rx="1.53834" fill="#BDBDBD"/>
<rect x="103.935" y="103.012" width="3.24797" height="3.24797" rx="1.53834" fill="#BDBDBD"/>
<rect x="103.935" y="115.543" width="3.24797" height="3.24797" rx="1.53834" fill="#BDBDBD"/>
<rect x="116.927" y="77.9531" width="3.24797" height="3.24797" rx="1.53834" fill="#BDBDBD"/>
<rect x="116.927" y="90.4805" width="3.24797" height="3.24797" rx="1.53834" fill="#BDBDBD"/>
<rect x="116.927" y="103.012" width="3.24797" height="3.24797" rx="1.53834" fill="#BDBDBD"/>
<rect x="116.927" y="115.543" width="3.24797" height="3.24797" rx="1.53834" fill="#BDBDBD"/>
</svg>
