<svg width="14" height="15" viewBox="0 0 14 15" fill="none" xmlns="http://www.w3.org/2000/svg">
<g clip-path="url(#clip0_7954_308921)">
<path d="M10.5007 6.33319L8.16733 3.99985M1.45898 13.0415L3.4332 12.8222C3.6744 12.7954 3.795 12.782 3.90773 12.7455C4.00774 12.7131 4.10291 12.6673 4.19067 12.6095C4.28958 12.5443 4.37539 12.4585 4.54699 12.2868L12.2507 4.58319C12.895 3.93885 12.895 2.89418 12.2507 2.24985C11.6063 1.60552 10.5617 1.60552 9.91733 2.24985L2.21366 9.95351C2.04205 10.1251 1.95625 10.2109 1.89102 10.3098C1.83315 10.3976 1.78741 10.4928 1.75503 10.5928C1.71854 10.7055 1.70514 10.8261 1.67834 11.0673L1.45898 13.0415Z" stroke="black" stroke-width="2" stroke-linecap="round" stroke-linejoin="round"/>
</g>
<defs>
<clipPath id="clip0_7954_308921">
<rect width="14" height="14" fill="white" transform="translate(0 0.5)"/>
</clipPath>
</defs>
</svg>
