<svg width="239" height="299" viewBox="0 0 239 299" fill="none" xmlns="http://www.w3.org/2000/svg">
<circle cx="119.226" cy="179.773" r="119.226" fill="#CCE8FF"/>
<g clip-path="url(#clip0_3214_244868)">
<path d="M168.165 89.3224L168.164 89.3225C164.396 89.5199 160.565 88.4162 157.411 85.9037C154.892 83.8969 154.526 80.2002 156.544 77.6673C156.544 77.6669 156.545 77.6665 156.545 77.6661M168.165 89.3224L163.108 76.8315C162.119 76.4029 161.016 76.3133 159.971 76.5767C158.925 76.84 157.996 77.4416 157.328 78.2876L156.546 77.6645L156.545 77.6661M168.165 89.3224C169.723 89.2392 171.267 88.9341 172.754 88.4064L173.663 88.0838L173.373 87.1637C172.618 84.7641 171.382 82.5431 169.742 80.6357C168.106 78.7335 166.101 77.1829 163.848 76.0776M168.165 89.3224L163.848 76.0776M156.545 77.6661C157.35 76.6479 158.468 75.924 159.726 75.607C160.985 75.2897 162.314 75.3977 163.506 75.9139L163.518 75.9193L163.53 75.925C163.54 75.9297 163.554 75.936 163.57 75.9434C163.637 75.9737 163.749 76.0244 163.848 76.0776M156.545 77.6661L163.848 76.0776M183.398 85.6969C185.778 82.7349 187.293 79.1731 187.776 75.4045C188.217 71.9675 187.783 68.4804 186.524 65.2637L185.617 65.6919M183.398 85.6969L172.272 92.9065C166.352 94.4183 159.864 93.2686 154.777 89.2156C150.773 86.0257 149.932 80.319 152.659 76.0176C152.812 75.7803 152.971 75.5475 153.144 75.318L153.314 75.0939M183.398 85.6969C181.965 87.4962 180.244 89.0467 178.306 90.286L183.398 85.6969ZM185.617 65.6919C185.497 65.3812 185.369 65.0732 185.232 64.768L181.428 66.5652M185.617 65.6919C186.797 68.735 187.2 72.0297 186.784 75.2774C186.324 78.8631 184.883 82.2522 182.619 85.0706L182.616 85.0737C181.251 86.787 179.613 88.2635 177.767 89.4435L177.244 89.7782L177.312 90.3959C177.972 96.3747 176.231 102.371 172.471 107.066L172.468 107.07C170.618 109.405 168.326 111.352 165.723 112.8C163.12 114.249 160.257 115.17 157.298 115.512L156.681 115.583L156.471 116.169C155.735 118.232 154.662 120.158 153.296 121.871L153.293 121.875C150.961 124.828 147.828 127.048 144.268 128.27C141.031 129.381 137.565 129.623 134.215 128.981L135.046 125.869C137.803 126.375 140.65 126.166 143.312 125.254C146.284 124.235 148.9 122.384 150.849 119.92M185.617 65.6919L182.712 67.0646M181.428 66.5652L181.424 66.5707M181.428 66.5652L181.431 66.5674L182.335 66.1583C182.47 66.4568 182.596 66.7591 182.712 67.0646M181.428 66.5652L181.43 66.5681L181.424 66.5707M181.424 66.5707C183.709 71.6192 183.125 77.8021 179.383 82.4982C178.902 83.1019 178.386 83.6569 177.84 84.1675C177.886 84.2866 177.931 84.4062 177.975 84.5263L177.036 84.8702L176.403 84.0958C176.486 84.0279 176.569 83.9591 176.65 83.8893C174.541 78.864 170.691 74.7509 165.788 72.318C163.707 71.272 161.329 70.977 159.056 71.4828C156.783 71.9887 154.755 73.2643 153.314 75.0939M181.424 66.5707L181.435 66.5796L181.855 67.4693L182.712 67.0646M153.314 75.0939L154.111 75.6972L154.105 75.7051M153.314 75.0939L154.1 75.7125C154.102 75.7101 154.103 75.7076 154.105 75.7051M141.165 110.924C144.281 113.411 148.024 114.989 151.98 115.485L153.376 115.659L152.752 116.92C152.236 117.963 151.604 118.972 150.849 119.92M141.165 110.924L153.504 76.5529C153.503 76.5541 153.502 76.5552 153.501 76.5563M141.165 110.924C139.794 109.829 138.56 108.573 137.489 107.183C135.165 104.007 135.166 99.4873 137.797 96.1753L137.967 95.9726L137.968 95.9724C138.127 95.7824 138.304 95.5903 138.488 95.4013C141.734 92.1297 146.907 91.7391 150.492 94.595C155.595 98.6607 158.034 104.858 157.573 111L157.473 112.324L158.774 112.054C163.221 111.129 167.203 108.675 170.027 105.117C172.859 101.57 174.36 97.1432 174.268 92.6049L174.241 91.277L172.972 91.6699C167.09 93.4916 160.501 92.497 155.4 88.4335C151.812 85.5752 151.04 80.4432 153.501 76.5563M141.165 110.924L153.501 76.5563M150.849 119.92C150.849 119.92 150.848 119.921 150.848 119.921L150.066 119.298L150.85 119.918C150.85 119.919 150.849 119.919 150.849 119.92ZM182.712 67.0646C184.692 72.2663 183.925 78.4019 180.166 83.1213C179.408 84.0721 178.569 84.9086 177.668 85.6447L176.58 86.5337L176.097 85.2142C174.181 79.9846 170.332 75.6893 165.343 73.2138L165.339 73.2114C163.464 72.269 161.322 72.0032 159.273 72.4589L159.059 71.4939L159.273 72.4589C157.228 72.914 155.403 74.0606 154.105 75.7051M154.105 75.7051L153.942 75.9213L153.942 75.9218C153.788 76.1243 153.645 76.334 153.501 76.5563M147.711 111.058L147.671 111.108L149.047 111.552C150.428 111.998 151.846 112.279 153.275 112.392L154.239 112.468L154.348 111.508C154.525 109.949 154.48 108.375 154.213 106.837C153.562 103.002 151.521 99.541 148.48 97.1153L148.479 97.115C145.96 95.1079 142.275 95.5779 140.255 98.1131C138.548 100.256 138.554 103.213 140.109 105.293L140.124 105.315L140.141 105.335C140.154 105.351 140.166 105.367 140.195 105.405L140.208 105.422C140.237 105.46 140.283 105.52 140.338 105.583C142.303 108.002 144.841 109.882 147.711 111.058Z" fill="#005DA9" stroke="#CCE8FF" stroke-width="2"/>
</g>
<g clip-path="url(#clip1_3214_244868)">
<path d="M72.6008 51.8693L72.6018 51.8693C76.3693 52.0668 80.2006 50.9631 83.3544 48.4506C85.8733 46.4438 86.2394 42.747 84.2215 40.2141C84.2212 40.2138 84.2209 40.2134 84.2206 40.213M72.6008 51.8693L77.6577 39.3784C78.6467 38.9498 79.7498 38.8602 80.7951 39.1236C81.8404 39.3869 82.7693 39.9884 83.4372 40.8345L84.2193 40.2114L84.2206 40.213M72.6008 51.8693C71.0429 51.7861 69.4988 51.481 68.0118 50.9533L67.1027 50.6307L67.3924 49.7106C68.1479 47.3109 69.3834 45.0899 71.024 43.1826C72.6601 41.2804 74.6649 39.7298 76.9172 38.6245M72.6008 51.8693L76.9172 38.6245M84.2206 40.213C83.4161 39.1948 82.2978 38.4709 81.0394 38.1539C79.7802 37.8366 78.4515 37.9445 77.2601 38.4608L77.2477 38.4662L77.2355 38.4719C77.2253 38.4766 77.2116 38.4828 77.1953 38.4903C77.1284 38.5206 77.017 38.5712 76.9172 38.6245M84.2206 40.213L76.9172 38.6245M57.3672 48.2437C54.9878 45.2817 53.4729 41.7199 52.9898 37.9514C52.5491 34.5144 52.9823 31.0273 54.2418 27.8106L55.1482 28.2388M57.3672 48.2437L68.4938 55.4533C74.414 56.9652 80.9012 55.8155 85.9885 51.7625C89.9925 48.5726 90.8332 42.8658 88.1067 38.5644C87.9537 38.3272 87.7951 38.0944 87.6212 37.8648L87.4517 37.6408M57.3672 48.2437C58.8009 50.0431 60.5215 51.5936 62.4599 52.8329L57.3672 48.2437ZM55.1482 28.2388C55.2686 27.9281 55.3971 27.62 55.5336 27.3149L59.3374 29.112M55.1482 28.2388C53.9689 31.2818 53.5653 34.5765 53.9816 37.8242C54.4414 41.41 55.8828 44.7991 58.1468 47.6175L58.1493 47.6206C59.5145 49.3339 61.1529 50.8103 62.9986 51.9904L63.5221 52.3251L63.4538 52.9427C62.7932 58.9216 64.5344 64.918 68.2945 69.6132L68.2977 69.6172C70.1477 71.9518 72.4397 73.8989 75.0425 75.3473C77.6454 76.7957 80.5081 77.717 83.4672 78.0586L84.0851 78.1299L84.2943 78.7156C85.0311 80.7784 86.104 82.7052 87.4695 84.418L87.4724 84.4216C89.8048 87.3751 92.9379 89.595 96.4975 90.8165C99.7348 91.9274 103.201 92.1698 106.551 91.5284L105.72 88.4163C102.963 88.9223 100.116 88.713 97.4535 87.8007C94.4816 86.7822 91.8654 84.9306 89.9166 82.4666M55.1482 28.2388L58.0536 29.6115M59.3374 29.112L59.3418 29.1175M59.3374 29.112L59.3346 29.1143L58.4308 28.7051C58.2956 29.0037 58.1699 29.306 58.0536 29.6115M59.3374 29.112L59.336 29.1149L59.3418 29.1175M59.3418 29.1175C57.0564 34.1661 57.641 40.349 61.3823 45.0451C61.8632 45.6487 62.3794 46.2038 62.9256 46.7144C62.8798 46.8335 62.8349 46.9531 62.7909 47.0732L63.7299 47.4171L64.3626 46.6427C64.2795 46.5748 64.197 46.5059 64.1152 46.4362C66.2245 41.4109 70.0748 37.2977 74.9776 34.8649C77.0582 33.8189 79.4363 33.5238 81.7094 34.0297C83.9825 34.5355 86.011 35.8112 87.4517 37.6408M59.3418 29.1175L59.3306 29.1264L58.9102 30.0162L58.0536 29.6115M87.4517 37.6408L86.6542 38.2441L86.6602 38.252M87.4517 37.6408L86.666 38.2594C86.6641 38.2569 86.6621 38.2545 86.6602 38.252M99.6004 73.471C96.4844 75.958 92.742 77.5362 88.786 78.0315L87.3899 78.2063L88.014 79.4673C88.53 80.5098 89.162 81.5192 89.9166 82.4666M99.6004 73.471L87.2621 39.0998C87.2628 39.1009 87.2635 39.1021 87.2643 39.1032M99.6004 73.471C100.972 72.376 102.206 71.1199 103.277 69.7299C105.601 66.5538 105.6 62.0341 102.968 58.7221L102.798 58.5195L102.798 58.5193C102.639 58.3292 102.462 58.1371 102.278 57.9482C99.0317 54.6766 93.8589 54.2859 90.2741 57.1419C85.1709 61.2075 82.7317 67.4053 83.1927 73.5465L83.2921 74.8707L81.992 74.6004C77.545 73.676 73.563 71.2215 70.739 67.6642C67.9066 64.1171 66.4059 59.6901 66.4976 55.1518L66.5244 53.8239L67.7932 54.2168C73.6759 56.0384 80.2648 55.0439 85.3654 50.9804C88.9532 48.122 89.7257 42.9901 87.2643 39.1032M99.6004 73.471L87.2643 39.1032M89.9166 82.4666C89.917 82.467 89.9174 82.4675 89.9177 82.468L90.6999 81.8449L89.9155 82.4651C89.9158 82.4656 89.9162 82.4661 89.9166 82.4666ZM58.0536 29.6115C56.0739 34.8132 56.8403 40.9488 60.6001 45.6682C61.3576 46.6189 62.1963 47.4555 63.0973 48.1915L64.1856 49.0806L64.6689 47.761C66.5844 42.5315 70.4333 38.2362 75.4221 35.7606L75.4268 35.7583C77.3014 34.8159 79.4441 34.55 81.4922 35.0058L81.7069 34.0407L81.4922 35.0058C83.5372 35.4609 85.3625 36.6075 86.6602 38.252M86.6602 38.252L86.8237 38.4682L86.8241 38.4687C86.9775 38.6712 87.1207 38.8808 87.2643 39.1032M93.0542 73.6044L93.0948 73.6553L91.7188 74.0993C90.338 74.5449 88.9196 74.8256 87.4903 74.9387L86.5269 75.0149L86.4179 74.0546C86.2408 72.496 86.2858 70.9216 86.5527 69.3843C87.2034 65.549 89.2445 62.0879 92.2858 59.6622L92.2862 59.6619C94.8055 57.6548 98.4905 58.1247 100.51 60.66C102.217 62.8027 102.211 65.7597 100.657 67.8404L100.641 67.8614L100.625 67.8816C100.611 67.8974 100.599 67.9134 100.57 67.9516L100.557 67.9688C100.528 68.0071 100.483 68.0667 100.428 68.13C98.4627 70.5493 95.9249 72.4289 93.0542 73.6044Z" fill="#005DA9" stroke="#CCE8FF" stroke-width="2"/>
</g>
<g clip-path="url(#clip2_3214_244868)">
<path d="M78.0895 103.828C86.1588 103.828 92.7002 110.535 92.7002 118.808V124.372H99.7969V118.808C99.7969 110.535 93.2554 103.828 85.1861 103.828H78.0895Z" fill="#07C0EA" stroke="#2B9FFE" stroke-miterlimit="10"/>
<path d="M12.6873 118.808V241.354C12.6873 249.627 19.2288 256.334 27.2981 256.334H201.233C209.302 256.334 215.844 249.627 215.844 241.354V139.351C215.844 131.078 209.302 124.372 201.233 124.372H92.6959V118.808C92.6959 110.535 86.1544 103.828 78.0851 103.828H27.2981C19.2288 103.828 12.6873 110.535 12.6873 118.808Z" fill="white" stroke="#2B9FFE" stroke-miterlimit="10"/>
<ellipse cx="4.81083" cy="4.81083" rx="4.81083" ry="4.81083" transform="matrix(-1 0 0 1 137.055 176.539)" fill="#00467F"/>
<ellipse cx="3.29162" cy="0.519729" rx="3.29162" ry="0.519729" transform="matrix(-1 0 0 1 137.562 190.211)" fill="#CCE8FF"/>
<ellipse cx="4.81083" cy="4.81083" rx="4.81083" ry="4.81083" transform="matrix(-1 0 0 1 100.086 176.539)" fill="#00467F"/>
<ellipse cx="3.29162" cy="0.519729" rx="3.29162" ry="0.519729" transform="matrix(-1 0 0 1 100.594 190.211)" fill="#CCE8FF"/>
<rect width="15.1921" height="1.01281" rx="0.506403" transform="matrix(-1 0 0 1 122.875 196.289)" fill="#00467F"/>
</g>
<defs>
<clipPath id="clip0_3214_244868">
<rect width="84.2695" height="84.2695" fill="white" transform="translate(99.875 103.359) rotate(-51.4564)"/>
</clipPath>
<clipPath id="clip1_3214_244868">
<rect width="84.2695" height="84.2695" fill="white" transform="matrix(-0.623109 -0.782135 -0.782135 0.623109 140.891 65.9062)"/>
</clipPath>
<clipPath id="clip2_3214_244868">
<rect width="203.574" height="152.934" fill="white" transform="matrix(-1 0 0 1 216.055 103.617)"/>
</clipPath>
</defs>
</svg>
