<svg width="18" height="19" viewBox="0 0 18 19" fill="none" xmlns="http://www.w3.org/2000/svg">
<path d="M6.77195 10.9999C6.47945 10.5724 6.31445 10.0549 6.31445 9.49994C6.31445 8.01494 7.51445 6.81494 8.99945 6.81494C10.4845 6.81494 11.6845 8.01494 11.6845 9.49994C11.6845 10.9849 10.4845 12.1849 8.99945 12.1849" stroke="#292D32" stroke-width="1.5" stroke-linecap="round" stroke-linejoin="round"/>
<path d="M13.1709 4.68486C11.9034 3.78486 10.4784 3.29736 9.00086 3.29736C6.35336 3.29736 3.88586 4.85736 2.16836 7.55736C1.49336 8.61486 1.49336 10.3924 2.16836 11.4499C3.88586 14.1499 6.35336 15.7099 9.00086 15.7099C11.6484 15.7099 14.1159 14.1499 15.8334 11.4499C16.5084 10.3924 16.5084 8.61486 15.8334 7.55736" stroke="#292D32" stroke-width="1.5" stroke-linecap="round" stroke-linejoin="round"/>
</svg>
