<svg width="75" height="30" viewBox="0 0 75 30" fill="none" xmlns="http://www.w3.org/2000/svg">
<path d="M53.1636 8.0645C55.2254 8.0645 56.8187 8.62685 58.0372 9.75156C59.2555 10.8761 59.8177 12.3757 59.8177 14.2501V23.2472H57.1936V21.1855H57.0998C55.9753 22.8726 54.3819 23.7161 52.5075 23.7161C50.9142 23.7161 49.5084 23.2473 48.3838 22.3103C47.3529 21.373 46.6968 20.061 46.6968 18.6552C46.6968 17.1556 47.2593 15.9372 48.3838 14.9999C49.5084 14.0627 51.1017 13.6879 52.9761 13.6879C54.663 13.6879 55.9753 13.9691 57.0061 14.6251V13.9691C57.0061 13.0943 56.6795 12.2197 56.0264 11.6497L55.8814 11.5324C55.1316 10.8763 54.1944 10.5014 53.1636 10.5014C51.5703 10.5014 50.352 11.1575 49.5084 12.4696L47.0718 10.9697C48.5712 9.00156 50.5394 8.0645 53.1636 8.0645ZM39.949 1.69155C41.6306 1.69155 43.2288 2.27676 44.5065 3.36807L44.7288 3.56582C46.0408 4.69053 46.6968 6.37759 46.6968 8.15825C46.6968 9.93892 46.0408 11.5322 44.7288 12.7505C43.4166 13.969 41.8234 14.6249 39.949 14.6249L35.4504 14.5312V23.2473H32.6387V1.69141L39.949 1.69155ZM53.5383 15.9372C52.4138 15.9372 51.4766 16.2183 50.7269 16.7806C49.977 17.2492 49.6022 17.9052 49.6022 18.7486C49.6022 19.4985 49.9772 20.1544 50.5394 20.5294C51.1955 20.998 51.9452 21.2791 52.695 21.2791C53.7446 21.2791 54.7943 20.8709 55.6153 20.1307L55.7878 19.9671C56.725 19.1236 57.1936 18.0927 57.1936 16.968C56.3501 16.312 55.1316 15.937 53.5385 15.937L53.5383 15.9372ZM40.1365 4.31567H35.4504V11.8135H40.1365C41.1673 11.8135 42.1982 11.4386 42.8544 10.6889C44.3538 9.2831 44.3538 6.94009 42.9481 5.53413L42.8544 5.44038C42.1045 4.69067 41.1673 4.22207 40.1363 4.31582L40.1365 4.31567ZM75.0005 8.5331L65.7222 29.8078H62.9106L66.3781 22.4039L60.2863 8.62685H63.2854L67.6902 19.2172H67.7839L72.0951 8.62685H75.0005V8.5331Z" fill="#5F6368"/>
<path d="M24.2968 12.6554C24.2968 11.8119 24.2031 10.9685 24.1093 10.125H12.3945V14.9048H19.0486C18.7675 16.4042 17.924 17.81 16.612 18.6536V21.7463H20.6419C22.9849 19.5908 24.297 16.4042 24.297 12.6555L24.2968 12.6554Z" fill="#4285F4"/>
<path d="M12.3949 24.7469C15.7687 24.7469 18.5804 23.6222 20.6423 21.7478L16.6124 18.6551C15.4876 19.4048 14.0818 19.8734 12.3949 19.8734C9.2083 19.8734 6.39668 17.7179 5.45947 14.7188H1.33594V17.9052C3.49145 22.1227 7.70889 24.7469 12.3949 24.7469Z" fill="#34A853"/>
<path d="M5.45914 14.7202C4.89693 13.2206 4.89693 11.5337 5.45914 9.94038V6.75391H1.33561C-0.445202 10.2216 -0.445202 14.3453 1.33561 17.9066L5.45914 14.7202Z" fill="#FBBC04"/>
<path d="M12.3951 4.87857C14.1757 4.87857 15.8626 5.53467 17.1749 6.75298L20.7362 3.19165C18.4868 1.12974 15.4878 -0.0885732 12.4887 0.00503034C7.80264 0.00503034 3.4916 2.6293 1.42969 6.84673L5.55337 10.0332C6.39683 7.03408 9.20845 4.87857 12.3951 4.87857Z" fill="#EA4335"/>
</svg>
