<svg width="30" height="36" viewBox="0 0 30 36" fill="none" xmlns="http://www.w3.org/2000/svg">
<path d="M25.4492 2.75285C23.8163 0.89168 20.8646 0.09375 17.0884 0.09375H6.12907C5.75546 0.0937638 5.3941 0.227055 5.10998 0.469661C4.82585 0.712266 4.63758 1.04827 4.57903 1.41727L0.015748 30.3587C-0.0749551 30.9294 0.366959 31.4462 0.945396 31.4462H7.71133L9.41055 20.6684L9.35782 21.0059C9.47887 20.244 10.1304 19.6821 10.902 19.6821H14.1172C20.4333 19.6821 25.379 17.1166 26.8237 9.69527C26.8666 9.47578 26.9037 9.26215 26.9358 9.05344C26.7535 8.95687 26.7535 8.95687 26.9358 9.05344C27.366 6.31043 26.9329 4.44328 25.4492 2.75285Z" fill="#27346A"/>
<path d="M11.9995 8.06531C12.1844 7.97723 12.3867 7.93159 12.5916 7.93172H21.1836C22.201 7.93172 23.15 7.99793 24.0172 8.1375C24.2598 8.17619 24.5012 8.22238 24.741 8.27601C25.0809 8.35101 25.4169 8.4428 25.7477 8.55105C26.174 8.69343 26.571 8.85925 26.9359 9.05343C27.366 6.30937 26.9329 4.44328 25.4492 2.75285C23.8154 0.891679 20.8646 0.09375 17.0884 0.09375H6.12813C5.35645 0.09375 4.69997 0.655547 4.57903 1.41727L0.0157487 30.3576C-0.0749545 30.9293 0.36696 31.4454 0.94446 31.4454H7.71134L11.2367 9.08953C11.2714 8.86979 11.3589 8.66176 11.4918 8.48335C11.6246 8.30493 11.7989 8.16147 11.9995 8.06531Z" fill="#27346A"/>
<path d="M26.8243 9.69652C25.3797 17.1168 20.4341 19.6834 14.1178 19.6834H10.9017C10.1302 19.6834 9.47848 20.2453 9.3586 21.0071L7.24465 34.4081C7.16567 34.9075 7.55192 35.3601 8.05723 35.3601H13.7607C14.0875 35.36 14.4034 35.2434 14.6518 35.0311C14.9002 34.8189 15.0647 34.525 15.1158 34.2023L15.1713 33.9117L16.2463 27.0989L16.3156 26.7223C16.3666 26.3997 16.5311 26.1058 16.7795 25.8935C17.0278 25.6813 17.3438 25.5646 17.6705 25.5645H18.5241C24.0491 25.5645 28.3753 23.3199 29.6395 16.8282C30.1672 14.1153 29.8942 11.8503 28.4982 10.2594C28.0749 9.7775 27.549 9.37953 26.9365 9.05469C26.9033 9.26445 26.8673 9.47703 26.8243 9.69652Z" fill="#2790C3"/>
<path d="M25.4245 8.45262C25.1992 8.38684 24.9718 8.32861 24.7427 8.27801C24.5028 8.22526 24.2614 8.17938 24.0188 8.14043C23.1507 7.99993 22.2024 7.9336 21.1841 7.9336H12.5932C12.3881 7.93313 12.1857 7.97917 12.001 8.06825C11.8002 8.16411 11.6258 8.30749 11.4928 8.48595C11.3599 8.66442 11.2725 8.8726 11.2381 9.09246L9.41211 20.6704L9.35938 21.0079C9.47949 20.246 10.1311 19.6841 10.9027 19.6841H14.1188C20.435 19.6841 25.3805 17.1186 26.8252 9.69727C26.8682 9.47778 26.9043 9.26508 26.9375 9.05543C26.5716 8.86231 26.1757 8.69543 25.7492 8.55399C25.6416 8.51832 25.5334 8.48452 25.4246 8.45262" fill="#1F264F"/>
</svg>
