<svg width="14" height="14" viewBox="0 0 14 14" fill="none" xmlns="http://www.w3.org/2000/svg">
<path d="M9.90419 5.84484L11.3742 4.37484C11.8584 3.89068 11.8584 3.10901 11.3742 2.62484C10.89 2.14068 10.1084 2.14068 9.62419 2.62484L2.04086 10.2082C1.55669 10.6923 1.55669 11.474 2.04086 11.9582C2.52503 12.4423 3.30669 12.4423 3.79086 11.9582L8.45753 7.29151" stroke="#A1A1A1" stroke-width="1.5" stroke-linecap="round" stroke-linejoin="round"/>
<path d="M10.5059 5.24609L8.75586 3.49609" stroke="#A1A1A1" stroke-width="1.5" stroke-linecap="round" stroke-linejoin="round"/>
<path d="M5.57732 2.04297L5.83398 2.91797L4.95898 2.6613L4.08398 2.91797L4.34065 2.04297L4.08398 1.16797L4.95898 1.42464" stroke="#A1A1A1" stroke-linecap="round" stroke-linejoin="round"/>
<path d="M2.625 4.92464L3.5 4.66797L3.24333 5.54297L3.5 6.41797L2.625 6.1613L1.75 6.41797L2.00667 5.54297L1.75 4.66797L2.625 4.92464Z" stroke="#A1A1A1" stroke-linecap="round" stroke-linejoin="round"/>
<path d="M10.7567 8.45703L10.5 7.58203L11.375 7.8387L12.25 7.58203L11.9933 8.45703L12.25 9.33203L11.375 9.07536" stroke="#A1A1A1" stroke-linecap="round" stroke-linejoin="round"/>
</svg>
