<svg width="23" height="23" viewBox="0 0 23 23" fill="none" xmlns="http://www.w3.org/2000/svg">
<rect y="0.5" width="22.5" height="22.5" rx="4" fill="#CFE8DA"/>
<path d="M9.10742 7.8125C8.80254 7.81243 8.50604 7.91228 8.26331 8.09676C8.02058 8.28124 7.84499 8.54019 7.76342 8.83395L6.70686 12.6359C6.46471 13.5104 7.12194 14.375 8.02921 14.375H14.4716C15.3789 14.375 16.0361 13.5104 15.7933 12.6363L14.7367 8.83395C14.6552 8.54019 14.4796 8.28124 14.2369 8.09676C13.9941 7.91228 13.6976 7.81243 13.3927 7.8125H9.10742ZM8.39605 9.0095C8.43923 8.85401 8.53216 8.71694 8.66064 8.61928C8.78911 8.52162 8.94605 8.46875 9.10742 8.46875H13.3927C13.5541 8.46875 13.711 8.52162 13.8395 8.61928C13.968 8.71694 14.0609 8.85401 14.1041 9.0095L15.1607 12.8118C15.1902 12.9181 15.1948 13.0297 15.174 13.138C15.1533 13.2463 15.1078 13.3484 15.0411 13.4362C14.9744 13.524 14.8882 13.5952 14.7895 13.6442C14.6907 13.6932 14.5819 13.7187 14.4716 13.7188H8.02855C7.91827 13.7187 7.80949 13.6932 7.7107 13.6442C7.61192 13.5952 7.5258 13.524 7.45909 13.4362C7.39237 13.3484 7.34686 13.2463 7.32611 13.138C7.30537 13.0297 7.30994 12.9181 7.33949 12.8118L8.39572 9.00983L8.39605 9.0095ZM8.62475 15.0312C8.53773 15.0312 8.45427 15.0658 8.39273 15.1274C8.3312 15.1889 8.29663 15.2724 8.29663 15.3594C8.29663 15.4464 8.3312 15.5299 8.39273 15.5914C8.45427 15.6529 8.53773 15.6875 8.62475 15.6875H13.8754C13.9624 15.6875 14.0459 15.6529 14.1074 15.5914C14.169 15.5299 14.2035 15.4464 14.2035 15.3594C14.2035 15.2724 14.169 15.1889 14.1074 15.1274C14.0459 15.0658 13.9624 15.0312 13.8754 15.0312H8.62475Z" fill="black"/>
</svg>
