<svg width="32" height="43" viewBox="0 0 32 43" fill="none" xmlns="http://www.w3.org/2000/svg">
<path d="M0.529914 38.1538V4.23932C0.529914 2.19067 2.19067 0.529914 4.23931 0.529914H18.9709C19.9234 0.529914 20.8394 0.89631 21.5292 1.5532L30.1138 9.72902C30.8489 10.4291 31.265 11.4 31.265 12.4151V38.1538C31.265 40.2025 29.6042 41.8632 27.5556 41.8632H4.23932C2.19067 41.8632 0.529914 40.2025 0.529914 38.1538Z" fill="white" stroke="#E5E9EB" stroke-width="1.05983"/>
<path d="M7.6392 31.1818H8.70455L10.5568 35.7045H10.625L12.4773 31.1818H13.5426V37H12.7074V32.7898H12.6534L10.9375 36.9915H10.2443L8.52841 32.7869H8.47443V37H7.6392V31.1818ZM14.5907 38.6364V32.6364H15.4203V33.3438H15.4913C15.5405 33.2528 15.6115 33.1477 15.7043 33.0284C15.7971 32.9091 15.9259 32.8049 16.0907 32.7159C16.2555 32.625 16.4733 32.5795 16.7441 32.5795C17.0964 32.5795 17.4108 32.6686 17.6873 32.8466C17.9638 33.0246 18.1807 33.2812 18.3379 33.6165C18.497 33.9517 18.5765 34.3551 18.5765 34.8267C18.5765 35.2983 18.4979 35.7027 18.3407 36.0398C18.1835 36.375 17.9676 36.6335 17.693 36.8153C17.4184 36.9953 17.1049 37.0852 16.7526 37.0852C16.4875 37.0852 16.2706 37.0407 16.1021 36.9517C15.9354 36.8627 15.8047 36.7585 15.71 36.6392C15.6153 36.5199 15.5424 36.4138 15.4913 36.321H15.4401V38.6364H14.5907ZM15.4231 34.8182C15.4231 35.125 15.4676 35.3939 15.5566 35.625C15.6456 35.8561 15.7744 36.0369 15.943 36.1676C16.1115 36.2964 16.318 36.3608 16.5623 36.3608C16.8161 36.3608 17.0282 36.2936 17.1987 36.1591C17.3691 36.0227 17.4979 35.8381 17.585 35.6051C17.674 35.3722 17.7186 35.1098 17.7186 34.8182C17.7186 34.5303 17.675 34.2718 17.5879 34.0426C17.5026 33.8134 17.3739 33.6326 17.2015 33.5C17.0311 33.3674 16.818 33.3011 16.5623 33.3011C16.3161 33.3011 16.1078 33.3646 15.9373 33.4915C15.7687 33.6184 15.6409 33.7955 15.5538 34.0227C15.4667 34.25 15.4231 34.5152 15.4231 34.8182ZM19.2347 35.8636V35.1534L21.7489 31.1818H22.3086V32.2273H21.9534L20.1551 35.0739V35.1193H23.6012V35.8636H19.2347ZM21.9932 37V35.6477L21.9989 35.3239V31.1818H22.8313V37H21.9932Z" fill="#CE7C1C"/>
<path d="M8.01562 12.6667C8.01562 12.1583 8.21756 11.6708 8.577 11.3114C8.93645 10.9519 9.42396 10.75 9.93229 10.75H15.6823C16.1906 10.75 16.6781 10.9519 17.0376 11.3114C17.397 11.6708 17.599 12.1583 17.599 12.6667V20.3333C17.599 20.8417 17.397 21.3292 17.0376 21.6886C16.6781 22.0481 16.1906 22.25 15.6823 22.25H9.93229C9.42396 22.25 8.93645 22.0481 8.577 21.6886C8.21756 21.3292 8.01562 20.8417 8.01562 20.3333V12.6667ZM20.0456 13.7266C19.8864 13.8061 19.7525 13.9284 19.6589 14.0797C19.5653 14.231 19.5157 14.4054 19.5156 14.5833V18.4167C19.5157 18.5946 19.5653 18.769 19.6589 18.9203C19.7525 19.0716 19.8864 19.1939 20.0456 19.2734L21.9623 20.2317C22.1083 20.3047 22.2706 20.3392 22.4337 20.3319C22.5969 20.3245 22.7554 20.2756 22.8943 20.1898C23.0332 20.1039 23.1479 19.984 23.2275 19.8414C23.3071 19.6989 23.3489 19.5383 23.349 19.375V13.625C23.3489 13.4617 23.3071 13.3011 23.2275 13.1586C23.1479 13.016 23.0332 12.8961 22.8943 12.8102C22.7554 12.7244 22.5969 12.6755 22.4337 12.6681C22.2706 12.6608 22.1083 12.6953 21.9623 12.7682L20.0456 13.7266Z" fill="#F79521"/>
</svg>
