<?xml version="1.0" encoding="UTF-8" standalone="no"?>
<svg
   width="1440"
   height="1024"
   viewBox="0 0 1440 1024"
   fill="none"
   version="1.1"
   id="svg170"
   sodipodi:docname="not-found.svg"
   inkscape:version="1.2.1 (9c6d41e410, 2022-07-14)"
   xmlns:inkscape="http://www.inkscape.org/namespaces/inkscape"
   xmlns:sodipodi="http://sodipodi.sourceforge.net/DTD/sodipodi-0.dtd"
   xmlns="http://www.w3.org/2000/svg"
   xmlns:svg="http://www.w3.org/2000/svg">
  <sodipodi:namedview
     id="namedview172"
     pagecolor="#ffffff"
     bordercolor="#000000"
     borderopacity="0.25"
     inkscape:showpageshadow="2"
     inkscape:pageopacity="0.0"
     inkscape:pagecheckerboard="0"
     inkscape:deskcolor="#d1d1d1"
     showgrid="false"
     inkscape:zoom="0.80957031"
     inkscape:cx="720.1351"
     inkscape:cy="512.61761"
     inkscape:window-width="1920"
     inkscape:window-height="1009"
     inkscape:window-x="-8"
     inkscape:window-y="-8"
     inkscape:window-maximized="1"
     inkscape:current-layer="svg170" />
  <g
     clip-path="url(#clip0_12141_308956)"
     id="g160">
    <path
       d="M1440 0H0V1024H1440V0Z"
       fill="#001C33"
       id="path2" />
    <path
       d="M521.036 376C524.988 376 524.988 382.144 521.036 382.144C517.083 382.144 517.062 376 521.036 376Z"
       fill="white"
       id="path4" />
    <path
       d="M577.036 253C580.988 253 580.988 259.144 577.036 259.144C573.083 259.144 573.083 253 577.036 253Z"
       fill="white"
       id="path6" />
    <path
       d="M910.036 205C913.988 205 913.988 211.144 910.036 211.144C906.083 211.144 906.062 205 910.036 205Z"
       fill="white"
       id="path8" />
    <path
       d="M1120.04 277C1123.99 277 1123.99 283.144 1120.04 283.144C1116.08 283.144 1116.08 277 1120.04 277Z"
       fill="white"
       id="path10" />
    <path
       d="M1130.04 402C1133.99 402 1133.99 408.144 1130.04 408.144C1126.08 408.144 1126.08 402 1130.04 402Z"
       fill="white"
       id="path12" />
    <path
       d="M393.036 534C396.988 534 396.988 540.144 393.036 540.144C389.083 540.144 389.083 534 393.036 534Z"
       fill="white"
       id="path14" />
    <path
       d="M368.036 368C371.988 368 371.988 374.144 368.036 374.144C364.083 374.144 364.083 368 368.036 368Z"
       fill="white"
       id="path16" />
    <path
       d="M1439 633.117V1036H-1V611.654C176.494 552.733 420.488 524 689.797 524C989.979 524 1258.74 559.717 1439 633.117Z"
       fill="#00467F"
       id="path18" />
    <path
       d="M412.036 230C415.988 230 415.988 236.144 412.036 236.144C408.083 236.144 408.083 230 412.036 230Z"
       fill="white"
       id="path22" />
    <path
       opacity="0.2"
       d="M719.023 675.055C802.124 675.055 869.49 655.544 869.49 631.475C869.49 607.406 802.124 587.895 719.023 587.895C635.921 587.895 568.555 607.406 568.555 631.475C568.555 655.544 635.921 675.055 719.023 675.055Z"
       fill="#FFD740"
       id="path24" />
    <path
       d="M486.9 731.705C480.9 731.705 476.2 730.105 472.8 726.905C469.4 723.505 467.7 718.705 467.7 712.505V689.105H393.6C387.4 689.105 382.4 687.805 378.6 685.205C375 682.605 373.2 678.505 373.2 672.905C373.2 669.705 374 666.205 375.6 662.405C377.4 658.605 380.5 653.605 384.9 647.405L467.1 528.305C469.9 524.105 473 520.905 476.4 518.705C479.8 516.505 483.7 515.405 488.1 515.405C493.3 515.405 497.6 517.005 501 520.205C504.4 523.205 506.1 528.005 506.1 534.605V657.305H520.8C526.6 657.305 530.9 658.705 533.7 661.505C536.7 664.105 538.2 668.005 538.2 673.205C538.2 678.405 536.7 682.405 533.7 685.205C530.9 687.805 526.6 689.105 520.8 689.105H506.1V712.505C506.1 718.705 504.4 723.505 501 726.905C497.6 730.105 492.9 731.705 486.9 731.705ZM467.7 657.305V563.705H476.4L405.6 667.505V657.305H467.7Z"
       fill="white"
       id="path26" />
    <path
       d="M1016.83 731.705C1010.83 731.705 1006.13 730.105 1002.73 726.905C999.33 723.505 997.63 718.705 997.63 712.505V689.105H923.53C917.33 689.105 912.33 687.805 908.53 685.205C904.93 682.605 903.13 678.505 903.13 672.905C903.13 669.705 903.93 666.205 905.53 662.405C907.33 658.605 910.43 653.605 914.83 647.405L997.03 528.305C999.83 524.105 1002.93 520.905 1006.33 518.705C1009.73 516.505 1013.63 515.405 1018.03 515.405C1023.23 515.405 1027.53 517.005 1030.93 520.205C1034.33 523.205 1036.03 528.005 1036.03 534.605V657.305H1050.73C1056.53 657.305 1060.83 658.705 1063.63 661.505C1066.63 664.105 1068.13 668.005 1068.13 673.205C1068.13 678.405 1066.63 682.405 1063.63 685.205C1060.83 687.805 1056.53 689.105 1050.73 689.105H1036.03V712.505C1036.03 718.705 1034.33 723.505 1030.93 726.905C1027.53 730.105 1022.83 731.705 1016.83 731.705ZM997.63 657.305V563.705H1006.33L935.53 667.505V657.305H997.63Z"
       fill="white"
       id="path28" />
    <path
       opacity="0.3"
       d="M866.84 623.873L771.595 302.789H665.718L570.473 623.873C570.62 623.62 568.199 627.262 568.199 631.473C568.199 655.537 635.57 675.053 718.667 675.053C801.764 675.053 868.188 655.516 869.135 631.473C869.282 627.22 866.693 623.62 866.84 623.873Z"
       fill="#FFD740"
       id="path30" />
    <path
       opacity="0.2"
       d="M719.038 632.611C719.038 632.695 719.059 632.8 719.08 632.884C719.038 632.884 719.017 632.863 718.996 632.842L719.038 632.611Z"
       fill="#FFD740"
       id="path32" />
    <path
       opacity="0.2"
       d="M719.064 632.842C719.022 632.863 719.001 632.884 718.98 632.884C719.001 632.8 719.022 632.695 719.022 632.611L719.064 632.842Z"
       fill="#FFD740"
       id="path34" />
    <path
       d="M719.016 294.815C772.374 294.815 815.629 259.487 815.629 215.908C815.629 172.328 772.374 137 719.016 137C665.658 137 622.402 172.328 622.402 215.908C622.402 259.487 665.658 294.815 719.016 294.815Z"
       fill="#B3CDCE"
       id="path36" />
    <path
       d="M815.627 215.905C815.627 259.485 772.383 294.812 719.013 294.812C714.739 294.812 710.529 294.581 706.402 294.16C753.814 289.107 790.384 255.99 790.384 215.926C790.384 175.84 753.793 142.745 706.402 137.692C710.529 137.25 714.739 137.039 719.013 137.039C772.383 136.997 815.627 172.324 815.627 215.905Z"
       fill="#CAE0E0"
       id="path38" />
    <path
       d="M677.375 155.779C677.375 155.779 634.973 175.633 634.426 220.729H662.342C662.342 220.729 651.605 189.591 677.375 155.779Z"
       fill="white"
       id="path40" />
    <path
       d="M946.657 263.148C950.531 265.443 950.531 271.022 946.657 273.317C919.414 289.423 827.811 338.287 719.008 338.287C610.204 338.287 518.601 289.423 491.358 273.317C487.485 271.022 487.485 265.443 491.358 263.148C518.601 247.042 610.204 198.178 719.008 198.178C827.811 198.178 919.414 247.042 946.657 263.148Z"
       fill="#D64763"
       id="path42" />
    <path
       d="M856.55 285.003C858.887 286.161 858.887 288.982 856.55 290.14C840.086 298.287 784.758 323.004 719.009 323.004C653.28 323.004 597.931 298.287 581.468 290.14C579.131 288.982 579.131 286.161 581.468 285.003C597.931 276.855 653.259 252.139 719.009 252.139C784.737 252.139 840.086 276.855 856.55 285.003Z"
       fill="#991C3A"
       id="path44" />
    <path
       d="M946.657 273.315C945.941 273.736 945.183 274.179 944.362 274.663C914.551 257.378 824.927 211.061 719.008 211.061C613.089 211.061 523.465 257.378 493.653 274.663C492.832 274.179 492.074 273.736 491.358 273.315C487.485 271.021 487.485 265.42 491.358 263.147C518.601 247.041 610.204 198.197 719.008 198.197C827.811 198.197 919.414 247.041 946.657 263.147C950.531 265.42 950.531 271.021 946.657 273.315Z"
       fill="#991C3A"
       id="path46" />
    <path
       d="M719.003 317.741C750.63 317.741 776.268 310.718 776.268 302.056C776.268 293.393 750.63 286.371 719.003 286.371C687.377 286.371 661.738 293.393 661.738 302.056C661.738 310.718 687.377 317.741 719.003 317.741Z"
       fill="#C9930D"
       id="path48" />
    <path
       d="M771.954 302.791C771.954 310.391 748.248 316.539 719.026 316.539C689.783 316.539 666.098 310.37 666.098 302.791C666.098 295.191 689.804 289.043 719.026 289.043C748.248 289.022 771.954 295.191 771.954 302.791Z"
       fill="#FFD740"
       id="path50" />
    <path
       d="M573.893 263.698C575.072 266.456 571.324 270.73 565.513 273.235C559.703 275.74 554.018 275.53 552.818 272.772C551.639 270.014 555.387 265.74 561.198 263.235C567.029 260.729 572.693 260.94 573.893 263.698Z"
       fill="#FFD740"
       id="path52" />
    <path
       d="M636.735 244.119C637.472 247.024 633.114 250.667 626.967 252.225C620.819 253.804 615.24 252.709 614.503 249.803C613.766 246.898 618.124 243.256 624.272 241.698C630.398 240.119 635.977 241.214 636.735 244.119Z"
       fill="#FFD740"
       id="path54" />
    <path
       d="M699.29 232.327C699.627 235.316 694.806 238.306 688.511 239.022C682.216 239.737 676.847 237.906 676.489 234.916C676.152 231.927 680.974 228.937 687.269 228.221C693.564 227.506 698.953 229.337 699.29 232.327Z"
       fill="#FFD740"
       id="path56" />
    <path
       d="M864.154 263.698C862.975 266.456 866.723 270.73 872.533 273.235C878.344 275.74 884.029 275.53 885.229 272.772C886.429 270.014 882.66 265.74 876.849 263.235C871.018 260.729 865.333 260.94 864.154 263.698Z"
       fill="#FFD740"
       id="path58" />
    <path
       d="M801.308 244.119C800.571 247.024 804.929 250.667 811.076 252.225C817.224 253.804 822.803 252.709 823.54 249.803C824.277 246.898 819.919 243.256 813.771 241.698C807.624 240.119 802.045 241.214 801.308 244.119Z"
       fill="#FFD740"
       id="path60" />
    <path
       d="M738.755 232.327C738.418 235.316 743.239 238.306 749.534 239.022C755.829 239.737 761.198 237.906 761.556 234.916C761.892 231.927 757.071 228.937 750.776 228.221C744.46 227.506 739.092 229.337 738.755 232.327Z"
       fill="#FFD740"
       id="path62" />
    <path
       d="M769.641 630.485C769.641 630.485 746.504 638.738 717.955 638.738C689.407 638.738 666.27 630.485 666.27 630.485C666.27 630.485 689.407 622.232 717.955 622.232C746.483 622.232 769.641 630.485 769.641 630.485Z"
       fill="#00467F"
       id="path64" />
    <path
       d="M588.16 635.645C590.244 636.845 591.739 638.866 592.708 641.076C593.676 643.266 594.16 645.645 594.645 648.003C597.066 642.487 601.697 637.981 607.277 635.687C605.171 639.371 603.761 643.455 603.171 647.666C605.045 645.729 607.698 644.676 610.371 644.276C613.045 643.876 615.761 644.066 618.456 644.276C616.729 645.371 615.003 646.487 613.277 647.624C611.971 648.466 610.666 649.35 609.74 650.592C609.066 651.519 608.645 652.592 608.245 653.645C607.087 656.635 605.929 659.624 604.771 662.593C603.634 665.519 602.118 668.572 598.582 668.782C596.371 668.93 593.529 668.088 592.223 666.151C590.918 664.172 591.234 661.561 591.402 659.329C591.676 655.519 591.613 651.708 591.129 647.919C590.876 645.834 590.497 643.75 589.992 641.708C589.739 640.634 589.108 636.192 588.16 635.645Z"
       fill="#00467F"
       id="path66" />
    <path
       d="M828.024 657.691C824.613 655.185 820.571 653.649 816.508 652.47C819.203 651.943 821.897 651.438 824.634 651.459C827.371 651.48 830.171 652.112 832.403 653.67C831.477 649.333 830.55 644.996 829.624 640.68C832.424 644.048 834.593 647.964 835.919 652.133C836.529 648.533 838.003 645.08 840.193 642.153C840.319 646.196 840.319 650.238 840.172 654.259C841.288 650.912 844.256 648.238 847.709 647.522C845.351 649.459 844.193 652.533 843.793 655.564C843.393 658.596 843.645 661.67 843.603 664.723C843.603 665.312 843.561 665.923 843.351 666.47C843.098 667.102 842.593 667.628 842.024 668.007C840.698 668.933 838.993 669.249 837.393 668.975C835.203 668.575 835.014 667.775 834.361 665.902C833.224 662.596 830.824 659.775 828.024 657.691Z"
       fill="#00467F"
       id="path68" />
    <path
       opacity="0.8"
       d="M698.11 422.23C689.537 415.19 685.515 406.643 686.043 396.587C686.691 386.52 691.754 375.716 701.23 364.175C707.62 356.394 714.004 350.705 720.38 347.108C726.811 343.445 733.115 341.886 739.292 342.431C745.469 342.977 751.426 345.605 757.163 350.316C765.802 357.41 769.906 365.859 769.474 375.663C769.042 385.466 764.061 396.171 754.53 407.778C748.194 415.493 741.784 421.215 735.299 424.944C728.814 428.673 722.429 430.331 716.144 429.917C709.858 429.504 703.847 426.941 698.11 422.23ZM709.969 407.788C713.135 410.387 716.884 410.595 721.216 408.412C725.669 406.216 731.036 401.293 737.318 393.644C743.546 386.06 747.195 380.003 748.265 375.472C749.456 370.929 748.469 367.358 745.304 364.759C742.138 362.159 738.41 361.858 734.12 363.856C729.95 365.842 724.751 370.627 718.523 378.21C712.242 385.86 708.424 392.055 707.071 396.796C705.838 401.525 706.804 405.189 709.969 407.788Z"
       fill="white"
       id="path70" />
    <g
       clip-path="url(#clip1_12141_308956)"
       id="g134">
      <path
         d="M667.64 536.591L667.108 536.427C667.459 535.302 667.629 534.374 667.635 533.602L668.196 533.612C668.189 534.435 668.008 535.414 667.64 536.591ZM666.786 530.278C665.474 528.03 663.324 526.743 660.575 526.561L660.614 526.004C663.56 526.199 665.86 527.583 667.267 530.001L666.786 530.278Z"
         fill="#FFCB62"
         id="path72" />
      <path
         d="M665.084 542.47L659.881 545.497L659.577 544.98C659.063 544.098 658.744 543.32 658.621 542.651C658.498 541.981 658.508 541.304 658.635 540.621C658.768 539.937 659.189 538.615 659.91 536.659C660.298 535.625 660.344 534.86 660.053 534.359C659.762 533.857 659.385 533.554 658.926 533.45C658.468 533.345 657.937 533.465 657.335 533.817C656.684 534.195 656.278 534.722 656.1 535.394C655.927 536.071 656.091 536.976 656.591 538.111L650.898 540.544C649.941 538.489 649.737 536.509 650.283 534.599C650.824 532.689 652.377 530.99 654.931 529.504C656.919 528.348 658.769 527.827 660.477 527.946C662.792 528.098 664.495 529.112 665.584 530.98C666.037 531.756 666.259 532.628 666.25 533.596C666.241 534.563 665.877 535.952 665.158 537.763C664.664 539.025 664.421 539.949 664.436 540.534C664.455 541.114 664.671 541.757 665.084 542.47ZM660.512 546.981L666.084 543.738L668.945 548.642L663.373 551.885L660.512 546.981Z"
         fill="#FFCB62"
         id="path74" />
      <path
         d="M652.835 556.124L650.437 560.16L650.032 559.921C649.342 559.516 648.831 559.109 648.493 558.696C648.155 558.288 647.901 557.822 647.731 557.303C647.562 556.783 647.348 555.721 647.092 554.12C646.961 553.267 646.706 552.729 646.313 552.5C645.921 552.271 645.551 552.208 645.197 552.305C644.843 552.408 644.53 552.691 644.253 553.16C643.963 553.67 643.881 554.187 644.017 554.709C644.154 555.238 644.613 555.789 645.388 556.371L642.431 560.195C640.995 559.154 640.1 557.881 639.747 556.374C639.388 554.868 639.8 553.122 640.977 551.137C641.89 549.592 642.954 548.535 644.161 547.966C645.796 547.193 647.345 547.238 648.797 548.098C649.399 548.456 649.881 548.967 650.244 549.629C650.608 550.291 650.891 551.38 651.086 552.88C651.232 553.933 651.416 554.652 651.651 555.042C651.887 555.443 652.281 555.8 652.835 556.124ZM651.433 560.937L653.997 556.611L657.818 558.87L655.253 563.196L651.433 560.937Z"
         fill="#FFCB62"
         id="path76" />
      <path
         d="M719.213 623.717C718.315 623.808 717.397 623.408 716.868 622.601C714.208 618.532 710.903 613.774 705.323 608.825C704.672 608.248 704.365 607.368 704.525 606.514C705.741 599.848 707.786 590.695 707.805 590.604C708.106 589.26 709.442 588.41 710.787 588.711C712.133 589.011 712.983 590.345 712.682 591.689C712.663 591.774 710.904 599.658 709.695 606.049C714.848 610.823 718.202 615.509 721.06 619.877C721.814 621.03 721.488 622.578 720.332 623.325C719.98 623.551 719.595 623.679 719.213 623.717Z"
         fill="#FFCB62"
         id="path78" />
      <path
         d="M723.553 625.294L704.278 627.234L713.912 620.419L722.506 619.89L723.553 625.294Z"
         fill="#263238"
         id="path80" />
      <path
         d="M719.363 602.174C727.861 598.554 732.315 589.917 729.312 582.884C726.308 575.851 716.984 573.085 708.485 576.706C699.987 580.326 695.533 588.963 698.536 595.996C701.54 603.029 710.864 605.795 719.363 602.174Z"
         fill="#263238"
         id="path82" />
      <path
         d="M669.157 584.799C668.182 584.897 667.198 584.415 666.703 583.498C666.049 582.284 666.507 580.773 667.723 580.12C669.109 579.377 669.161 577.886 669.159 577.869C669.153 576.752 669.893 575.761 670.97 575.451C671.552 575.287 672.105 575.058 672.751 574.803C676.021 573.479 680.065 571.843 693.571 574.194C705.797 565.654 704.581 552.074 704.522 551.487C704.385 550.121 705.38 548.892 706.749 548.754C706.749 548.754 706.755 548.754 706.76 548.753C708.123 548.616 709.347 549.599 709.49 550.965C709.568 551.684 711.198 568.721 695.491 578.918C694.955 579.269 694.307 579.395 693.68 579.28C680.8 576.927 677.375 578.311 674.627 579.425C674.385 579.522 674.138 579.626 673.885 579.724C673.428 581.362 672.337 583.311 670.091 584.515C669.794 584.679 669.478 584.766 669.157 584.799Z"
         fill="#263238"
         id="path84" />
      <path
         d="M696.421 564.121C689.828 545.885 672.405 498.886 712.361 491.886C748.208 485.607 762.95 532.603 767.028 548.991C769.405 558.542 770.766 567.279 771.535 574.143C772.532 582.989 767.067 591.257 758.546 593.897C739.273 599.866 720.709 602.309 707.673 598.631C704.148 597.633 701.751 594.393 701.713 590.737C701.659 585.305 700.739 576.059 696.421 564.121Z"
         fill="#FFCB62"
         id="path86" />
      <path
         opacity="0.1"
         d="M767.027 548.986C763.178 533.547 749.864 490.896 718.319 491.321C714.647 491.372 711.237 493.52 709.89 496.93C708.765 499.771 709.139 503.036 711.553 506.062C719.52 516.04 739.67 551.27 739.211 571.618C739.001 580.877 733.99 588.758 740.022 598.534C746.006 597.429 752.239 595.857 758.551 593.897C767.073 591.263 772.537 582.995 771.54 574.143C770.765 567.28 769.409 558.537 767.027 548.986Z"
         fill="black"
         id="path88" />
      <path
         d="M764.219 575.125C764.081 575.139 763.959 575.04 763.945 574.907C762.985 566.37 761.469 557.916 759.442 549.788C749.302 509.092 731.088 489.823 706.769 494.093C706.637 494.123 706.504 494.024 706.48 493.893C706.455 493.755 706.549 493.629 706.68 493.604C731.291 489.283 749.708 508.677 759.923 549.673C761.952 557.823 763.471 566.299 764.439 574.857C764.457 574.99 764.358 575.111 764.219 575.125Z"
         fill="#263238"
         id="path90" />
      <path
         d="M766.218 598.797C774.716 595.177 779.171 586.54 776.167 579.507C773.163 572.474 763.839 569.708 755.341 573.329C746.842 576.949 742.388 585.586 745.392 592.619C748.395 599.652 757.72 602.418 766.218 598.797Z"
         fill="#263238"
         id="path92" />
      <path
         d="M769.748 618.633C768.851 618.724 767.932 618.324 767.403 617.517C764.743 613.448 761.438 608.69 755.858 603.741C755.207 603.164 754.9 602.284 755.061 601.43C756.276 594.764 758.321 585.611 758.34 585.52C758.641 584.176 759.972 583.327 761.323 583.627C762.668 583.927 763.519 585.261 763.217 586.605C763.198 586.69 761.439 594.574 760.23 600.965C765.384 605.739 768.737 610.425 771.595 614.793C772.349 615.946 772.023 617.494 770.867 618.241C770.515 618.467 770.131 618.595 769.748 618.633Z"
         fill="#FFCB62"
         id="path94" />
      <path
         d="M756.917 543.515C756.025 543.604 755.113 543.21 754.579 542.409C753.82 541.261 754.134 539.715 755.283 538.957C755.734 538.654 765.961 531.663 767.575 517.172C760.058 514.882 746.409 509.388 743.228 506.255C742.918 505.951 742.695 505.571 742.58 505.157C742.476 504.793 741.715 501.903 742.522 499.016L740.96 496.625C740.206 495.471 740.532 493.924 741.687 493.171C742.843 492.418 744.392 492.742 745.146 493.896L747.395 497.335C747.878 498.069 747.933 499.003 747.548 499.796C747.051 500.812 747.115 502.22 747.256 503.128C750.738 505.689 764.323 511.212 770.869 512.917C772.018 513.215 772.797 514.282 772.731 515.462C771.747 533.874 758.608 542.741 758.046 543.11C757.689 543.342 757.305 543.476 756.917 543.515Z"
         fill="#263238"
         id="path96" />
      <path
         d="M745.105 505.72C744.873 505.743 744.628 505.701 744.403 505.584C743.789 505.265 743.551 504.513 743.871 503.905C743.94 503.764 745.685 500.464 748.725 499.315C749.367 499.071 750.093 499.395 750.338 500.041C750.582 500.687 750.257 501.407 749.61 501.651C747.486 502.457 746.1 505.033 746.085 505.057C745.889 505.44 745.51 505.679 745.105 505.72Z"
         fill="#263238"
         id="path98" />
      <path
         d="M774.089 620.208L754.813 622.148L764.447 615.333L773.041 614.804L774.089 620.208Z"
         fill="#263238"
         id="path100" />
      <path
         d="M726.264 550.152C733.49 548.774 738.342 542.392 737.101 535.898C735.861 529.404 728.997 525.257 721.771 526.635C714.545 528.013 709.693 534.395 710.934 540.89C712.174 547.384 719.038 551.531 726.264 550.152Z"
         fill="white"
         id="path102" />
      <path
         d="M723.356 546.064C725.234 545.319 725.656 541.948 724.3 538.535C722.944 535.121 720.322 532.958 718.443 533.703C716.565 534.447 716.143 537.818 717.499 541.231C718.855 544.645 721.478 546.808 723.356 546.064Z"
         fill="#263238"
         id="path104" />
      <path
         d="M709.164 542.146C717.422 540.231 733.519 533.844 736.059 531.666C733.271 525.598 722.718 521.228 714.063 525.156C706.26 528.702 709.164 542.146 709.164 542.146Z"
         fill="#263238"
         id="path106" />
      <path
         d="M711.194 546.021C721.379 543.007 734.548 538.34 738.196 535.827C738.639 542.617 737.362 549.669 726.99 553.049C718.521 555.818 711.194 546.021 711.194 546.021Z"
         fill="#263238"
         id="path108" />
      <path
         d="M703.295 553.379C706.802 550.519 706.708 544.609 703.084 540.178C699.461 535.747 693.681 534.474 690.174 537.334C686.667 540.193 686.762 546.104 690.385 550.534C694.008 554.965 699.789 556.238 703.295 553.379Z"
         fill="white"
         id="path110" />
      <path
         d="M696.931 545.512C697.861 548.414 697.567 550.941 696.273 551.155C694.98 551.375 693.177 549.198 692.253 546.296C691.323 543.394 691.617 540.866 692.911 540.652C694.199 540.439 696.002 542.616 696.931 545.512Z"
         fill="#263238"
         id="path112" />
      <path
         d="M686.517 545.414C692.196 545.513 703.269 543.65 705.018 542.451C703.11 537.223 695.861 531.822 689.905 533.204C684.541 534.459 686.517 545.414 686.517 545.414Z"
         fill="#263238"
         id="path114" />
      <path
         d="M687.913 548.8C694.92 548.413 703.978 547.323 706.489 546.081C706.786 551.422 705.899 556.63 698.766 557.264C692.942 557.783 687.913 548.8 687.913 548.8Z"
         fill="#263238"
         id="path116" />
      <path
         d="M725.627 520.616C715.161 521.67 707.688 517.208 707.318 516.982C706.143 516.262 705.771 514.729 706.492 513.55C707.207 512.377 708.743 512.005 709.917 512.719C710.048 512.796 718.915 517.983 730.17 514.655C731.497 514.264 732.882 515.019 733.272 516.337C733.663 517.656 732.907 519.045 731.586 519.435C729.522 520.057 727.522 520.426 725.627 520.616Z"
         fill="#263238"
         id="path118" />
      <path
         d="M680.756 520.812C680.479 520.84 680.187 520.825 679.9 520.753C678.562 520.418 677.748 519.064 678.084 517.728C679.034 513.933 680.978 511.335 683.867 510.01C689.103 507.6 695.308 510.636 695.567 510.766C696.799 511.38 697.302 512.877 696.687 514.112C696.072 515.342 694.578 515.845 693.341 515.232C692.14 514.643 688.469 513.369 685.941 514.546C684.487 515.223 683.5 516.658 682.929 518.934C682.665 519.983 681.776 520.71 680.756 520.812Z"
         fill="#263238"
         id="path120" />
      <path
         d="M704.559 560.71C704.492 560.717 704.419 560.713 704.351 560.703C703.946 560.626 703.678 560.251 703.75 559.847C703.76 559.779 704.069 558.122 706.002 556.865C708.708 555.112 713.082 554.979 719.008 556.467C719.409 556.567 719.652 556.978 719.552 557.374C719.453 557.775 719.046 558.017 718.644 557.918C711.851 556.204 708.495 557.061 706.879 558.079C705.469 558.97 705.238 560.06 705.225 560.106C705.158 560.437 704.88 560.678 704.559 560.71Z"
         fill="#263238"
         id="path122" />
      <path
         d="M680.816 560.344C666.486 563.094 656.732 570.117 656.732 570.117C660.934 568.878 678.146 586.252 683.547 600.44C690.535 597.02 698.817 594.337 707.704 592.001C700.723 577.52 689.008 561.498 680.816 560.344Z"
         fill="#FFCB62"
         id="path124" />
      <path
         opacity="0.6"
         d="M680.816 560.344C666.486 563.094 656.732 570.117 656.732 570.117C660.934 568.878 678.146 586.252 683.547 600.44C690.535 597.02 698.817 594.337 707.704 592.001C700.723 577.52 689.008 561.498 680.816 560.344Z"
         fill="white"
         id="path126" />
      <path
         d="M680.817 560.344C671.246 560.229 656.679 569.686 656.679 569.686C654.132 571.692 655.197 574.871 656.82 576.093C658.038 573.908 673.383 566.999 679.284 565.685C676.038 563.24 678.597 560.976 680.817 560.344Z"
         fill="#FFCB62"
         id="path128" />
      <path
         opacity="0.2"
         d="M680.817 560.344C671.246 560.229 656.679 569.686 656.679 569.686C654.132 571.692 655.197 574.871 656.82 576.093C658.038 573.908 673.383 566.999 679.284 565.685C676.038 563.24 678.597 560.976 680.817 560.344Z"
         fill="white"
         id="path130" />
      <path
         d="M669.165 584.798C668.35 584.88 667.518 584.561 666.968 583.879C664.89 581.305 665.591 576.982 665.753 576.144C666.014 574.793 667.324 573.907 668.677 574.168C670.029 574.428 670.916 575.731 670.66 577.081C670.395 578.51 670.491 580.294 670.861 580.749C671.725 581.819 671.558 583.389 670.481 584.257C670.088 584.576 669.63 584.751 669.165 584.798Z"
         fill="#263238"
         id="path132" />
    </g>
    <path
       d="M1218.04 486C1221.99 486 1221.99 492.144 1218.04 492.144C1214.08 492.144 1214.06 486 1218.04 486Z"
       fill="white"
       id="path136" />
    <path
       d="M579.964 73C576.012 73 576.012 79.144 579.964 79.144C583.917 79.144 583.938 73 579.964 73Z"
       fill="white"
       id="path138" />
    <path
       d="M1220.04 161C1223.99 161 1223.99 167.144 1220.04 167.144C1216.08 167.144 1216.08 161 1220.04 161Z"
       fill="white"
       id="path140" />
    <path
       d="M728.132 126.324C724.18 126.324 724.18 132.468 728.132 132.468C732.085 132.468 732.085 126.324 728.132 126.324Z"
       fill="white"
       id="path142" />
    <path
       d="M394.988 78.5234C391.035 78.5234 391.035 84.6674 394.988 84.6674C398.941 84.6674 398.961 78.5234 394.988 78.5234Z"
       fill="white"
       id="path144" />
    <path
       d="M185.867 150.244C181.914 150.244 181.914 156.388 185.867 156.388C189.819 156.388 189.819 150.244 185.867 150.244Z"
       fill="white"
       id="path146" />
    <path
       d="M175.172 275.027C171.219 275.027 171.219 281.171 175.172 281.171C179.124 281.171 179.124 275.027 175.172 275.027Z"
       fill="white"
       id="path148" />
    <path
       d="M912.453 407.576C908.5 407.576 908.5 413.72 912.453 413.72C916.405 413.72 916.405 407.576 912.453 407.576Z"
       fill="white"
       id="path150" />
    <path
       d="M985.964 304C982.012 304 982.012 310.144 985.964 310.144C989.917 310.144 989.917 304 985.964 304Z"
       fill="white"
       id="path152" />
    <path
       d="M893.347 103.1C889.395 103.1 889.395 109.244 893.347 109.244C897.3 109.244 897.3 103.1 893.347 103.1Z"
       fill="white"
       id="path154" />
    <path
       d="M87.7887 425.332C83.8361 425.332 83.8361 431.476 87.7887 431.476C91.7413 431.476 91.7618 425.332 87.7887 425.332Z"
       fill="white"
       id="path156" />
    <path
       d="M85.0621 100.375C81.1095 100.375 81.1095 106.519 85.0621 106.519C89.0148 106.519 89.0148 100.375 85.0621 100.375Z"
       fill="white"
       id="path158" />
  </g>
  <defs
     id="defs168">
    <clipPath
       id="clip0_12141_308956">
      <rect
         width="1440"
         height="1024"
         fill="white"
         id="rect162" />
    </clipPath>
    <clipPath
       id="clip1_12141_308956">
      <rect
         width="136.474"
         height="133.963"
         fill="white"
         transform="translate(634 499.666) rotate(-5.7467)"
         id="rect165" />
    </clipPath>
  </defs>
</svg>
