<svg width="18" height="18" viewBox="0 0 18 18" fill="none" xmlns="http://www.w3.org/2000/svg">
<path d="M9 4.82812V7.32563" stroke="#9D3CB5" stroke-width="1.5" stroke-miterlimit="10" stroke-linecap="round"/>
<path d="M15.4392 11.3775C15.9867 12.2925 15.5517 13.4775 14.5392 13.815C10.9542 15.0075 7.07665 15.0075 3.49165 13.815C2.41165 13.455 1.99915 12.36 2.59165 11.3775L3.54415 9.7875C3.80665 9.3525 4.01665 8.58 4.01665 8.0775V6.5025C4.01665 3.735 6.25165 1.5 9.01165 1.5C11.7567 1.5 14.0067 3.75 14.0067 6.495V8.07C14.0067 8.205 14.0217 8.355 14.0442 8.5125" stroke="#9D3CB5" stroke-width="1.5" stroke-miterlimit="10" stroke-linecap="round"/>
<path d="M11.495 14.1133C11.495 15.4858 10.37 16.6108 8.9975 16.6108C8.315 16.6108 7.685 16.3258 7.235 15.8758C6.785 15.4258 6.5 14.7958 6.5 14.1133" stroke="#9D3CB5" stroke-width="1.5" stroke-miterlimit="10"/>
</svg>
