<svg width="32" height="43" viewBox="0 0 32 43" fill="none" xmlns="http://www.w3.org/2000/svg">
<path d="M0.529914 38.1538V4.23932C0.529914 2.19067 2.19067 0.529914 4.23931 0.529914H18.9709C19.9234 0.529914 20.8394 0.89631 21.5292 1.5532L30.1138 9.72902C30.8489 10.4291 31.265 11.4 31.265 12.4151V38.1538C31.265 40.2025 29.6042 41.8632 27.5556 41.8632H4.23932C2.19067 41.8632 0.529914 40.2025 0.529914 38.1538Z" fill="white" stroke="#E5E9EB" stroke-width="1.05983"/>
<path d="M9.6392 37V31.1818H11.7131C12.1657 31.1818 12.5407 31.2642 12.8381 31.429C13.1354 31.5937 13.358 31.8191 13.5057 32.1051C13.6534 32.3892 13.7273 32.7093 13.7273 33.0653C13.7273 33.4233 13.6525 33.7453 13.5028 34.0312C13.3551 34.3153 13.1316 34.5407 12.8324 34.7074C12.535 34.8722 12.161 34.9545 11.7102 34.9545H10.2841V34.2102H11.6307C11.9167 34.2102 12.1487 34.161 12.3267 34.0625C12.5047 33.9621 12.6354 33.8258 12.7188 33.6534C12.8021 33.4811 12.8438 33.285 12.8438 33.0653C12.8438 32.8456 12.8021 32.6506 12.7188 32.4801C12.6354 32.3097 12.5038 32.1761 12.3239 32.0795C12.1458 31.983 11.911 31.9347 11.6193 31.9347H10.517V37H9.6392ZM16.107 37.0852C15.7548 37.0852 15.4404 36.9953 15.1639 36.8153C14.8892 36.6335 14.6733 36.375 14.5161 36.0398C14.3608 35.7027 14.2832 35.2983 14.2832 34.8267C14.2832 34.3551 14.3618 33.9517 14.519 33.6165C14.6781 33.2812 14.8959 33.0246 15.1724 32.8466C15.4489 32.6686 15.7623 32.5795 16.1127 32.5795C16.3836 32.5795 16.6014 32.625 16.7661 32.7159C16.9328 32.8049 17.0616 32.9091 17.1525 33.0284C17.2453 33.1477 17.3173 33.2528 17.3684 33.3438H17.4195V31.1818H18.269V37H17.4394V36.321H17.3684C17.3173 36.4138 17.2434 36.5199 17.1468 36.6392C17.0521 36.7585 16.9214 36.8627 16.7548 36.9517C16.5881 37.0407 16.3722 37.0852 16.107 37.0852ZM16.2945 36.3608C16.5389 36.3608 16.7453 36.2964 16.9139 36.1676C17.0843 36.0369 17.2131 35.8561 17.3002 35.625C17.3892 35.3939 17.4338 35.125 17.4338 34.8182C17.4338 34.5152 17.3902 34.25 17.3031 34.0227C17.2159 33.7955 17.0881 33.6184 16.9195 33.4915C16.751 33.3646 16.5427 33.3011 16.2945 33.3011C16.0389 33.3011 15.8258 33.3674 15.6553 33.5C15.4849 33.6326 15.3561 33.8134 15.269 34.0426C15.1838 34.2718 15.1411 34.5303 15.1411 34.8182C15.1411 35.1098 15.1847 35.3722 15.2718 35.6051C15.3589 35.8381 15.4877 36.0227 15.6582 36.1591C15.8305 36.2936 16.0427 36.3608 16.2945 36.3608ZM21.398 32.6364V33.3182H18.9321V32.6364H21.398ZM19.6083 37V32.1307C19.6083 31.858 19.6679 31.6316 19.7872 31.4517C19.9066 31.2699 20.0647 31.1345 20.2617 31.0455C20.4586 30.9545 20.6727 30.9091 20.9037 30.9091C21.0742 30.9091 21.22 30.9233 21.3412 30.9517C21.4624 30.9782 21.5524 31.0028 21.6111 31.0256L21.4122 31.7131C21.3725 31.7017 21.3213 31.6884 21.2588 31.6733C21.1963 31.6562 21.1206 31.6477 21.0316 31.6477C20.8251 31.6477 20.6774 31.6989 20.5884 31.8011C20.5013 31.9034 20.4577 32.0511 20.4577 32.2443V37H19.6083Z" fill="#B1382B"/>
<path fill-rule="evenodd" clip-rule="evenodd" d="M9.92969 10.7526C9.92969 10.2443 10.1316 9.75676 10.4911 9.39732C10.8505 9.03787 11.338 8.83594 11.8464 8.83594H16.2413C16.7496 8.83605 17.237 9.03805 17.5964 9.39752L20.8681 12.6693C21.2276 13.0286 21.4296 13.5161 21.4297 14.0244V22.2526C21.4297 22.7609 21.2278 23.2484 20.8683 23.6079C20.5089 23.9673 20.0214 24.1693 19.513 24.1693H11.8464C11.338 24.1693 10.8505 23.9673 10.4911 23.6079C10.1316 23.2484 9.92969 22.7609 9.92969 22.2526V10.7526ZM11.8464 16.5026C11.8464 16.2484 11.9473 16.0047 12.127 15.825C12.3068 15.6452 12.5505 15.5443 12.8047 15.5443H18.5547C18.8089 15.5443 19.0526 15.6452 19.2323 15.825C19.4121 16.0047 19.513 16.2484 19.513 16.5026C19.513 16.7568 19.4121 17.0005 19.2323 17.1802C19.0526 17.36 18.8089 17.4609 18.5547 17.4609H12.8047C12.5505 17.4609 12.3068 17.36 12.127 17.1802C11.9473 17.0005 11.8464 16.7568 11.8464 16.5026ZM12.8047 19.3776C12.5505 19.3776 12.3068 19.4786 12.127 19.6583C11.9473 19.838 11.8464 20.0818 11.8464 20.3359C11.8464 20.5901 11.9473 20.8339 12.127 21.0136C12.3068 21.1933 12.5505 21.2943 12.8047 21.2943H18.5547C18.8089 21.2943 19.0526 21.1933 19.2323 21.0136C19.4121 20.8339 19.513 20.5901 19.513 20.3359C19.513 20.0818 19.4121 19.838 19.2323 19.6583C19.0526 19.4786 18.8089 19.3776 18.5547 19.3776H12.8047Z" fill="#DB6255"/>
</svg>
