<svg width="28" height="28" viewBox="0 0 28 28" fill="none" xmlns="http://www.w3.org/2000/svg">
<path d="M3.5 12.8333V3.5H12.8333V12.8333H3.5ZM5.83333 10.5H10.5V5.83333H5.83333V10.5ZM3.5 24.5V15.1667H12.8333V24.5H3.5ZM5.83333 22.1667H10.5V17.5H5.83333V22.1667ZM15.1667 12.8333V3.5H24.5V12.8333H15.1667ZM17.5 10.5H22.1667V5.83333H17.5V10.5ZM22.1667 24.5V22.1667H24.5V24.5H22.1667ZM15.1667 17.5V15.1667H17.5V17.5H15.1667ZM17.5 19.8333V17.5H19.8333V19.8333H17.5ZM15.1667 22.1667V19.8333H17.5V22.1667H15.1667ZM17.5 24.5V22.1667H19.8333V24.5H17.5ZM19.8333 22.1667V19.8333H22.1667V22.1667H19.8333ZM19.8333 17.5V15.1667H22.1667V17.5H19.8333ZM22.1667 19.8333V17.5H24.5V19.8333H22.1667Z" fill="black"/>
</svg>
