<svg width="16" height="16" viewBox="0 0 16 16" fill="none" xmlns="http://www.w3.org/2000/svg">
<path d="M12.5812 11.9976C13.2146 11.5243 13.7346 10.4909 13.7346 9.70428V4.75095C13.7346 3.93095 13.1079 3.02427 12.3412 2.7376L9.01457 1.49094C8.46123 1.28427 7.55457 1.28427 7.00124 1.49094L3.67458 2.7376C2.90791 3.02427 2.28125 3.93095 2.28125 4.75095V9.70428C2.28125 10.4909 2.80124 11.5243 3.43457 11.9976L6.30125 14.1376C7.24125 14.8443 8.7879 14.8443 9.7279 14.1376L10.2212 13.7643" stroke="white" stroke-linecap="round" stroke-linejoin="round"/>
<path d="M8.0024 7.27637C7.97573 7.27637 7.9424 7.27637 7.91573 7.27637C7.28906 7.25637 6.78906 6.73636 6.78906 6.10303C6.78906 5.45636 7.31574 4.92969 7.9624 4.92969C8.60907 4.92969 9.13574 5.45636 9.13574 6.10303C9.12908 6.74303 8.62907 7.25637 8.0024 7.27637Z" stroke="white" stroke-linecap="round" stroke-linejoin="round"/>
<path d="M6.67531 9.14625C6.03531 9.57292 6.03531 10.2729 6.67531 10.6996C7.40198 11.1862 8.59531 11.1862 9.32198 10.6996C9.96198 10.2729 9.96198 9.57292 9.32198 9.14625C8.60198 8.65958 7.40865 8.65958 6.67531 9.14625Z" stroke="white" stroke-linecap="round" stroke-linejoin="round"/>
</svg>
