<svg width="14" height="14" viewBox="0 0 14 14" fill="none" xmlns="http://www.w3.org/2000/svg">
<path d="M11.6662 2.04297H3.20786C3.02703 2.04297 2.85203 2.13047 2.7412 2.2763L1.8662 3.44297C1.58037 3.82797 1.85453 4.3763 2.33286 4.3763H10.7912C10.972 4.3763 11.147 4.2888 11.2579 4.14297L12.1329 2.9763C12.4187 2.5913 12.1445 2.04297 11.6662 2.04297Z" stroke="#797979" stroke-width="1.5" stroke-miterlimit="10"/>
<path d="M4.04786 8.16536H3.20786C3.02703 8.16536 2.85203 8.07786 2.7412 7.93203L1.8662 6.76536C1.58037 6.38036 1.85453 5.83203 2.33286 5.83203H10.7912C10.972 5.83203 11.147 5.91953 11.2579 6.06536L12.1329 7.23203C12.4187 7.61703 12.1445 8.16536 11.6662 8.16536H6.62619" stroke="#797979" stroke-width="1.5" stroke-miterlimit="10" stroke-linecap="round" stroke-linejoin="round"/>
<path d="M11.6662 9.625H3.20786C3.02703 9.625 2.85203 9.7125 2.7412 9.85833L1.8662 11.025C1.58037 11.41 1.85453 11.9583 2.33286 11.9583H10.7912C10.972 11.9583 11.147 11.8708 11.2579 11.725L12.1329 10.5583C12.4187 10.1733 12.1445 9.625 11.6662 9.625Z" stroke="#797979" stroke-width="1.5" stroke-miterlimit="10"/>
</svg>
