<svg width="1637" height="1164" viewBox="0 0 1637 1164" fill="none" xmlns="http://www.w3.org/2000/svg">
<path opacity="0.9" fill-rule="evenodd" clip-rule="evenodd" d="M42.797 -12.9873C23.2844 -15.5999 6.11743 -17.8984 -8.16187 -20L-13.0001 108.002C1.82043 110.184 19.4301 112.548 39.2925 115.214C159.644 131.37 362.714 158.63 529.245 223.636C627.407 261.955 706.894 311.369 749.848 372.14C770.902 401.927 778.477 427.8 779.973 448.039C781.406 467.417 778.536 499.255 757.787 547.366L756.575 550.175L755.535 553.24C754.339 556.762 752.537 561.616 750.314 567.604C739.741 596.079 719.65 650.193 710.005 708.606C703.751 746.479 700.707 791.117 706.858 838.223C713.078 885.861 727.865 929.583 751.651 967.883C797.639 1041.93 880.39 1100.82 1017.52 1139.07C1155.94 1177.69 1354.54 1196.43 1637 1182.31L1635.35 1054C1354.63 1068.03 1160.02 1049.19 1026.63 1011.98C891.958 974.411 824.319 919.223 792.777 868.434C777.797 844.314 772.033 822.925 769.849 806.195C767.595 788.933 768.291 769.945 771.853 748.372C777.871 711.929 789.036 681.44 799.659 652.433C802.706 644.114 805.708 635.917 808.531 627.736C835.085 565.187 849.427 498.318 844.341 429.512C839.242 360.533 815.901 307.651 787.751 267.823C732.293 189.363 640.207 136.106 541.868 97.7186C370.755 30.9237 162.581 3.05086 42.797 -12.9873Z" fill="url(#paint0_linear_11292_302042)"/>
<defs>
<linearGradient id="paint0_linear_11292_302042" x1="1637" y1="1187" x2="-17.1963" y2="1175.49" gradientUnits="userSpaceOnUse">
<stop stop-color="#07C0EA"/>
<stop offset="0.449935" stop-color="#CB71E1"/>
<stop offset="0.846515" stop-color="#F2B369"/>
</linearGradient>
</defs>
</svg>
