<svg width="86" height="72" viewBox="0 0 86 72" fill="none" xmlns="http://www.w3.org/2000/svg">
<circle cx="41" cy="43" r="25.5" fill="#CFE8DA" stroke="#36A064" stroke-dasharray="2 2"/>
<path d="M37.3828 42.9981L39.7928 45.4181L44.6228 40.5781" stroke="#0E8D45" stroke-width="1.5" stroke-linecap="round" stroke-linejoin="round"/>
<path d="M33.2428 37.1981C33.2428 36.1381 34.1128 35.2681 35.1728 35.2681H36.9028C37.3028 35.2681 37.8628 35.0581 38.1628 34.8081L39.7428 33.4581C40.4428 32.8681 41.5728 32.8681 42.2528 33.4581L43.8328 34.8081C44.1328 35.0581 44.7028 35.2681 45.1028 35.2681H46.8028C47.8628 35.2681 48.7328 36.1381 48.7328 37.1981V38.8981C48.7328 39.2981 48.9428 39.8581 49.1928 40.1581L50.5428 41.7381C51.1328 42.4381 51.1328 43.5681 50.5428 44.2481L49.1928 45.8281C48.9428 46.1281 48.7328 46.6881 48.7328 47.0881V48.7881C48.7328 49.8481 47.8628 50.7181 46.8028 50.7181H45.1028C44.7028 50.7181 44.1428 50.9281 43.8428 51.1781L42.2628 52.5281C41.5628 53.1181 40.4328 53.1181 39.7528 52.5281L38.1728 51.1781C37.8728 50.9281 37.3028 50.7181 36.9128 50.7181H35.1728C34.1128 50.7181 33.2428 49.8481 33.2428 48.7881V47.0781C33.2428 46.6881 33.0428 46.1181 32.7928 45.8281L31.4428 44.2381C30.8628 43.5481 30.8628 42.4281 31.4428 41.7381L32.0028 41.0781" stroke="#0E8D45" stroke-width="1.5" stroke-linecap="round" stroke-linejoin="round"/>
<path d="M9.20941 17.9472C10.1444 18.103 10.3644 18.7814 9.69066 19.4505L8.55399 20.5872C8.36149 20.7797 8.25607 21.1509 8.31566 21.4168L8.64107 22.8239C8.89774 23.9376 8.30649 24.3684 7.32107 23.7864L5.95066 22.9751C5.70316 22.8284 5.29524 22.8284 5.04316 22.9751L3.67274 23.7864C2.69191 24.3684 2.09607 23.933 2.35274 22.8239L2.67816 21.4168C2.73774 21.1509 2.63232 20.7797 2.43982 20.5872L1.30316 19.4505C0.63399 18.7814 0.849407 18.103 1.78441 17.9472L3.24649 17.7043C3.48941 17.663 3.78274 17.4476 3.89274 17.223L4.69941 15.6097C5.13482 14.7343 5.84982 14.7343 6.28982 15.6097L7.09649 17.223C7.14232 17.3193 7.22482 17.4155 7.32107 17.4934" stroke="#0E8D45" stroke-width="1.5" stroke-linecap="round" stroke-linejoin="round"/>
<path d="M70.2094 7.94719C71.1444 8.10302 71.3644 8.78135 70.6907 9.45052L69.554 10.5872C69.3615 10.7797 69.2561 11.1509 69.3157 11.4168L69.6411 12.8239C69.8977 13.9376 69.3065 14.3684 68.3211 13.7864L66.9507 12.9751C66.7032 12.8284 66.2952 12.8284 66.0432 12.9751L64.6727 13.7864C63.6919 14.3684 63.0961 13.933 63.3527 12.8239L63.6782 11.4168C63.7377 11.1509 63.6323 10.7797 63.4398 10.5872L62.3032 9.45052C61.634 8.78135 61.8494 8.10302 62.7844 7.94719L64.2465 7.70427C64.4894 7.66302 64.7827 7.4476 64.8927 7.22302L65.6994 5.60969C66.1348 4.73427 66.8498 4.73427 67.2898 5.60969L68.0965 7.22302C68.1423 7.31927 68.2248 7.41552 68.3211 7.49344" stroke="#5EB383" stroke-width="1.5" stroke-linecap="round" stroke-linejoin="round"/>
<path d="M76.2094 64.9472C77.1444 65.103 77.3644 65.7814 76.6907 66.4505L75.554 67.5872C75.3615 67.7797 75.2561 68.1509 75.3157 68.4168L75.6411 69.8239C75.8977 70.9376 75.3065 71.3684 74.3211 70.7864L72.9507 69.9751C72.7032 69.8284 72.2952 69.8284 72.0432 69.9751L70.6727 70.7864C69.6919 71.3684 69.0961 70.933 69.3527 69.8239L69.6782 68.4168C69.7377 68.1509 69.6323 67.7797 69.4398 67.5872L68.3032 66.4505C67.634 65.7814 67.8494 65.103 68.7844 64.9472L70.2465 64.7043C70.4894 64.663 70.7827 64.4476 70.8927 64.223L71.6994 62.6097C72.1348 61.7343 72.8498 61.7343 73.2898 62.6097L74.0965 64.223C74.1423 64.3193 74.2248 64.4155 74.3211 64.4934" stroke="#5EB383" stroke-width="1.5" stroke-linecap="round" stroke-linejoin="round"/>
<circle cx="4" cy="55" r="3" fill="#AFD9C1"/>
<circle cx="38" cy="3" r="3" fill="#AFD9C1"/>
<circle cx="83" cy="37" r="3" fill="#AFD9C1"/>
</svg>
