<svg width="30" height="32" viewBox="0 0 30 32" fill="none" xmlns="http://www.w3.org/2000/svg">
<path d="M27.2492 8.60017C27.3985 9.6997 29.0563 11.1835 29.5158 11.1471C29.8196 11.1212 29.9312 9.71268 29.9312 8.60147C29.9312 7.96798 29.9701 7.4643 29.6326 7.35266C29.1004 8.42752 27.7023 8.64301 27.2492 8.60017ZM27.3427 8.10948C28.5474 8.10948 29.6456 7.14885 29.6456 6.30247C29.6456 5.91302 29.46 5.582 28.9875 5.52618C29.0692 5.63263 29.1056 5.70792 29.1056 5.89874C29.1056 6.53873 28.1372 7.24102 27.0805 7.24102C26.6962 7.24102 26.5846 7.50714 26.5846 7.64344C26.5781 7.98096 26.8884 8.10948 27.3427 8.10948ZM27.0883 6.80614C26.926 6.80614 26.6962 6.80614 26.5664 6.55171C26.5245 6.46132 26.4969 6.36498 26.4846 6.26612C26.4548 6.10385 26.4236 5.94288 26.299 5.85591C26.4976 5.91822 26.6962 5.91822 26.8637 5.91822C27.3855 5.91822 27.8827 5.55733 28.267 5.55733C28.5227 5.55733 28.5967 5.7196 28.5967 5.88187C28.6097 6.39074 27.5712 6.80614 27.1 6.80614H27.0883ZM1.20338 15.8788C1.59412 15.8788 1.51493 13.4695 2.15361 13.4695C2.3029 13.4695 2.34574 13.6188 2.34574 13.8109C2.34574 14.3574 2.07962 15.1519 2.07962 15.5932C2.07962 15.8165 2.14063 15.8918 2.24059 15.8853C2.51969 15.8853 3.00389 13.2332 3.47642 13.2332C3.6257 13.2332 3.6997 13.3825 3.6997 13.537C3.6997 14.09 2.99221 15.6919 2.99221 16.1398C2.99221 16.2138 3.02337 16.2696 3.06621 16.2696C3.35829 16.2696 3.93596 15.0221 4.12159 14.3951C4.22804 14.0705 4.36434 13.8979 4.49416 13.8979C4.61229 13.8979 4.71874 14.0277 4.71874 14.2951C4.71874 14.9221 4.14106 16.3877 3.63219 17.3756C3.24016 18.1389 2.62614 19.2384 2.62614 19.8537C2.62614 20.164 2.68715 20.4924 3.12852 20.878C2.38858 20.8338 2.08481 20.7598 1.8122 20.1822C0.576374 22.6408 4.09693 22.4059 2.89225 24.5919C2.67547 24.1999 0.935959 23.7962 0.935959 21.505C0.935959 19.524 2.66897 18.3687 2.66897 17.5495C2.67009 17.4672 2.65216 17.3856 2.61658 17.3113C2.58101 17.237 2.52874 17.1719 2.46387 17.1212C2.07962 16.7979 2.07313 16.5305 1.76807 16.5305C1.55128 16.5305 1.28386 17.0407 1.55777 17.4937C1.65123 17.643 1.73691 17.73 1.73691 17.878C1.73691 18.2025 1.22804 19.071 0.867157 19.0645C0.507573 19.0645 0.234963 18.1765 0.234963 16.7421C0.234963 15.4699 0.527045 14.1835 0.880139 14.1835C0.986586 14.1835 1.00995 14.2588 1.00995 14.3444C1.00995 14.4937 0.967114 14.7988 0.967114 15.3077C0.973605 15.8477 1.09174 15.8918 1.20338 15.8788ZM4.15275 19.2696C4.63695 19.2696 5.04068 18.9087 5.04068 18.1142V16.9342C5.04068 16.4812 5.07962 15.9723 5.37689 15.6179C5.33925 15.7672 5.33925 15.9295 5.33925 16.0775C5.33925 17.0705 5.88576 17.7547 5.88576 18.7166C5.88576 19.0775 5.78061 19.2696 5.50671 19.2631C5.24059 19.2631 5.26525 19.0216 5.20294 19.0216C5.15881 19.0216 5.08481 19.1696 5.08481 19.3319C5.08481 19.5669 5.26525 19.9524 5.73648 19.9589C6.15188 19.9589 6.4881 19.5798 6.4881 19.1514C6.4881 18.1077 5.68066 16.9537 5.68066 15.8412C5.68066 15.357 5.81047 15.0338 5.91043 14.7793C5.91043 17.077 7.86672 18.7542 7.86672 19.7161C7.86767 19.7689 7.85779 19.8213 7.83768 19.87C7.81757 19.9188 7.78767 19.9629 7.74983 19.9997C7.71199 20.0364 7.66701 20.065 7.61767 20.0837C7.56833 20.1023 7.51569 20.1107 7.463 20.1082C7.4127 20.1101 7.36253 20.1019 7.31545 20.0841C7.26838 20.0663 7.22535 20.0392 7.18892 20.0044C7.15249 19.9697 7.1234 19.928 7.10336 19.8818C7.08332 19.8357 7.07275 19.7859 7.07226 19.7356C7.07226 19.6538 7.05928 19.6292 7.02813 19.6292C6.96062 19.6292 6.74903 19.8589 6.74903 20.164C6.74903 20.5482 7.06058 21.0078 7.63695 21.0078C8.29511 21.0078 8.65599 20.4496 8.65599 19.9524C8.65599 18.7347 6.28299 16.8966 6.28299 14.9286C6.28299 14.5937 6.33881 14.0459 6.58157 13.6305C5.05366 14.6119 4.58243 15.9217 4.58243 17.0705C4.58243 18.0649 4.54349 18.5608 4.03462 18.5608C3.7685 18.5608 3.6997 18.3193 3.60623 18.3193C3.53873 18.3193 3.50108 18.5309 3.50108 18.5868C3.51406 19.0216 3.81783 19.2566 4.13457 19.2566H4.15275V19.2696ZM25.1683 6.02337C24.945 6.02337 24.579 6.26612 24.2869 6.26612C23.9208 6.25963 24.0273 5.79879 23.6222 5.79879C23.5176 5.80167 23.4152 5.82972 23.3237 5.88057C22.4864 6.30247 21.8334 6.1415 21.6854 6.24145C21.6478 6.25963 21.6166 6.29078 21.6049 6.35829C21.6049 7.22804 22.5292 8.56902 24.0701 8.56902C25.1255 8.56902 26.0134 8.20943 26.0134 7.61878C26.0134 7.10472 25.5149 6.02337 25.1683 6.02337ZM24.2064 7.71224C23.3561 7.71224 22.7966 7.2527 22.8031 6.94894C22.8031 6.91129 22.8278 6.88663 22.8706 6.88663C23.0082 6.88663 23.3808 7.07356 23.865 7.15405C24.4297 7.24751 24.7347 7.25919 24.8827 7.25919C25.032 7.25919 25.1008 7.29684 25.1008 7.33968C25.1008 7.48247 24.7166 7.71224 24.2064 7.71224ZM4.3968 23.6352C4.01774 23.7287 3.40242 24.331 3.40242 25.2813C3.40242 26.4106 4.62008 28.1566 6.61921 28.1566C8.30809 28.1566 8.72479 26.9883 8.72479 26.2003C8.72479 24.4543 7.64993 23.225 6.24665 23.225C5.48334 23.225 4.80052 23.7832 4.80052 24.6036C4.80052 25.3734 5.37819 26.5171 6.75681 26.5171C7.40199 26.5171 7.78754 26.0498 7.78754 25.5227C7.78754 25.0009 7.31502 24.2869 6.61921 24.2869C6.40891 24.2869 6.25963 24.4232 6.25963 24.6478C6.25963 24.9269 6.64388 25.193 7.12289 25.1995C7.23972 25.1995 7.33319 25.1748 7.37733 25.1566C7.40329 25.1878 7.40848 25.2436 7.40848 25.2929C7.40848 25.5604 7.15405 25.7213 6.76201 25.7213C6.17265 25.7213 5.60666 25.28 5.60666 24.5855C5.60666 24.1701 5.96755 23.8715 6.4894 23.8715C7.52012 23.8715 8.13544 24.7906 8.13544 25.6967C8.13544 26.5171 7.68109 26.9948 6.75681 26.9883C4.89269 26.9948 3.99957 25.3176 4.3968 23.6352ZM18.7477 27.318C18.6296 27.0935 18.7218 26.7079 18.3752 26.7079C18.1389 26.7079 18.1207 26.8948 18.0961 27.0454C17.5924 26.9026 17.177 26.8273 16.8044 26.8273C16.537 26.8273 16.3072 26.8637 16.1086 26.9325C15.9788 26.6962 15.4076 26.2497 14.9104 26.0887C14.717 27.1311 13.7797 27.9502 12.3881 28.0684C12.3077 28.7525 11.7741 28.9251 11.3574 28.9251C11.0588 28.9316 10.5811 28.8265 10.5565 28.7083C10.3955 27.727 9.65037 27.1752 9.32713 27.0441C9.34011 27.1493 9.35309 27.2622 9.35309 27.3674C9.35309 28.1982 8.78191 28.7213 7.71874 28.7213C7.53608 28.722 7.35369 28.7072 7.17352 28.6772C8.38987 30.0312 9.25833 29.534 9.82432 29.7897C10.563 30.1246 11.1653 31.1553 13.537 31.1553C14.4003 31.1553 15.283 30.8204 15.8607 30.4479C15.9645 30.7958 16.3254 31.106 16.9161 31.106C17.9221 31.106 18.4868 30.7945 18.4868 30.54C18.4868 30.4725 18.4803 30.3661 18.3064 30.3661C18.1324 30.3661 18.1571 30.4102 17.6054 30.4102C16.9654 30.4037 15.9217 30.1558 15.4323 29.0381C15.344 28.8511 15.2077 28.8511 15.1649 28.8511C14.8416 28.8511 14.3444 30 12.309 30C11.4574 30.0065 11.0601 29.6833 11.0601 29.6093C11.0601 29.5963 11.0601 29.5833 11.103 29.5833C11.1835 29.5833 11.5002 29.6222 11.8923 29.6222C13.1774 29.6222 14.2146 29.0316 14.8416 28.3488C15.0584 28.106 15.1649 28.0684 15.3505 28.0684C15.5128 28.0684 15.6867 28.2112 15.7659 28.4292C16.0515 29.1692 16.7109 29.7585 17.4314 29.7585C18.405 29.7585 18.418 28.0943 18.6478 28.0125C18.692 28.0284 18.7384 28.0371 18.7854 28.0385C18.9022 28.0385 19.0891 27.9515 19.0891 27.7334C19.0891 27.4972 18.8035 27.4349 18.7477 27.318ZM17.1705 28.5656C17.0481 28.5635 16.9314 28.5136 16.8455 28.4264C16.7596 28.3393 16.7113 28.2219 16.7109 28.0995C16.7109 27.8399 16.9161 27.6348 17.1705 27.6348C17.4249 27.6348 17.6365 27.8451 17.6365 28.0995C17.6369 28.161 17.625 28.2219 17.6017 28.2788C17.5783 28.3356 17.5439 28.3873 17.5004 28.4307C17.4569 28.4742 17.4053 28.5086 17.3484 28.532C17.2916 28.5553 17.2307 28.5672 17.1692 28.5669L17.1705 28.5656ZM25.5097 21.8412C23.8092 21.8412 24.2505 23.3302 22.2618 23.7845C21.8957 23.865 21.7906 23.9831 21.7906 24.1441C21.7906 24.4492 21.9593 24.8399 22.1696 24.8399C23.0329 24.8399 24.3804 23.0446 24.6231 23.0446V23.0329C24.7244 23.0394 24.8269 23.0485 24.8204 23.2873C24.8204 23.939 22.9459 24.7906 22.9459 25.2553C22.9459 25.5357 23.6106 26.1251 24.257 26.1251C25.193 26.1315 26.0316 24.2129 26.2302 24.2129C26.386 24.2129 26.4418 24.3245 26.4418 24.4427C26.4418 24.9645 25.8083 25.9823 24.6971 26.4236C24.4673 26.5158 24.4297 26.6222 24.4297 26.7027C24.4297 26.9572 24.7218 27.3362 24.9879 27.3362C25.3124 27.3362 27.4855 25.4422 27.4855 23.9143C27.4855 22.4799 26.447 21.8399 25.511 21.8399L25.5097 21.8412ZM26.2925 23.4859C26.1734 23.4846 26.0563 23.4548 25.9511 23.399C25.8018 23.3315 25.5357 23.1069 25.5357 22.7655C25.5357 22.4552 25.7097 22.3241 25.8706 22.3241C26.3678 22.3241 26.8884 22.7655 26.8961 23.1134C26.8961 23.3925 26.6274 23.4859 26.2925 23.4859ZM4.2592 8.92341C4.25952 9.04601 4.30802 9.16357 4.39423 9.25075C4.48043 9.33793 4.59744 9.38774 4.72003 9.38944C4.83853 9.38316 4.95011 9.33167 5.03177 9.24557C5.11343 9.15947 5.15895 9.04532 5.15895 8.92665C5.15895 8.80799 5.11343 8.69384 5.03177 8.60774C4.95011 8.52164 4.83853 8.47015 4.72003 8.46387C4.59813 8.46612 4.48173 8.51502 4.39479 8.60051C4.30785 8.68599 4.257 8.80156 4.2527 8.92341H4.2592ZM3.65816 7.8862C3.65816 8.14193 3.86196 8.34574 4.1177 8.34574C4.24064 8.34472 4.35825 8.29543 4.44519 8.2085C4.53212 8.12156 4.58141 8.00394 4.58243 7.881C4.58243 7.62527 4.37213 7.41367 4.1177 7.41367C3.86326 7.41367 3.65816 7.63825 3.65816 7.8862ZM3.24145 11.0472C2.97404 11.116 2.42233 11.4392 2.42233 12.0169C2.42233 12.4323 2.75076 12.6997 3.14929 12.6997C3.35958 12.6997 3.50887 12.6556 3.60234 12.5816C3.46223 12.4543 3.35051 12.2989 3.27447 12.1256C3.19842 11.9522 3.15975 11.7648 3.16097 11.5755C3.16097 11.3457 3.19862 11.1965 3.24145 11.0472ZM0.403721 11.2159C0.39074 11.2704 0.39074 11.3328 0.39074 11.3886C0.39074 11.9351 0.671138 12.2337 1.05539 12.2337C1.34098 12.2337 1.68239 12.0597 1.98096 11.6807C1.84395 11.706 1.70489 11.7186 1.56556 11.7183C1.14885 11.7183 0.676331 11.6002 0.403721 11.2146V11.2159ZM0 12.2518C0 13.1281 0.267417 13.5435 0.739939 13.55C1.11121 13.55 1.60839 13.2826 2.19775 12.7737C1.7447 12.8788 1.3968 12.9476 1.08654 12.9541C0.671138 12.9476 0.354392 12.7854 0 12.2531V12.2518ZM2.9987 7.62008C3.0667 7.40275 3.10256 7.17664 3.10515 6.94894C3.10515 6.39593 2.85071 5.55214 2.06145 5.55214C1.95831 5.55142 1.85608 5.5714 1.76081 5.61089C1.66553 5.65038 1.57915 5.70859 1.50676 5.78206C1.43438 5.85553 1.37748 5.94277 1.33941 6.03863C1.30135 6.13448 1.2829 6.237 1.28516 6.34011C1.28516 7.25919 2.20424 7.62527 2.9987 7.62008ZM3.58286 8.7871C3.43358 8.58849 3.4894 8.40805 3.39723 8.31458C3.34141 8.25876 3.17914 8.25876 2.96884 8.2341C2.88383 8.22602 2.79851 8.22169 2.71311 8.22112C2.33535 8.22112 1.8823 8.27174 1.37213 8.59498C0.372566 9.22847 0.515361 10.2955 0.359585 10.5565C0.337512 10.5963 0.325065 10.6408 0.323237 10.6863C0.323237 10.7927 0.440069 10.9109 0.546517 10.9044C0.639983 10.9044 0.695803 10.8797 0.745132 10.8797C1.02423 10.8797 1.34228 11.0718 1.78235 11.0783C2.04976 11.0783 2.36002 10.9978 2.75076 10.7992C3.58286 10.3838 3.9061 9.3518 3.9061 9.17784C3.9061 8.96105 3.73215 8.98572 3.58286 8.7871ZM2.01212 10.5383C1.63306 10.5383 1.21636 10.0658 1.21636 9.63739C1.21636 9.40761 1.39031 9.11553 1.51493 9.11553C1.55907 9.11553 1.58892 9.14669 1.58892 9.23366C1.65772 9.79965 2.03678 10.1216 2.37819 10.2903C2.41584 10.3215 2.4405 10.3215 2.4405 10.3462C2.4405 10.4137 2.22241 10.5318 2.01212 10.5383ZM3.09866 9.82432C2.69494 9.82432 2.3717 9.209 2.3717 8.8611C2.3717 8.64431 2.50151 8.61964 2.67027 8.61964C2.75076 8.61964 2.78711 8.63263 2.85071 8.66248C2.94937 8.7183 2.94937 8.94288 3.08048 9.12202C3.16097 9.22847 3.37906 9.35829 3.37906 9.45175C3.37906 9.61272 3.28559 9.82432 3.09866 9.82432ZM4.20467 10.0969C3.94894 10.3955 3.68282 10.9044 3.68282 11.4327C3.68282 12.0532 4.06707 12.5751 4.66422 12.5751C5.22891 12.5751 5.49502 12.0909 5.49502 11.5937C5.48983 10.8109 4.78884 10.2644 4.20467 10.0969ZM1.72523 7.87451C1.72523 7.87451 1.39031 8.12895 0.974903 8.12895C0.857619 8.13142 0.741046 8.11015 0.632198 8.06641C0.52335 8.02266 0.424477 7.95735 0.341526 7.8744C0.258576 7.79145 0.193263 7.69257 0.149517 7.58372C0.105772 7.47488 0.084498 7.3583 0.0869754 7.24102C0.0854004 7.04474 0.143191 6.85256 0.252766 6.68971C0.362341 6.52685 0.518583 6.40092 0.700995 6.32843C0.688014 6.39593 0.688014 6.45175 0.688014 6.52704C0.682821 7.17871 1.0476 7.68239 1.72523 7.87451ZM22.1268 11.7118C22.1268 11.9792 22.3501 12.2025 22.6175 12.196C22.7398 12.1871 22.8542 12.1322 22.9376 12.0423C23.0211 11.9525 23.0675 11.8344 23.0675 11.7118C23.0675 11.5892 23.0211 11.4711 22.9376 11.3813C22.8542 11.2915 22.7398 11.2366 22.6175 11.2276C22.4885 11.2276 22.3646 11.2784 22.2728 11.369C22.1809 11.4597 22.1285 11.5828 22.1268 11.7118ZM22.1579 13.1709C22.1579 13.4695 22.3942 13.7174 22.7045 13.7174C22.8491 13.7171 22.9877 13.6596 23.0901 13.5574C23.1924 13.4553 23.2503 13.3168 23.251 13.1722C23.251 13.0274 23.1936 12.8884 23.0914 12.7858C22.9893 12.6831 22.8506 12.6251 22.7058 12.6244C22.5616 12.6274 22.4242 12.6859 22.3221 12.7877C22.2201 12.8895 22.1613 13.0268 22.1579 13.1709ZM20.4937 14.1575C20.4932 14.3163 20.5399 14.4718 20.6278 14.6041C20.7157 14.7364 20.8408 14.8396 20.9875 14.9007C21.1341 14.9617 21.2955 14.9779 21.4514 14.9472C21.6072 14.9164 21.7504 14.8401 21.8628 14.7278C21.9752 14.6156 22.0518 14.4726 22.0828 14.3168C22.1138 14.161 22.0979 13.9995 22.037 13.8528C21.9762 13.7061 21.8732 13.5807 21.741 13.4926C21.6089 13.4045 21.4535 13.3576 21.2947 13.3579C21.0828 13.3595 20.88 13.4445 20.7302 13.5943C20.5804 13.7442 20.4954 13.9456 20.4937 14.1575ZM20.9221 12.5193C20.9224 12.6416 20.9708 12.759 21.0567 12.8461C21.1426 12.9333 21.2593 12.9832 21.3817 12.9853C21.6361 12.9853 21.849 12.7737 21.849 12.518C21.849 12.2622 21.6361 12.0532 21.3817 12.0532C21.2591 12.0563 21.1427 12.1077 21.0578 12.1962C20.973 12.2847 20.9265 12.4031 20.9286 12.5257L20.9221 12.5193ZM19.4072 13.4513C19.4136 13.5698 19.4653 13.6813 19.5515 13.7629C19.6377 13.8444 19.7519 13.8898 19.8706 13.8896C19.9893 13.8894 20.1033 13.8437 20.1893 13.762C20.2753 13.6802 20.3266 13.5685 20.3328 13.45C20.3317 13.3273 20.2821 13.2101 20.1947 13.1239C20.1074 13.0378 19.9894 12.9898 19.8667 12.9905C19.7456 12.9935 19.6302 13.043 19.5446 13.1288C19.459 13.2146 19.4098 13.3301 19.4072 13.4513ZM20.5989 10.7369C20.5989 11.1341 20.9416 11.4768 21.3388 11.4768C21.736 11.4768 22.0788 11.1393 22.0788 10.7369C22.0788 10.3345 21.7412 9.99697 21.3388 9.99697C21.1433 9.99933 20.9565 10.078 20.8182 10.2163C20.6799 10.3546 20.6012 10.5414 20.5989 10.7369ZM21.4621 9.32194C21.4623 9.38034 21.4741 9.43813 21.4967 9.49195C21.5194 9.54578 21.5525 9.59457 21.5942 9.63551C21.6358 9.67644 21.6852 9.7087 21.7394 9.73041C21.7936 9.75213 21.8516 9.76287 21.91 9.76201C22.0269 9.76166 22.139 9.71505 22.2217 9.63236C22.3044 9.54966 22.351 9.43759 22.3514 9.32064C22.351 9.20369 22.3044 9.09162 22.2217 9.00892C22.139 8.92623 22.0269 8.87961 21.91 8.87927C21.6621 8.88576 21.4556 9.07919 21.4634 9.32064L21.4621 9.32194ZM19.3695 10.4331C19.3695 10.6681 19.563 10.8797 19.7979 10.8745C19.9149 10.8742 20.0269 10.8276 20.1096 10.7449C20.1923 10.6622 20.2389 10.5501 20.2393 10.4331C20.2389 10.3162 20.1923 10.2041 20.1096 10.1214C20.0269 10.0387 19.9149 9.99212 19.7979 9.99178C19.6833 9.9958 19.5748 10.044 19.4949 10.1263C19.4151 10.2085 19.3701 10.3185 19.3695 10.4331ZM19.3137 11.9416C19.3137 12.3388 19.6253 12.6556 20.0095 12.6491C20.1026 12.6496 20.1948 12.6316 20.2809 12.5963C20.3669 12.5609 20.4451 12.5088 20.5109 12.443C20.5767 12.3772 20.6288 12.299 20.6642 12.2129C20.6996 12.1269 20.7175 12.0346 20.717 11.9416C20.7175 11.8485 20.6996 11.7563 20.6642 11.6702C20.6288 11.5842 20.5767 11.506 20.5109 11.4402C20.4451 11.3744 20.3669 11.3223 20.2809 11.2869C20.1948 11.2515 20.1026 11.2336 20.0095 11.2341C19.9168 11.2326 19.8247 11.25 19.7388 11.2852C19.653 11.3204 19.5752 11.3727 19.5101 11.4388C19.445 11.505 19.3941 11.5836 19.3603 11.6701C19.3266 11.7565 19.3107 11.8489 19.3137 11.9416ZM17.8546 12.6737C17.8546 13.0281 18.1532 13.3267 18.5063 13.3319C18.6805 13.3309 18.8473 13.2612 18.9705 13.138C19.0937 13.0148 19.1634 12.848 19.1644 12.6737C19.1624 12.4998 19.0924 12.3336 18.9694 12.2106C18.8464 12.0876 18.6802 12.0176 18.5063 12.0156C18.3332 12.0183 18.168 12.0887 18.0462 12.2117C17.9244 12.3348 17.8556 12.5006 17.8546 12.6737ZM18.2453 11.0407C18.2453 11.2951 18.4505 11.5002 18.7049 11.5002C18.9593 11.5002 19.1722 11.2899 19.1722 11.0355C19.1722 10.781 18.9606 10.5682 18.7049 10.5682C18.6442 10.5683 18.5842 10.5806 18.5284 10.6043C18.4725 10.628 18.422 10.6627 18.3798 10.7062C18.3376 10.7498 18.3045 10.8014 18.2825 10.8579C18.2605 10.9145 18.2501 10.9748 18.2518 11.0355H18.2453V11.0407ZM22.3137 14.6119C22.3137 14.3821 22.524 14.1835 22.7486 14.1835C23.003 14.1835 23.1952 14.3756 23.1952 14.6119C23.1952 14.8793 22.9965 15.0662 22.7408 15.0584C22.683 15.0583 22.6259 15.0465 22.5728 15.0238C22.5197 15.0011 22.4717 14.9679 22.4317 14.9262C22.3917 14.8845 22.3605 14.8352 22.34 14.7812C22.3195 14.7272 22.3102 14.6696 22.3124 14.6119H22.3137ZM22.7045 26.7715C22.7979 26.6897 22.8226 26.5599 22.8226 26.4353V26.1692C22.8226 25.833 22.3137 25.6344 21.6179 25.6344C20.7741 25.6344 20.3198 26.0134 20.3198 26.1744V26.7092C20.3198 26.9325 20.8235 27.1558 21.4621 27.1558C21.9528 27.1558 22.4072 27.026 22.7045 26.7715ZM23.3068 26.8948C22.691 27.3896 21.9236 27.6573 21.1337 27.653C20.5067 27.653 20.2328 27.4543 20.1393 27.4543C20.0225 27.4543 19.8979 27.5712 19.7668 27.7218C19.4942 28.0437 19.1333 28.646 19.1333 29.3107C19.1333 29.7702 19.4877 30.2298 20.1588 30.2363C22.3267 30.2363 23.9403 28.8823 23.9403 27.7828C23.9468 27.1597 23.5729 26.8936 23.3068 26.8948ZM22.2138 29.0186C21.9217 29.2172 21.5309 29.3795 20.9546 29.3847C21.0467 29.1056 21.1155 28.82 21.1155 28.5409C21.1155 28.4474 21.1026 28.3799 21.0896 28.2735H21.2389C22.1463 28.267 22.5435 27.9074 22.611 27.9139C22.6668 27.9139 22.7408 27.945 22.7408 28.1553C22.7408 28.4098 22.624 28.746 22.2138 29.0186ZM23.7105 17.164C23.7105 17.4431 23.7975 17.7845 24.0961 17.791C24.3375 17.791 24.5491 17.4184 24.5491 17.0147C24.5491 16.55 24.4686 16.1956 24.4686 16.0087C24.4686 15.9282 24.505 15.8918 24.5491 15.8918C24.7231 15.9035 24.8905 16.3812 25.071 16.3812C25.2813 16.3812 25.5928 15.997 25.7161 15.997C25.7538 15.997 25.7603 16.0398 25.7603 16.0528C25.7603 16.2267 25.4929 16.611 25.4929 16.7668C25.4929 16.8966 26.1575 16.9161 26.1575 17.0342C26.1575 17.2081 25.4565 17.2081 25.1203 17.3561C24.7971 17.4937 24.5984 17.6677 24.5984 17.9026C24.5984 18.1376 24.8347 18.183 25.1644 18.183C25.9407 18.183 26.4807 17.7676 26.6547 17.7676C26.691 17.7676 26.717 17.7975 26.717 17.8222C26.717 17.9403 26.325 18.3193 26.325 18.4868C26.325 18.6789 27.0389 18.9152 27.0389 19.0333C27.026 19.071 26.9831 19.0762 26.9026 19.0762C26.7728 19.0762 26.5794 19.0398 26.4249 19.0398C26.3315 19.0398 26.251 19.0528 26.2133 19.0956C26.1328 19.1826 26.2445 19.8031 26.077 19.8031C25.9277 19.8031 25.5305 18.4375 24.6426 18.4375C24.5128 18.4375 24.4245 18.5426 24.4245 18.7166C24.4245 19.1761 24.8723 19.7096 25.3007 19.9654C25.4929 20.0952 25.8226 20.2198 25.8226 20.2938C25.8226 20.4301 25.0826 20.3068 25.0826 20.5366C25.0826 20.7417 25.1696 21.0571 25.1696 21.244C25.1696 21.2999 25.1566 21.3687 25.0891 21.3739C24.9528 21.3739 24.6114 20.7404 24.4492 20.7404C24.3129 20.7404 24.0078 21.1194 23.8845 21.1194C23.8533 21.1194 23.8286 21.0831 23.8286 21.0519C23.8286 20.7845 24.257 20.1822 24.257 19.5928C24.257 19.3124 24.2194 18.7101 23.8845 18.7101C23.6054 18.7101 23.2951 19.1514 23.1575 19.5863C23.077 19.8408 23.1328 20.8222 22.9472 20.8222C22.7733 20.8222 22.8174 20.164 22.5863 20.164C22.4124 20.164 22.0463 20.4743 21.9165 20.4743C21.8905 20.4743 21.8724 20.4613 21.8724 20.4366C21.8724 20.3003 22.2073 19.8472 22.2073 19.7538C22.2073 19.5798 21.444 19.5552 21.444 19.4189C21.444 19.3371 21.7425 19.2813 22.0216 19.2319C22.611 19.1268 23.4807 18.6984 23.4807 18.0961C23.4807 17.4249 22.8356 17.1328 22.4072 16.8602C22.1891 16.7226 21.9399 16.6058 21.9399 16.5123C21.9399 16.4189 22.2203 16.4189 22.3319 16.4189C22.5058 16.4189 22.6798 16.4059 22.6798 16.2696C22.6798 16.1644 22.6551 15.9593 22.6551 15.7984C22.6551 15.6802 22.6681 15.5868 22.7109 15.5868C22.8849 15.5868 23.1264 16.1514 23.2445 16.1514C23.4314 16.1514 23.6859 15.6867 23.8598 15.6867C23.9156 15.6867 23.9338 15.7179 23.9338 15.823C23.9286 16.2579 23.7105 16.7486 23.7105 17.164ZM18.1895 13.7797C18.3193 14.7611 19.6434 14.2704 19.6434 15.4569C19.6434 15.6309 19.5993 15.8853 19.5993 16.1021C19.5993 16.3566 19.6305 16.5746 19.8239 16.5746C20.0225 16.5746 20.0653 16.437 20.0653 16.2501C20.0653 16.0632 20.0225 15.8347 20.0225 15.7049C20.0225 15.3012 20.3133 15.2077 20.4872 15.2077C20.9286 15.2077 21.2583 15.6556 21.9282 15.662C21.7789 16.4007 20.2523 16.2073 20.2523 17.0147C20.2523 17.4119 20.6495 17.5184 20.9169 17.5184C21.1584 17.5184 21.2389 17.4807 21.2389 17.2756C21.2389 17.1588 21.2142 17.0342 21.2142 16.9524C21.2142 16.9096 21.2518 16.8602 21.3077 16.8602C21.5621 16.8602 22.8044 17.8105 22.8044 18.0961C22.8044 18.3622 21.4881 18.6296 21.1026 18.6296C20.9857 18.6296 20.9662 18.5491 20.9662 18.505C20.9662 18.4245 21.1649 18.183 21.1649 18.0402C21.1649 17.9338 20.9909 17.8663 20.5249 17.8663C20.3081 17.8663 20.1393 17.891 20.1393 18.0649C20.1393 18.3752 20.643 18.7607 20.643 19.0463C20.643 19.2761 20.5067 19.4189 20.1341 19.4189C19.8226 19.4189 19.3514 19.1761 19.3514 18.7724C19.3514 18.4492 19.6863 18.1272 19.6863 17.9286C19.6863 17.8715 19.6434 17.7793 19.5071 17.7793C19.0788 17.7793 18.9606 18.9152 17.4444 19.0385C17.6871 18.8217 17.8987 18.5738 17.8987 18.0779C17.8987 17.8351 17.8429 17.6365 17.8429 17.3691C17.8429 17.0212 18.0039 16.8472 18.2324 16.8472C18.6621 16.8472 18.8736 17.4561 19.1527 17.4561C19.302 17.4561 19.4643 17.3198 19.4643 17.1082C19.4643 16.2254 17.7741 16.3566 17.7741 15.122C17.7611 14.7728 17.8858 14.3561 18.1895 13.7797ZM22.0775 20.9896C22.1579 21.1194 22.1956 21.244 22.1956 21.3622C22.1956 21.6854 21.9775 21.9892 21.9775 22.3241C21.9775 22.7096 22.2761 23.0199 22.7045 23.0199C23.177 23.0199 23.5054 22.6408 23.5054 22.1891C23.4989 21.566 22.9407 21.0454 22.0775 20.9896ZM18.2453 21.7296C18.3635 21.8464 18.3946 21.9645 18.3946 22.0762C18.3946 22.2501 18.3141 22.4357 18.3141 22.6292C18.3121 22.6967 18.3235 22.764 18.3479 22.8271C18.3722 22.8902 18.409 22.9477 18.4559 22.9963C18.5029 23.045 18.5591 23.0837 18.6212 23.1103C18.6834 23.1369 18.7502 23.1507 18.8178 23.151C18.8902 23.1516 18.962 23.1376 19.0289 23.1099C19.0958 23.0822 19.1565 23.0413 19.2073 22.9898C19.2582 22.9382 19.2981 22.877 19.3249 22.8097C19.3516 22.7424 19.3646 22.6704 19.363 22.598C19.3695 22.1631 18.9217 21.7283 18.2518 21.7283L18.2453 21.7296ZM18.5257 20.3626C19.0593 20.4366 19.1904 20.617 19.1904 20.765C19.1904 21.0208 18.9606 21.1013 18.736 21.1013C18.5751 21.1013 18.3881 21.0636 18.1908 21.0636C17.9351 21.0636 17.6807 21.1194 17.4691 21.3622C17.6183 21.3933 17.8416 21.492 17.8416 21.7218C17.8416 22.3929 15.9788 21.8399 15.9788 23.5599C15.9788 24.479 16.929 25.4734 18.37 25.4669C19.1099 25.4669 19.5876 25.2241 19.5876 24.945C19.5876 24.7283 19.1956 24.8762 19.1956 24.6906C19.1956 24.6101 19.3332 24.4608 19.3332 24.331C19.3332 24.2752 19.2891 24.1688 19.1956 24.1688C18.9853 24.1688 18.5933 24.5037 17.7936 24.5102C17.1653 24.5102 16.5565 24.1506 16.5565 23.6664C16.5565 23.5599 16.6006 23.5041 16.6746 23.5041C16.7434 23.5041 16.8369 23.5482 16.9109 23.5482C16.9797 23.5482 16.9913 23.5041 16.9913 23.3743C16.9913 23.2445 16.9913 22.8901 17.2094 22.8901C17.4275 22.8901 17.8481 23.7027 19.4513 23.7027C19.9784 23.7027 21.0091 23.5989 21.3946 23.2497C21.3817 24.5218 20.3886 26.199 18.3025 26.199C16.1411 26.199 14.9792 24.4608 14.9792 22.8654C14.9868 21.9632 15.3518 21.1009 15.9942 20.4674C16.6367 19.834 17.5041 19.4812 18.4063 19.4864C18.9165 19.4864 19.3384 19.6668 19.3384 19.8784C19.3384 20.2003 18.5816 20.0082 18.5257 20.3626ZM19.7849 19.7538C19.9266 19.9169 20.0021 20.1271 19.9965 20.3431C19.9965 20.8403 19.6188 21.3492 19.6188 21.8334C19.6188 22.4864 20.0472 22.8901 20.6365 22.8901C21.283 22.8901 21.6556 22.3436 21.6556 21.7529C21.6556 20.8961 21.0026 19.99 19.7862 19.7538H19.7849ZM20.6677 21.5855C20.5067 21.5725 20.3886 21.4556 20.3886 21.2934C20.3886 21.2064 20.4444 21.0636 20.4626 20.952C20.4885 20.7962 20.4496 20.6599 20.5431 20.6599C20.7547 20.6599 20.9714 20.9961 20.9714 21.2376C20.9714 21.4245 20.8546 21.5855 20.6677 21.5855ZM11.0407 7.15405C10.4513 7.16703 9.9048 7.65123 9.53224 8.30939C9.55678 8.17839 9.56938 8.04543 9.56988 7.91216C9.56988 7.01125 9.08568 6.19862 8.17179 6.19862C7.43315 6.19862 6.76201 6.627 6.48421 7.45781C6.6257 7.32296 6.80877 7.24012 7.00346 7.22285C7.23453 7.22285 7.30203 7.42146 7.30203 7.73172C7.30203 7.94202 7.2527 8.18477 7.17222 8.41454C7.02942 8.7936 6.77499 8.91173 6.63868 8.91173C6.06101 8.91173 6.32194 7.96149 6.02856 7.96149C5.78711 7.96149 5.7196 8.47036 5.7196 8.66897C5.7196 9.32713 6.14799 10.0229 7.09823 10.0229C8.10428 10.0229 8.67546 9.54522 9.28948 8.89874C9.40762 9.59455 9.78667 10.7862 10.8057 10.7862C11.3574 10.7862 11.7547 10.3267 11.7988 9.79316C11.7206 9.87004 11.6163 9.91455 11.5067 9.91778C11.2951 9.91778 11.2523 9.61921 11.2523 9.3518C11.2523 8.92341 11.3769 8.46387 11.5755 8.46387C11.6807 8.46387 11.7365 8.53267 11.7611 8.84292C11.7806 9.08568 11.7611 9.3518 11.9104 9.3518C12.0597 9.3518 12.1532 8.87408 12.1532 8.55084C12.1532 7.80571 11.8053 7.15405 11.0407 7.15405ZM7.61359 9.38944C7.51363 9.38944 7.48897 9.29597 7.48377 9.21549C7.48377 8.76114 7.97966 6.73734 8.34054 6.73734C8.42622 6.73734 8.45738 6.80614 8.45738 6.89961C8.45738 7.25919 8.00433 9.38944 7.61359 9.38944ZM9.15318 8.52618C8.85461 8.8611 8.69364 8.9987 8.56382 8.9987C8.49502 9.00389 8.42622 8.88706 8.42622 8.74946C8.42622 8.50151 8.60017 7.57594 8.94807 7.57594C9.08568 7.57594 9.17785 7.83038 9.17785 8.06015C9.17785 8.2341 9.17785 8.37559 9.15318 8.52618ZM9.82951 9.32713C9.71268 9.33362 9.65037 9.1415 9.6257 8.72479C9.81134 8.41454 9.93596 8.27823 10.0541 8.27823C10.1034 8.27823 10.1476 8.32107 10.1476 8.51969V8.52618H10.1527C10.1527 8.9299 9.96062 9.33362 9.82951 9.32713ZM10.4513 10.0281C10.3773 10.0281 10.3215 9.92427 10.3267 9.68152C10.3267 9.05452 10.7304 7.91086 10.9732 7.91086C11.0407 7.91086 11.0666 8.07313 11.0666 8.22241C11.0666 8.91692 10.7421 10.0281 10.4513 10.0281ZM8.87408 10.2709C8.37689 10.2709 8.35223 10.8732 8.35223 12.0909C7.97966 11.2899 7.37083 10.4396 6.65167 10.4396C6.16616 10.4396 5.98053 10.7616 5.98053 11.3276C5.98053 11.4444 5.99351 11.6261 6.01168 11.717C6.0675 11.5197 6.25314 11.4392 6.48291 11.4392C6.98009 11.4392 7.58243 11.8235 7.97966 12.3388C7.52531 12.2583 7.08524 12.1778 6.71917 12.1778C6.4894 12.1778 6.2778 12.2025 6.10385 12.283C5.76893 12.4323 5.31588 12.9295 5.31588 13.6811C5.31588 13.7979 5.32886 13.9161 5.34704 14.0588C5.74946 13.1592 6.82432 12.749 7.52012 12.749C7.65643 12.749 7.75638 12.762 7.84985 12.775C7.48897 13.0969 7.40848 13.6616 7.38252 14.0472C7.37083 14.2328 7.30333 14.2458 7.17222 14.2393C7.17222 14.6248 7.47079 15.1895 7.47079 15.4751C7.47079 15.5803 7.41497 15.6737 7.35266 15.6932C7.35266 16.1956 7.85504 16.5682 7.85504 16.8914C7.8576 16.9578 7.83796 17.0231 7.79922 17.077C7.83687 17.2821 8.39637 17.643 8.46387 17.8105C8.55084 18.0156 8.65599 18.0649 8.7183 18.0649C8.91692 18.0649 9.22717 17.8351 9.22717 17.6235C9.22717 17.556 9.17135 17.4743 9.12332 17.4379C8.90524 17.2756 8.78581 16.929 8.69494 16.698C8.61315 16.698 8.50801 16.6681 8.47036 16.5305C8.40805 16.2891 8.40156 15.8477 8.30809 15.5803C8.1601 15.5439 8.0913 15.4881 8.0913 15.1778C8.0913 15.0286 8.18477 14.4379 8.18477 14.2276C8.11597 14.2276 8.0225 14.1835 8.0225 14.0407C8.0225 13.6681 8.39507 13.3825 8.49502 12.9048C9.15318 13.3955 9.30896 13.8849 9.30896 14.3263C9.30896 14.556 9.27131 14.7806 9.22847 14.9844C9.71268 14.743 10.4448 14.3821 10.4448 13.6551C10.4448 13.2267 10.2462 12.7555 8.94288 12.5686C9.37403 12.4181 9.82721 12.3405 10.2839 12.3388C11.0225 12.3388 11.4574 12.5751 11.5431 13.0969C11.6936 12.8672 11.8118 12.5997 11.8118 12.357C11.8118 11.7923 11.3392 11.4197 10.7369 11.4197C10.0294 11.4197 9.40762 11.7923 8.73778 12.2337C9.04154 11.6067 9.24665 11.2406 9.61921 11.2406C9.67503 11.2406 9.73604 11.2536 9.79965 11.2653C9.67503 10.7681 9.14669 10.2657 8.87408 10.2709ZM28.3721 18.6114C28.9511 18.6114 29.4106 19.3695 29.4106 20.2445C29.4106 21.1817 28.9693 22.2008 28.1865 22.9018C28.1735 21.344 26.2614 21.8399 26.2614 20.704C26.2614 20.2198 26.6093 19.8966 27.026 19.8966C27.3985 19.8966 27.6776 20.0017 27.9009 20.2081C27.8014 20.1125 27.7225 19.9976 27.6691 19.8703C27.6158 19.743 27.5891 19.6062 27.5907 19.4682C27.5842 19.0138 27.862 18.6114 28.3721 18.6114ZM19.7849 6.77499C19.6915 6.6257 19.3436 6.54522 19.1826 6.54522C18.6737 6.54522 18.3258 6.9048 18.257 7.22804C18.2078 7.10344 18.1805 6.97122 18.1765 6.8373C18.1765 6.32843 18.5244 5.70013 19.3682 5.70013C20.1082 5.70013 20.3938 6.08568 20.4989 6.08568C20.6158 6.08568 20.7287 5.96884 20.8222 5.96884C20.9455 5.96884 20.952 6.15967 20.952 6.30247C20.952 6.76201 20.7417 7.56296 20.2198 7.86153C20.0985 7.61485 19.8939 7.41898 19.6421 7.30852C19.6075 7.29443 19.5778 7.27039 19.5567 7.23943C19.5357 7.20848 19.5243 7.17199 19.524 7.13457C19.5343 7.05789 19.5634 6.98495 19.6087 6.92222C19.654 6.8595 19.7154 6.80892 19.7849 6.77499ZM18.0402 7.61878C18.3388 7.91735 18.6049 8.03548 18.9282 8.03548C19.058 8.03548 19.2073 7.99784 19.2878 7.99784C19.3929 7.99784 19.4682 8.04197 19.4682 8.12765C19.4682 8.25876 19.3501 8.46517 19.2138 8.582C19.3501 8.64431 19.5123 8.65599 19.6603 8.66248C20.3185 8.66248 21.0701 8.24708 21.0701 7.20337C21.2064 7.38382 21.2934 7.76806 21.2934 7.94331C21.2934 9.20251 20.3691 9.68801 19.511 9.68801C18.9528 9.68801 18.6802 9.50108 18.6049 9.50108C18.3881 9.50108 18.3998 9.94245 18.2453 9.92947C17.9779 9.88663 17.7352 9.29597 17.7352 8.67027C17.7352 8.29641 17.8351 7.89269 18.0467 7.6071H18.0402V7.61878ZM8.13544 0.262224C8.13544 0.193423 7.78754 0.12592 7.31501 0.12592C6.56339 0.12592 6.66984 0.752921 6.09217 0.74643C5.48983 0.74643 5.63782 0.101255 4.87451 0.101255C4.40848 0.101255 3.98659 0.181739 3.98659 0.286889C3.98659 0.416703 4.5331 0.362181 4.5331 0.74643C4.5331 1.15015 3.36478 1.26828 3.36478 1.50974C3.36478 1.58503 3.45305 1.62787 3.56988 1.62787C3.82562 1.62787 4.22934 1.51103 4.52012 1.51103C4.68239 1.51103 4.83167 1.54089 4.83167 1.69667C4.83167 1.98875 4.20338 2.50411 4.20338 2.74037C4.20338 2.81437 4.26569 2.82735 4.32151 2.83254C4.55128 2.83254 4.94851 2.24318 5.31588 2.24318C5.9299 2.24318 5.52099 3.54781 5.8611 3.55431C6.2103 3.55431 6.06101 2.26915 6.5569 2.26915C6.96062 2.26915 7.27088 3.15578 7.53829 3.15578C7.6071 3.15578 7.66292 3.09996 7.66292 3.01947C7.66292 2.77672 7.31501 2.27953 7.31501 1.95759C7.31501 1.75898 7.45132 1.66551 7.63825 1.66551C7.90567 1.66551 8.25876 1.82648 8.45218 1.82648C8.51969 1.82648 8.58849 1.80182 8.58849 1.72263C8.58849 1.44223 7.55777 1.14366 7.55777 0.784076C7.57075 0.429684 8.14193 0.429684 8.13544 0.262224ZM10.855 1.44223C10.855 1.64734 11.582 2.0939 11.9234 2.10039C12.122 2.10039 12.1778 1.83297 12.1778 1.55387C12.1778 1.20597 12.0286 1.19429 11.7235 1.19429C11.3392 1.19948 10.8537 1.30593 10.8537 1.44093L10.855 1.44223ZM12.0597 3.73345C12.0597 3.03765 10.1839 1.77715 10.1592 1.23713C10.1592 1.1878 10.1852 1.13717 10.228 1.09433C10.55 0.752921 11.8845 0.508871 11.8845 0.216789C11.8845 0.0675032 11.6054 0.0675032 11.4691 0.0675032C10.3942 0.0675032 8.81696 0.459541 8.81696 0.845089C8.81696 1.24232 10.2267 2.19256 10.2267 2.67027C10.2267 2.80009 10.1463 2.84422 10.0151 2.85071C9.6244 2.85071 8.76763 2.37819 8.36391 2.37819C8.17698 2.37819 8.10818 2.50281 8.10818 2.68974C8.10818 3.23496 8.76114 4.29165 8.76114 4.6019C8.76114 4.63825 8.74816 4.68239 8.70532 4.68239C8.49373 4.68239 7.51233 3.52704 7.16443 3.52704C7.04111 3.52704 7.02813 3.70099 7.02813 3.95543V4.34747C7.02813 4.61359 7.01514 4.77585 6.89182 4.77585C6.59325 4.77585 6.45045 3.93077 6.16486 3.93077C5.86629 3.93077 5.80528 5.43401 5.51969 5.42752C5.18347 5.42752 5.47555 3.77499 5.14712 3.77499C4.78624 3.77499 4.38252 4.87451 4.12808 4.87451C4.03462 4.87451 4.01125 4.78105 4.01125 4.70056C4.01125 4.36564 4.20857 3.81783 4.20857 3.49589C4.20857 3.33492 4.16573 3.24145 4.02293 3.24145C3.66205 3.24145 2.87408 3.81913 2.57551 3.81913C2.53267 3.81913 2.47036 3.79316 2.47036 3.75032C2.47036 3.47122 3.72955 2.59498 3.72955 2.19775C3.72955 1.8135 1.99264 2.06794 1.99264 1.63306C1.99264 1.26049 3.22847 0.881437 3.22847 0.497187C3.22847 0.160969 1.75638 0.0129814 1.19039 0.0129814C0.508871 0.0129814 0.136305 0.093466 0.136305 0.292081C0.136305 0.590653 1.69407 0.689312 1.69407 0.943747C1.69407 1.19818 0.0882735 1.8823 0.0882735 2.27304C0.0882735 2.61445 2.35483 2.3042 2.35483 2.65729C2.35353 3.05063 0.372566 4.75119 0.372566 5.31588C0.372566 5.44569 0.459541 5.49632 0.595846 5.50151C1.19818 5.50151 2.75725 4.35915 3.18563 4.35915C3.33492 4.35915 3.3466 4.53959 3.3466 4.70056C3.3466 5.00562 3.24145 5.46517 3.24145 5.80009C3.24145 6.0675 3.31545 6.24665 3.54003 6.25443C3.96841 6.25443 4.35915 5.52748 4.65123 5.52748C5.0238 5.52748 4.80052 7.66292 5.36521 7.66941C5.83643 7.66941 6.03635 5.35353 6.33362 5.35353C6.6309 5.35353 6.88014 6.01688 7.14756 6.01688C7.49546 6.01688 7.33319 4.84985 7.70575 4.84985C8.10948 4.84985 9.26482 6.24665 9.78018 6.24145C9.94115 6.24145 9.99827 6.11164 9.99827 5.94937C9.99827 5.33405 9.1415 3.95024 9.1415 3.50887C9.1415 3.39074 9.17135 3.35958 9.30247 3.35958C9.75552 3.35958 11.0653 3.98009 11.6936 3.98009C11.9286 4.00606 12.0532 3.88923 12.0597 3.73345ZM1.49026 3.06231C1.49026 3.29208 0.607529 4.06837 0.298572 4.06837C0.180441 4.06837 0.149286 3.93206 0.149286 3.80225C0.149286 3.57248 0.254435 3.24924 0.379057 3.14409C0.528343 3.00649 0.874946 2.93899 1.14236 2.93899C1.31112 2.93899 1.49026 2.97014 1.49026 3.06231ZM9.99827 4.2553C9.99827 4.65253 11.4522 6.64647 11.7183 6.63998C11.9481 6.63998 12.1207 6.23626 12.1207 5.88836C12.122 5.79896 12.0987 5.71093 12.0532 5.63392C11.8416 5.34184 10.376 4.1865 10.0541 4.1865C10.0229 4.18131 9.99178 4.21246 9.99827 4.2553ZM29.9377 0.22328C29.36 0.22328 29.2614 0.0441367 28.8693 0.0441367C28.3981 0.0441367 28.0619 0.366075 28.0619 0.850281C28.0619 1.01255 28.119 1.26569 28.119 1.6032C28.119 2.01212 28.0372 2.39117 27.6776 2.39117C27.3479 2.39117 27.2181 2.17309 27.2181 1.91865C27.2181 1.45911 27.4608 1.14885 27.4608 0.845089C27.4608 0.292081 26.7767 0.131112 26.0627 0.131112C25.206 0.131112 24.2804 0.360883 24.2804 0.477715C24.2804 0.676331 25.5162 0.559498 26.386 1.67071C25.8213 1.68369 24.7218 1.93812 24.7218 2.08611C24.7218 2.27304 26.6897 2.48464 26.6897 3.30376C26.6962 3.84379 26.2614 3.90091 26.0939 3.9061C25.4422 3.9061 25.0943 3.24145 24.9204 3.24145C24.908 3.24109 24.8957 3.24327 24.8842 3.24784C24.8727 3.25241 24.8622 3.25928 24.8535 3.26803C24.8447 3.27678 24.8379 3.28723 24.8333 3.29873C24.8287 3.31023 24.8266 3.32255 24.8269 3.33492C24.8269 3.44007 24.9204 3.71398 24.9204 4.00606C24.9204 4.7447 24.1013 4.82518 24.1013 4.97447C24.1013 5.03029 24.1259 5.05495 24.2181 5.06794C24.8122 5.15871 25.4124 5.20428 26.0134 5.20424C28.106 5.20424 29.8196 4.55128 29.8196 2.72609C29.8196 1.72003 29.5093 1.3968 29.5093 0.906101C29.5093 0.745132 29.6274 0.410212 29.9377 0.22328ZM26.9701 4.18001C26.8403 4.18001 26.6897 4.18001 26.5418 4.16703C27.8944 3.95154 28.646 3.16746 28.646 2.13804C28.9511 2.22501 29.1367 2.53527 29.1302 2.86499C29.1302 3.46603 28.5539 4.18001 26.9701 4.18001ZM28.8758 1.03202C28.7084 1.02553 28.5772 0.907399 28.5772 0.74643C28.5772 0.577672 28.7148 0.460839 28.8758 0.454349C28.9533 0.454349 29.0276 0.485121 29.0823 0.539897C29.1371 0.594673 29.1679 0.668965 29.1679 0.74643C29.1679 0.907399 29.0381 1.03851 28.8758 1.03202ZM29.6028 16.0658C29.0627 16.0658 28.746 17.016 28.2177 17.0718C28.5526 15.6815 29.9312 14.9675 29.9312 13.6694C29.9312 12.1973 28.6954 11.6833 28.18 11.3535C27.3167 10.1359 26.7027 9.17265 25.3176 9.17265C24.7283 9.17265 24.3557 9.2791 23.952 9.2791C23.1692 9.27261 22.9264 8.97404 22.8706 8.97404C22.8576 8.97404 22.846 8.98702 22.846 9.02986C22.846 10.1047 23.4119 12.5699 25.9018 12.5699C27.2311 12.5699 27.8022 12.061 28.1125 12.061C28.4474 12.061 29.5223 12.4271 29.5223 13.6577C29.5223 14.3392 28.9823 15.035 28.7823 15.035C28.5902 15.0415 28.3851 14.7313 28.3851 14.4016C28.3851 14.0355 28.5837 13.3643 28.5837 12.9489C28.5837 12.7932 28.5591 12.7192 28.4669 12.7192C28.2553 12.7192 27.2609 13.3397 27.2609 14.1406C27.2609 14.8247 28.267 15.2402 28.646 15.4388C28.267 16.0658 28.0372 16.4695 27.8516 17.0485C27.8516 16.6123 27.4362 15.7244 27.3051 15.3518C26.6651 13.6123 26.4418 13.2903 25.1242 13.1411C25.3241 13.8369 27.5907 15.5141 27.5907 17.2276C27.5907 17.3328 27.5777 17.482 27.5647 17.5392C26.8832 15.5387 25.7084 15.0792 25.28 14.5885C24.5855 13.8252 24.9814 13.0852 23.8702 12.6698C23.9362 12.7687 23.969 12.886 23.9637 13.0048C23.9637 13.3708 23.7534 13.8369 23.7534 14.1601C23.7534 15.3648 25.1683 15.0039 25.9888 15.6633C26.7962 16.315 27.2479 17.3769 27.5855 18.5569C27.9074 18.0415 28.093 17.4145 28.6707 17.4145C29.0433 17.4145 29.1679 17.8793 29.1679 18.2025C29.1679 18.2713 29.1679 18.3323 29.1549 18.3765C29.7079 17.9039 30 17.1406 30 16.6318C30 16.2903 29.8832 16.0658 29.6028 16.0658ZM27.4479 11.5275C27.331 11.5275 27.1064 11.4652 26.9572 11.4652C26.5599 11.4652 26.2808 12.0104 26.0744 12.0104C26.0004 12.0104 25.9706 11.9429 25.9706 11.8806C25.9706 11.6573 26.36 11.3899 26.36 11.2406C26.36 11.1367 26.1939 11.1043 26.1264 11.1043C25.7278 11.1043 25.1748 11.6443 24.8646 11.6443C24.8087 11.6443 24.7347 11.6132 24.7347 11.5405C24.7347 11.3899 25.1502 11.1796 25.1502 11.0173C25.1502 10.8745 24.9697 10.8434 24.8516 10.8434C24.6595 10.8434 24.2739 10.9498 24.0325 10.9498C23.9026 10.9498 23.7962 10.9238 23.7962 10.82C23.7962 10.5824 24.5478 10.7382 24.5478 10.4591C24.5478 10.3228 24.3116 10.0671 24.3116 9.93726C24.3116 9.88793 24.3739 9.85028 24.4297 9.85028C24.6971 9.85028 24.9762 10.5772 25.2865 10.5772C25.4241 10.5772 25.4604 10.4708 25.4604 10.3215C25.4604 10.1722 25.4293 10.0982 25.4293 9.96841C25.4293 9.83211 25.4851 9.79446 25.5292 9.79446C25.7213 9.79446 25.8953 10.8369 26.4301 10.8369C26.6651 10.8317 26.4976 10.1982 26.7092 10.1982C26.839 10.1982 26.8702 10.3838 26.8832 10.4903C26.939 11.1731 27.553 11.1977 27.553 11.4405C27.553 11.4652 27.5167 11.5275 27.4479 11.5275ZM21.4985 0.0739939C20.7222 0.0739939 20.1575 0.453051 19.8524 0.453051C19.6733 0.46733 19.3955 0 19.2527 0C19.1956 0 19.1333 0.116833 19.1333 0.311553C19.1333 0.441367 19.1333 0.84379 18.997 0.84379C18.7179 0.84379 17.6443 0.0493293 17.6443 0.33492C17.6443 0.602337 18.3583 1.41627 18.3583 1.62657C18.3583 1.83687 17.6495 2.03029 17.6495 2.17308C17.6495 2.42752 18.4076 2.47166 18.4076 2.80009C18.4076 3.12462 17.6183 3.37776 17.6183 3.61402C17.6183 3.80614 18.4076 3.67633 18.4076 3.91259C18.4076 4.15405 17.8299 4.96798 17.8299 5.19775C17.8299 5.26006 17.8429 5.26006 17.8923 5.26006C18.109 5.26655 18.775 4.50844 18.9295 4.50844C19.1151 4.50844 19.1527 4.955 19.1839 5.2289C19.2086 5.35872 19.2267 5.37819 19.2891 5.37819C19.4254 5.37819 19.6499 4.84336 19.7979 4.84336C20.016 4.84336 20.6119 5.45348 21.5933 5.45868C22.99 5.45868 24.3129 4.47728 24.3129 2.73907C24.3129 1.06188 23.1315 0.0739939 21.4985 0.0739939ZM19.5175 3.80614C19.4799 3.80614 19.4617 3.76331 19.4617 3.70229L19.437 3.24145C19.437 3.19862 19.4111 3.14799 19.3566 3.14799C19.2203 3.14799 18.9528 3.13501 18.8724 3.13501C18.8165 3.13501 18.7919 3.12332 18.7919 3.09866C18.8035 3.01168 19.2631 2.68325 19.2696 2.60796C19.2696 2.47815 18.8152 2.2354 18.8152 2.09909C18.8152 2.07313 18.8412 2.06145 18.8724 2.06145C19.0022 2.06145 19.2138 2.10558 19.3929 2.10558C19.5422 2.10558 19.5669 1.45911 19.6785 1.45911C19.7603 1.45911 19.9031 2.06794 20.0212 2.06794C20.1692 2.06794 20.4496 1.89399 20.5664 1.89399C20.5924 1.89399 20.6106 1.90697 20.6106 1.93163C20.6106 2.01212 20.3185 2.32237 20.3185 2.42233C20.3185 2.52748 20.9714 2.65729 20.9714 2.74427C20.9714 2.8624 20.3133 2.85071 20.3133 2.95586C20.3133 3.02986 20.5482 3.35309 20.5482 3.45824C20.5482 3.48421 20.5353 3.49719 20.5119 3.49719C20.4184 3.49719 20.0576 3.33492 19.9524 3.33492C19.8226 3.33492 19.6175 3.80614 19.5175 3.80614ZM21.5231 4.80571C20.7105 4.80571 20.1822 4.40329 20.1822 4.19169C20.1822 4.08654 20.251 4.01774 20.3431 4.01774C20.5989 4.01774 21.1571 4.40329 21.3375 4.40329C21.3804 4.40329 21.418 4.37733 21.418 4.30982C21.418 4.09823 21.2194 3.75681 21.2194 3.58286C21.2194 3.54003 21.257 3.50238 21.3245 3.50238C21.6361 3.50238 22.0943 3.63219 22.3501 3.63219C22.4306 3.63219 22.4539 3.58935 22.4539 3.54003C22.4539 3.28559 21.7036 2.7871 21.7036 2.63912C21.7036 2.50281 22.6408 2.29122 22.6408 2.07443C22.6408 1.84466 21.3687 2.00563 21.3687 1.78235C21.3687 1.62138 21.6101 1.34098 21.6101 1.21765C21.6101 1.16183 21.5673 1.13587 21.4868 1.13587C21.3804 1.13587 20.8286 1.35396 20.5911 1.35396C20.4743 1.35396 20.3379 1.328 20.3379 1.16703C20.3379 0.900909 20.791 0.615318 21.4985 0.615318C22.6409 0.615318 23.325 1.40329 23.325 2.7196C23.3185 4.39031 22.1566 4.80701 21.5231 4.80701V4.80571ZM13.6863 24.8269C13.6831 24.9506 13.6372 25.0694 13.5565 25.1631C13.4318 24.9334 13.0723 24.8152 12.91 24.8152C11.7183 24.8152 12.1714 26.5418 10.8979 26.5418C10.3643 26.5418 10.3215 26.473 10.1216 26.473C10.0411 26.473 9.99178 26.5106 9.99178 26.5781C9.99178 26.8767 10.4202 27.6166 11.6067 27.6218C12.7984 27.6218 13.9407 26.8948 13.9407 25.9887C13.9374 25.8258 13.9017 25.6652 13.8356 25.5162C13.8797 25.4487 13.9965 25.3994 14.103 25.3994C14.2886 25.3994 14.3821 25.6032 14.5625 25.6097C14.6053 25.611 14.6478 25.6035 14.6875 25.5876C14.7272 25.5718 14.7633 25.548 14.7935 25.5177C14.8236 25.4875 14.8473 25.4513 14.8629 25.4115C14.8786 25.3717 14.8859 25.3292 14.8845 25.2865C14.8845 25.1385 14.804 25.032 14.6677 24.9645C14.7166 24.9284 14.7565 24.8815 14.7844 24.8275C14.8123 24.7734 14.8274 24.7137 14.8286 24.653C14.8286 24.4543 14.6923 24.2752 14.4561 24.2752C14.3522 24.2752 14.2821 24.3116 14.2016 24.3868C14.177 24.1817 14.0653 23.9831 13.8421 23.9831C13.6681 23.9831 13.537 24.1064 13.537 24.3116C13.563 24.4738 13.6863 24.6231 13.6863 24.8269ZM9.96062 23.9896C9.88014 23.9896 9.77499 24.0026 9.66205 24.0026C9.53746 24.0069 9.41502 23.9694 9.31415 23.8961C9.12852 23.7339 9.0727 22.8654 8.72479 22.3436C8.34574 21.7659 7.93033 21.6036 7.35915 21.6036C6.95543 21.6036 6.50238 21.8217 6.50238 22.1514C6.50238 22.3501 6.61402 22.4864 7.34617 22.6785C8.27174 22.9148 8.74297 23.4054 8.82994 23.9948C8.92341 24.5608 9.03505 25.0203 9.25833 25.2553C9.55041 25.585 10.1216 25.8654 10.6071 25.8654C11.0225 25.8654 11.3574 25.7278 11.3574 25.3423C11.3574 24.9269 10.7927 23.9896 9.96062 23.9896ZM10.5759 25.2618C10.228 25.2618 9.70619 24.8892 9.70619 24.6841C9.70619 24.5102 9.86716 24.418 9.99827 24.418C10.2904 24.418 10.8109 24.7711 10.8109 25.0762C10.8057 25.1566 10.7499 25.2553 10.5759 25.2618ZM13.3449 20.1705C12.8113 19.9771 12.5751 19.6668 12.4699 19.058C12.209 19.4124 12.0844 19.7473 12.0844 19.9459C12.0844 20.7287 13.1592 20.7417 13.1592 21.2622C13.1527 21.5673 12.6127 21.8775 11.8987 21.884C11.0666 21.8775 10.5071 21.7477 9.98529 21.2259C9.84898 21.0766 9.78667 20.9455 9.61272 20.9455C9.41411 20.9455 9.33362 21.2934 9.33362 21.6049C9.33362 22.7408 10.4137 24.0818 11.9169 24.0818C13.7927 24.0753 14.5184 22.7836 14.5184 21.7412C14.5184 21.1324 14.3756 20.5547 13.3449 20.1705ZM12.7919 23.3379C12.6439 23.3379 12.6127 23.2432 12.6127 23.1134C12.6127 23.0082 12.6491 22.8096 12.6491 22.659C12.6491 22.2501 12.8048 22.2813 13.2021 22.1008H13.1956C13.476 21.971 13.5811 21.7971 13.6681 21.7971C13.7733 21.7971 13.8667 21.8659 13.8667 22.0268C13.8667 22.6292 13.2086 23.3379 12.7919 23.3379ZM9.51406 16.2514C9.51406 15.5115 11.2704 15.1155 11.2704 14.2016C11.2704 14.0537 11.2146 13.7862 11.1095 13.5876C11.7248 13.929 12.1778 14.4937 12.1778 14.9533C12.1778 15.7542 11.3457 16.1216 11.3457 16.6175C11.3457 17.1952 12.2337 17.2821 12.2337 18.0091C12.2337 18.5984 11.3899 19.2813 11.3899 20.0459C11.3899 20.643 11.8053 21.1259 12.4453 21.2012C12.2337 21.244 12.0532 21.2817 11.8546 21.2817C10.6863 21.2817 9.48291 20.3185 9.48291 19.1761C9.48291 18.6114 9.72436 18.1142 10.0969 17.7547C10.4202 18.0338 10.7499 18.2142 10.9602 18.2142C11.1471 18.2142 11.2276 18.1207 11.2276 17.9844C11.2146 17.5612 9.51926 17.1588 9.51406 16.2514ZM6.19732 21.1259C6.15318 20.7105 5.77542 20.399 5.38987 20.4496C5.24963 20.4641 5.11639 20.5181 5.00563 20.6054C4.89918 20.2575 4.57724 19.9589 4.12938 20.0277C3.93471 20.0572 3.75958 20.1624 3.64215 20.3205C3.52471 20.4785 3.47447 20.6766 3.50238 20.8715C3.51232 20.9506 3.5333 21.0279 3.56469 21.1013C3.56469 21.1013 3.49589 21.1142 3.44656 21.1194C3.11034 21.1817 2.73778 21.5231 2.80009 21.9645C2.85071 22.3617 3.21549 22.6603 3.63219 22.611C3.76776 22.6 3.89932 22.5597 4.01774 22.4929C4.05389 22.6732 4.15949 22.8321 4.31175 22.9354C4.46402 23.0386 4.65075 23.0778 4.83167 23.0446C5.26006 22.9887 5.54565 22.6551 5.50151 22.2254C5.49246 22.1334 5.4697 22.0433 5.43401 21.958L5.53267 21.945C5.94807 21.8646 6.23366 21.5283 6.19732 21.1259ZM4.57594 21.9957C4.51755 22.0043 4.45803 22.0011 4.4009 21.9863C4.34376 21.9715 4.29018 21.9454 4.24331 21.9095C4.19644 21.8737 4.15723 21.8288 4.12802 21.7775C4.09881 21.7262 4.08018 21.6696 4.07323 21.611C4.06629 21.5524 4.07117 21.493 4.08758 21.4363C4.104 21.3796 4.13162 21.3268 4.1688 21.2809C4.20599 21.2351 4.25199 21.1972 4.30409 21.1695C4.35618 21.1417 4.41331 21.1247 4.47209 21.1194C4.5296 21.1122 4.58798 21.1165 4.64384 21.132C4.69969 21.1475 4.7519 21.174 4.79744 21.2098C4.84297 21.2457 4.88092 21.2903 4.90909 21.3409C4.93725 21.3916 4.95506 21.4474 4.96149 21.505C4.96855 21.5625 4.96417 21.6209 4.9486 21.6768C4.93302 21.7326 4.90656 21.7849 4.87073 21.8305C4.8349 21.8761 4.79042 21.9142 4.73982 21.9425C4.68923 21.9708 4.63354 21.9889 4.57594 21.9957Z" fill="white"/>
</svg>
