<svg width="18" height="18" viewBox="0 0 18 18" fill="none" xmlns="http://www.w3.org/2000/svg">
<path d="M2.25 3.72748C2.25 2.49748 3.255 1.5 4.5 1.5H13.5C14.745 1.5 15.75 2.49748 15.75 3.72748V11.91C15.75 13.14 14.745 14.1375 13.5 14.1375H12.93C12.33 14.1375 11.76 14.37 11.34 14.79L10.0575 16.0575C9.47248 16.635 8.52001 16.635 7.93501 16.0575L6.6525 14.79C6.2325 14.37 5.655 14.1375 5.0625 14.1375H4.5C3.255 14.1375 2.25 13.14 2.25 11.91V6.77252" stroke="#292D32" stroke-width="1.5" stroke-miterlimit="10" stroke-linecap="round" stroke-linejoin="round"/>
<path d="M8.99947 7.49986C9.96458 7.49986 10.747 6.71747 10.747 5.75235C10.747 4.78723 9.96458 4.00488 8.99947 4.00488C8.03435 4.00488 7.25195 4.78723 7.25195 5.75235C7.25195 6.71747 8.03435 7.49986 8.99947 7.49986Z" stroke="#292D32" stroke-width="1.5" stroke-linecap="round" stroke-linejoin="round"/>
<path d="M12 11.7448C12 10.3948 10.6575 9.2998 9 9.2998C7.3425 9.2998 6 10.3948 6 11.7448" stroke="#292D32" stroke-width="1.5" stroke-linecap="round" stroke-linejoin="round"/>
</svg>
