<svg width="32" height="33" viewBox="0 0 32 33" fill="none" xmlns="http://www.w3.org/2000/svg">
<path d="M2.66602 10.4922C2.66602 6.27891 4.06602 4.87891 8.27935 4.87891H16.706C20.9193 4.87891 22.3193 6.27891 22.3193 10.4922V21.7189C22.3193 25.9322 20.9193 27.3322 16.706 27.3322H8.27935C4.06602 27.3322 2.66602 24.5322 2.66602 21.7189V16.2656" stroke="#292D32" stroke-width="2.5" stroke-linecap="round" stroke-linejoin="round"/>
<path d="M26.027 22.9056L22.3203 20.3056V11.8923L26.027 9.29231C27.8403 8.02564 29.3336 8.79898 29.3336 11.0256V21.1856C29.3336 23.4123 27.8403 24.1856 26.027 22.9056Z" stroke="#292D32" stroke-width="2.5" stroke-linecap="round" stroke-linejoin="round"/>
<path d="M17.334 12.772C17.334 11.6653 16.4407 10.772 15.334 10.772C14.2273 10.772 13.334 11.6653 13.334 12.772C13.334 13.8786 14.2273 14.772 15.334 14.772" stroke="#292D32" stroke-width="2.5" stroke-linecap="round" stroke-linejoin="round"/>
</svg>
