<svg width="20" height="21" viewBox="0 0 20 21" fill="none" xmlns="http://www.w3.org/2000/svg">
<path fill-rule="evenodd" clip-rule="evenodd" d="M1.08594 9.66667C1.08594 5.43247 4.5184 2 8.7526 2C12.1268 2 14.9917 4.17963 16.0164 7.20787C15.2493 6.91213 14.4157 6.75 13.5443 6.75C12.5202 6.75 11.5484 6.9739 10.6752 7.37542C10.5099 7.22823 10.2927 7.1389 10.0547 7.1389C9.53694 7.1389 9.11719 7.56177 9.11719 8.08335C9.11719 8.17101 9.12904 8.25587 9.15122 8.33641C7.63473 9.5975 6.66927 11.4985 6.66927 13.625C6.66927 14.9599 7.04973 16.206 7.70814 17.2606C7.26266 17.1991 6.81298 17.1014 6.35969 16.9688L3.73493 18.0962C3.39897 18.2405 3.01104 18.1899 2.72329 17.9643C2.43555 17.7388 2.29386 17.3741 2.35382 17.0134L2.77663 14.4697C1.71955 13.1558 1.08594 11.4843 1.08594 9.66667ZM16.4094 9.27485C16.4136 9.3591 16.4165 9.4437 16.418 9.52864C16.4278 10.0808 15.9881 10.5364 15.4359 10.5462C14.917 10.5554 14.4835 10.1677 14.4249 9.66274L10.8359 10.0833L10.137 15.2386C10.5526 15.2949 10.904 15.6109 10.9855 16.0457C11.0872 16.5885 10.7296 17.111 10.1867 17.2127C10.0666 17.2352 9.94603 17.2547 9.82504 17.2711C8.90392 16.3316 8.33594 15.0446 8.33594 13.625C8.33594 10.7485 10.6678 8.41667 13.5443 8.41667C14.6027 8.41667 15.5875 8.73241 16.4094 9.27485ZM6.30469 9.02781C6.82244 9.02781 7.24219 8.60498 7.24219 8.08335C7.24219 7.56177 6.82244 7.1389 6.30469 7.1389C5.78694 7.1389 5.36719 7.56177 5.36719 8.08335C5.36719 8.60498 5.78694 9.02781 6.30469 9.02781Z" fill="#7E94B4"/>
<mask id="path-2-inside-1_6764_47591" fill="white">
<path fill-rule="evenodd" clip-rule="evenodd" d="M17.4987 15.4922L17.9144 18.0035L16.1484 17.1407"/>
</mask>
<path fill-rule="evenodd" clip-rule="evenodd" d="M17.4987 15.4922L17.9144 18.0035L16.1484 17.1407" fill="#7E94B4"/>
<path d="M17.9144 18.0035L17.6949 18.4528L18.566 18.8784L18.4076 17.9219L17.9144 18.0035ZM17.0054 15.5738L17.4211 18.0852L18.4076 17.9219L17.992 15.4105L17.0054 15.5738ZM18.1338 17.5543L16.3679 16.6915L15.9289 17.59L17.6949 18.4528L18.1338 17.5543Z" fill="#7E94B4" mask="url(#path-2-inside-1_6764_47591)"/>
<path d="M17.4987 15.4922L17.9144 18.0035L16.1484 17.1407" stroke="#7E94B4" stroke-width="2" stroke-linecap="round" stroke-linejoin="round"/>
<path fill-rule="evenodd" clip-rule="evenodd" d="M16.6815 16.4898C16.7331 16.532 16.7803 16.5812 16.8219 16.6371C17.0967 17.0064 17.0201 17.5284 16.6508 17.8032C15.7835 18.4485 14.7073 18.8307 13.5443 18.8307C10.6678 18.8307 8.33594 16.4989 8.33594 13.6224C8.33594 10.7459 10.6678 8.41406 13.5443 8.41406C16.4208 8.41406 18.7526 10.7459 18.7526 13.6224C18.7526 14.4144 18.5753 15.1673 18.2573 15.8415C18.061 16.2578 17.5644 16.4361 17.1482 16.2398C17.0849 16.21 17.0272 16.1732 16.9754 16.1309L16.6815 16.4898ZM14.8724 13.3307C14.4841 13.3307 14.1693 13.0136 14.1693 12.6224C14.1693 12.2311 14.4841 11.914 14.8724 11.914C15.2607 11.914 15.5755 12.2311 15.5755 12.6224C15.5755 13.0136 15.2607 13.3307 14.8724 13.3307ZM11.3568 12.6224C11.3568 13.0136 11.6716 13.3307 12.0599 13.3307C12.4482 13.3307 12.763 13.0136 12.763 12.6224C12.763 12.2311 12.4482 11.914 12.0599 11.914C11.6716 11.914 11.3568 12.2311 11.3568 12.6224Z" fill="#7E94B4"/>
</svg>
