<svg width="32" height="43" viewBox="0 0 32 43" fill="none" xmlns="http://www.w3.org/2000/svg">
<path d="M0.529914 38.1538V4.23932C0.529914 2.19067 2.19067 0.529914 4.23931 0.529914H18.9709C19.9234 0.529914 20.8394 0.89631 21.5292 1.5532L30.1138 9.72902C30.8489 10.4291 31.265 11.4 31.265 12.4151V38.1538C31.265 40.2025 29.6042 41.8632 27.5556 41.8632H4.23932C2.19067 41.8632 0.529914 40.2025 0.529914 38.1538Z" fill="white" stroke="#E5E9EB" stroke-width="1.05983"/>
<path d="M11.25 31.1818L12.642 33.4574H12.6875L14.0795 31.1818H15.0966L13.2841 34.0909L15.108 37H14.0852L12.6875 34.7557H12.642L11.2443 37H10.2216L12.0767 34.0909L10.233 31.1818H11.25ZM16.5886 31.1818V37H15.7391V31.1818H16.5886ZM20.8412 33.7017L20.0713 33.8381C20.0391 33.7396 19.988 33.6458 19.9179 33.5568C19.8497 33.4678 19.7569 33.3949 19.6395 33.3381C19.5221 33.2812 19.3753 33.2528 19.1992 33.2528C18.9586 33.2528 18.7579 33.3068 18.5969 33.4148C18.4359 33.5208 18.3554 33.6581 18.3554 33.8267C18.3554 33.9725 18.4094 34.09 18.5174 34.179C18.6253 34.268 18.7996 34.3409 19.0401 34.3977L19.7333 34.5568C20.1348 34.6496 20.434 34.7926 20.631 34.9858C20.828 35.179 20.9264 35.4299 20.9264 35.7386C20.9264 36 20.8507 36.233 20.6992 36.4375C20.5496 36.6402 20.3403 36.7992 20.0713 36.9148C19.8043 37.0303 19.4946 37.0881 19.1424 37.0881C18.6537 37.0881 18.255 36.9839 17.9463 36.7756C17.6376 36.5653 17.4482 36.267 17.3782 35.8807L18.1992 35.7557C18.2503 35.9697 18.3554 36.1316 18.5145 36.2415C18.6736 36.3494 18.881 36.4034 19.1367 36.4034C19.4151 36.4034 19.6376 36.3456 19.8043 36.2301C19.971 36.1127 20.0543 35.9697 20.0543 35.8011C20.0543 35.6648 20.0032 35.5502 19.9009 35.4574C19.8005 35.3646 19.6461 35.2945 19.4378 35.2472L18.6992 35.0852C18.292 34.9924 17.9908 34.8447 17.7958 34.642C17.6026 34.4394 17.506 34.1828 17.506 33.8722C17.506 33.6146 17.578 33.3892 17.7219 33.196C17.8658 33.0028 18.0647 32.8523 18.3185 32.7443C18.5723 32.6345 18.863 32.5795 19.1907 32.5795C19.6622 32.5795 20.0335 32.6818 20.3043 32.8864C20.5751 33.089 20.7541 33.3608 20.8412 33.7017Z" fill="#0C7539"/>
<path fill-rule="evenodd" clip-rule="evenodd" d="M9.92969 10.7526C9.92969 10.2443 10.1316 9.75676 10.4911 9.39732C10.8505 9.03787 11.338 8.83594 11.8464 8.83594H16.2413C16.7496 8.83605 17.237 9.03805 17.5964 9.39752L20.8681 12.6693C21.2276 13.0286 21.4296 13.5161 21.4297 14.0244V22.2526C21.4297 22.7609 21.2278 23.2484 20.8683 23.6079C20.5089 23.9673 20.0214 24.1693 19.513 24.1693H11.8464C11.338 24.1693 10.8505 23.9673 10.4911 23.6079C10.1316 23.2484 9.92969 22.7609 9.92969 22.2526V10.7526ZM11.8464 16.5026C11.8464 16.2484 11.9473 16.0047 12.127 15.825C12.3068 15.6452 12.5505 15.5443 12.8047 15.5443H18.5547C18.8089 15.5443 19.0526 15.6452 19.2323 15.825C19.4121 16.0047 19.513 16.2484 19.513 16.5026C19.513 16.7568 19.4121 17.0005 19.2323 17.1802C19.0526 17.36 18.8089 17.4609 18.5547 17.4609H12.8047C12.5505 17.4609 12.3068 17.36 12.127 17.1802C11.9473 17.0005 11.8464 16.7568 11.8464 16.5026ZM12.8047 19.3776C12.5505 19.3776 12.3068 19.4786 12.127 19.6583C11.9473 19.838 11.8464 20.0818 11.8464 20.3359C11.8464 20.5901 11.9473 20.8339 12.127 21.0136C12.3068 21.1933 12.5505 21.2943 12.8047 21.2943H18.5547C18.8089 21.2943 19.0526 21.1933 19.2323 21.0136C19.4121 20.8339 19.513 20.5901 19.513 20.3359C19.513 20.0818 19.4121 19.838 19.2323 19.6583C19.0526 19.4786 18.8089 19.3776 18.5547 19.3776H12.8047Z" fill="#36A064"/>
</svg>
