<?xml version="1.0" encoding="UTF-8"?><svg id="Layer_2" xmlns="http://www.w3.org/2000/svg" viewBox="0 0 2649.64 704"><defs><style>.cls-1{fill:#458ffd;}</style></defs><g id="Layer_1-2"><g><path class="cls-1" d="M704.81,244.65c0,42.6,.03,85.21,0,127.81-.03,42.55-9.33,83.22-25.33,122.43-20.25,49.64-51.22,91.82-91.54,126.82-47.59,41.31-102.7,67.47-164.97,78.29-16.92,2.94-33.89,4.26-51.04,3.94-12.58-.23-25.18-.27-37.76,0-46.36,.97-90.21-9.79-132.4-28.19-34.33-14.97-65.02-35.47-92.55-60.89-52.59-48.57-86.46-107.86-102.07-177.57C2.51,416.5-.48,395.42,.06,373.96c.36-14.19,.19-28.4,.05-42.6-.38-37.59,7.16-73.78,19.9-108.91,19.77-54.54,51.96-100.87,95.54-138.93C167.99,37.72,228.92,10.22,298.28,1.74c9.66-1.18,19.27-1.63,28.95-1.63,90.05,0,180.1-.32,270.15,.14,41.37,.21,71.62,20.76,92.7,55.4,10.81,17.77,15.11,37.34,14.88,58.29-.47,43.57-.14,87.14-.14,130.72Zm-128.77,24.89c-22.23-72.12-109.55-163.33-242.9-150.38-120.39,11.7-212.39,116.48-209.43,239.12,2.78,115.16,91.62,220.05,220.24,228.23,119.64,7.61,207.43-74.71,231.91-150.32-3.55,1.29-5.45,3.93-7.66,6.07-36.73,35.48-92.3,44.88-138.28,22.96-6.72-3.2-12.2-3.56-19.09-.27-27.9,13.35-57.03,15.55-86.77,7.18-53.65-15.09-91.09-65.87-90.33-119.31,.5-35.27,12.44-65.35,37.33-89.48,37.02-35.89,90.44-47.19,140.57-23.17,6.16,2.95,11.09,3.07,17.14-.07,17.21-8.94,35.87-13.45,55.1-12.64,29.81,1.25,56.9,10.8,79.59,30.98,3.99,3.55,8,7.07,12.58,11.1Zm-93.54,145.5c31.91,1.78,63.12-25.9,62.82-62.55-.32-38.55-30.49-63.64-63.37-63.41-35.15,.25-63.48,28.31-63.34,63.52,.13,33,26.88,63.96,63.88,62.44Z"/><path class="cls-1" d="M2473.31,425.91c3.33-9.12,6.52-17.52,9.48-26.01,22.59-64.9,45.13-129.82,67.7-194.72,1.91-5.48,3.89-10.94,5.95-16.37,3.06-8.08,3.4-8.42,11.83-8.49,14.84-.12,29.69-.05,44.53-.04,9.36,0,18.72-.14,28.07,.09,7.29,.18,8.26,1.31,8.68,8.52,.15,2.57,.06,5.16,.06,7.74,0,104.22,0,208.45,0,312.67q0,16.07-15.83,16.09c-13.87,0-27.75,.09-41.62-.04-9.51-.09-10.53-1.03-10.47-10.71,.14-22.89,.67-45.78,1.15-68.67,1.07-50.96,.61-101.96,.77-152.94,0-1.9,0-3.81,0-6.44-3.22,1.27-3.25,3.68-3.91,5.55-20.2,57.88-40.36,115.76-60.53,173.65-5.52,15.84-11,31.7-16.55,47.53-4.16,11.88-4.41,12.04-17.35,12.07-9.36,.03-18.72,.06-28.07-.01-10.31-.08-10.75-.36-14.01-9.67-9.61-27.4-19.19-54.81-28.74-82.23-16.35-46.92-32.66-93.85-49.03-140.76-.72-2.07-.9-4.46-2.94-5.99-2.54,1.01-1.53,3.27-1.52,4.92,.05,32.59-.81,65.22,.58,97.76,1.74,40.65,.71,81.28,1.47,121.92,.04,2.26-.06,4.52-.06,6.77,0,4.75-2.38,7.15-7.12,7.18-6.78,.04-13.55,.1-20.33,.11-10,.02-20.01,.1-30.01-.04-9.46-.13-10.24-1.04-10.49-10.76-.04-1.61-.02-3.23-.02-4.84,0-104.55,0-209.09,0-313.64q0-15.82,16.08-15.83c20.97,0,41.95-.03,62.92,.01,11.53,.02,11.6,.05,15.29,10.57,18.03,51.45,36.02,102.92,54.03,154.39,8.84,25.27,17.69,50.55,26.56,75.81,.52,1.49,.81,3.15,3.43,4.85Z"/><path class="cls-1" d="M2087.98,372.39v11.54c0,41.62,0,83.23,0,124.85,0,2.58,.08,5.17-.05,7.74-.38,7.32-1.36,8.66-8.48,8.74-17.1,.21-34.2,.22-51.29,0-7.1-.09-8.02-1.4-8.4-8.84-.12-2.25-.05-4.52-.05-6.77,0-104.53,0-209.05,0-313.58q0-15.77,16.09-15.78c30,.02,60.01,.09,90.01,.09,14.88,0,29.69,1.16,44.2,4.31,41.83,9.08,74.8,38.34,81.44,83.95,4.72,32.37-.19,63-21.59,89.48-12.19,15.09-27.9,24.62-45.9,30.91-1.83,.64-3.71,1.11-5.54,1.74-6,2.08-6.12,2.24-2.52,7.95,5.33,8.46,10.79,16.84,16.24,25.22,19.52,30.02,39.09,60,58.53,90.07,1.83,2.82,5.67,5.65,3.62,9.31-2.01,3.58-6.46,1.98-9.84,2-19.68,.13-39.36-.12-59.04,.16-6.59,.1-10.57-2.14-13.84-8.05-23.86-43.19-48.05-86.2-72.16-129.27-3.11-5.55-6.3-11.05-9.45-16.57l-1.99,.8Zm0-81.17c0,1.93,0,3.87,0,5.8,.01,13.86-.11,27.72,.1,41.57,.1,6.97,1.24,8.22,7.69,8.42,17.77,.56,35.31-.26,52.47-6.11,37.95-12.96,41.41-48.8,32.5-72.89-5.57-15.05-17.84-22.27-32.49-26.23-16.66-4.51-33.72-4.92-50.82-4.62-8.46,.15-9.31,.99-9.39,9.6-.14,14.82-.04,29.65-.05,44.47Z"/><path class="cls-1" d="M1936.38,283.27c-10.65,0-21.3-.12-31.95,.05-5.27,.08-9.07-1.78-12.42-5.98-36.05-45.14-113.07-46.52-153.2,2.05-35.08,42.45-35.97,101.66-1.58,144.69,19.13,23.93,44.27,36.83,75.42,37.37,17.37,.3,34.1-1.76,49.87-9.51,10.57-5.2,20.08-11.78,27.23-21.22,3.24-4.28,7.08-6.14,12.36-6.12,21.95,.1,43.9-.06,65.84,.07,8.65,.05,9.62,1.49,5.97,8.83-27.89,56.07-71.61,90.74-134.89,97.26-41.54,4.28-81.34-2.28-116.58-26.34-48.5-33.11-75.76-78.76-80.61-137.77-3.86-46.94,8.13-89.11,37.23-125.78,35.06-44.17,80.54-68.47,137.95-68.39,35.37,.05,68.53,7.52,98.07,27.79,27.64,18.97,46.78,45.01,61.24,74.78,3.13,6.44,2.13,8.01-5.1,8.15-11.62,.22-23.24,.06-34.86,.06Z"/><path class="cls-1" d="M1337.91,352.97c0-51.62,0-103.23,0-154.85,0-1.94-.02-3.87,0-5.81,.14-11.42,.62-11.94,12.1-12.01,12.26-.07,24.52-.08,36.78,0,10.92,.07,11.62,.71,11.65,11.45,.08,25.49,.03,50.97,.03,76.46,0,2.26-.08,4.52,.03,6.77,.33,6.9,1.26,7.39,7.28,3.62,44.04-27.54,89.99-28.75,135.45-5.89,40.32,20.28,63.21,55.07,70.28,99.65,6.52,41.11-3.71,78.28-29.59,110.64-24.74,30.92-57.3,46.92-97.14,48.55-28.73,1.17-54.92-5.57-78.82-21.58-5.86-3.93-6.93-3.23-7.45,3.62-.12,1.61-.1,3.22-.13,4.84-.08,4.23-2.07,6.77-6.44,6.78-15.8,.06-31.61,.06-47.41-.01-4.3-.02-6.43-2.46-6.5-6.74-.04-2.9-.12-5.8-.12-8.71,0-52.26,0-104.52,0-156.79Zm211.4,42.31c2.11-36.14-29.18-76.78-74.61-76.55-41.82,.21-74.01,33.31-74.09,77.01-.07,41.51,31.73,74.95,71.44,74.98,45.64,.04,78.37-34.06,77.26-75.44Z"/><path class="cls-1" d="M1168.18,531.47c-77.93,3.27-136.67-67.35-136.69-138.26-.01-76.74,64.6-137.42,135.95-137.65,76.85-.25,137.4,62.79,138.13,136.63,.8,80.59-64.15,141.73-137.4,139.29Zm73.1-139.64c-.08-18.65-4.85-35.61-17.47-49.93-17.93-20.35-40.38-27.56-66.95-23.99-27.62,3.71-46.43,18.85-56.05,44.41-7.85,20.85-6.75,42.43-.08,63.63,1.74,5.54,4.35,10.72,7.7,15.55,16.05,23.13,39.35,30.43,65.87,28.97,32.03-1.76,54.17-20.1,63.21-50.93,2.64-9.01,3.92-18.27,3.78-27.72Z"/><path class="cls-1" d="M993.5,308.63c0,36.14,.13,72.28-.06,108.42-.07,13.86-1.09,27.73-3.68,41.37-8.14,42.97-42.63,72.01-86.51,72.95-12.9,.27-25.69,.11-38.44-3.1-22.62-5.7-39.53-18.47-50.69-38.79-8.57-15.6-11.84-32.67-12.34-50.28-.2-7.13,1.25-8.57,8.47-8.66,17.1-.21,34.2-.05,51.3-.07,4.85,0,8.03,1.65,8.43,7.07,.19,2.54,.93,5.08,1.73,7.52,3.63,11.15,11.51,17.31,22.65,17.85,11.24,.54,20.52-5.47,24.75-16.52,2.9-7.57,4.32-15.54,4.5-23.66,.21-9.03,.31-18.07,.31-27.1,.03-64.86,.01-129.72,.01-194.57,0-2.58-.02-5.16,0-7.74,.1-12.64,.43-13,13.07-13.03,15.17-.04,30.33-.08,45.5,.02,10.11,.07,10.96,.87,10.98,11.19,.08,39.04,.03,78.09,.03,117.13h-.03Z"/></g></g></svg>