<?xml version="1.0" encoding="UTF-8" standalone="no"?>
<svg
   id="Layer_2"
   viewBox="0 0 1692.5501 490.04999"
   version="1.1"
   sodipodi:docname="jobcrm.svg"
   width="1692.55"
   height="490.04999"
   inkscape:version="1.2.1 (9c6d41e410, 2022-07-14)"
   xmlns:inkscape="http://www.inkscape.org/namespaces/inkscape"
   xmlns:sodipodi="http://sodipodi.sourceforge.net/DTD/sodipodi-0.dtd"
   xmlns="http://www.w3.org/2000/svg"
   xmlns:svg="http://www.w3.org/2000/svg">
  <sodipodi:namedview
     id="namedview24"
     pagecolor="#ffffff"
     bordercolor="#000000"
     borderopacity="0.25"
     inkscape:showpageshadow="2"
     inkscape:pageopacity="0.0"
     inkscape:pagecheckerboard="0"
     inkscape:deskcolor="#d1d1d1"
     showgrid="false"
     inkscape:zoom="0.45666583"
     inkscape:cx="1325.9148"
     inkscape:cy="352.55539"
     inkscape:window-width="1920"
     inkscape:window-height="1009"
     inkscape:window-x="-8"
     inkscape:window-y="-8"
     inkscape:window-maximized="1"
     inkscape:current-layer="g20" />
  <defs
     id="defs4">
    <style
       id="style2">.cls-1{fill:#458ffd;}</style>
  </defs>
  <g
     id="g20"
     transform="matrix(0.64132227,0,0,0.69828194,-0.00101245,5.0568945e-4)">
    <path
       class="cls-1"
       d="m 699.36042,244.65 c 0,42.6 0.0298,85.21 0,127.81 -0.0298,42.55 -9.25787,83.22 -25.13415,122.43 -20.09343,49.64 -50.82397,91.82 -90.83222,126.82 -47.22204,41.31 -101.90593,67.47 -163.69446,78.29 -16.78917,2.94 -33.62796,4.26 -50.64536,3.94 -12.48273,-0.23 -24.98531,-0.27 -37.46804,0 -46.00155,0.97 -89.5125,-9.79 -131.37629,-28.19 C 166.14534,660.78 135.69263,640.28 108.37549,614.86 56.192117,566.29 22.583999,507 7.0946947,437.29 2.490571,416.5 -0.47631048,395.42 0.05951426,373.96 0.41673075,359.77 0.24804518,345.56 0.10912766,331.36 -0.2679342,293.77 7.2137668,257.58 19.855262,222.45 39.472401,167.91 71.413509,121.58 114.65655,83.52 166.69109,37.72 227.14998,10.22 295.97369,1.74 c 9.58531,-1.18 19.121,-1.63 28.72616,-1.63 89.35374,0 178.70747,-0.32 268.06121,0.14 41.05013,0.21 71.06624,20.76 91.98325,55.4 10.72641,17.77 14.99317,37.34 14.76495,58.29 -0.46637,43.57 -0.13892,87.14 -0.13892,130.72 z M 571.58606,269.54 C 549.52794,197.42 462.8831,106.21 330.56415,119.16 211.105,130.86 119.81634,235.64 122.75346,358.28 c 2.7585,115.16 90.9116,220.05 218.53711,228.23 118.71495,7.61 205.82616,-74.71 230.11688,-150.32 -3.52255,1.29 -5.40786,3.93 -7.60077,6.07 -36.44601,35.48 -91.58634,44.88 -137.21083,22.96 -6.66804,-3.2 -12.10567,-3.56 -18.94239,-0.27 -27.68428,13.35 -56.58905,15.55 -86.0991,7.18 -53.23518,-15.09 -90.3857,-65.87 -89.63157,-119.31 0.49613,-35.27 12.34381,-65.35 37.04136,-89.48 36.73377,-35.89 89.74072,-47.19 139.48312,-23.17 6.11237,2.95 11.00425,3.07 17.00748,-0.07 17.07693,-8.94 35.59265,-13.45 54.67396,-12.64 29.57951,1.25 56.46006,10.8 78.97462,30.98 3.95915,3.55 7.93814,7.07 12.48273,11.1 z m -92.81675,145.5 c 31.66327,1.78 62.63196,-25.9 62.33428,-62.55 -0.31753,-38.55 -30.25426,-63.64 -62.88003,-63.41 -34.87822,0.25 -62.98918,28.31 -62.85026,63.52 0.129,33 26.67217,63.96 63.38608,62.44 z"
       id="path6"
       style="stroke-width:0.996127" />
    <path
       class="cls-1"
       d="m 2454.1864,425.91 c 3.3043,-9.12 6.4696,-17.52 9.4067,-26.01 22.4154,-64.9 44.7811,-129.82 67.1766,-194.72 1.8952,-5.48 3.8599,-10.94 5.904,-16.37 3.0363,-8.08 3.3737,-8.42 11.7385,-8.49 14.7253,-0.12 29.4605,-0.05 44.1857,-0.04 9.2876,0 18.5753,-0.14 27.853,0.09 7.2336,0.18 8.1961,1.31 8.6129,8.52 0.1488,2.57 0.06,5.16 0.06,7.74 0,104.22 0,208.45 0,312.67 q 0,16.07 -15.7076,16.09 c -13.7628,0 -27.5354,0.09 -41.2982,-0.04 -9.4365,-0.09 -10.4486,-1.03 -10.389,-10.71 0.1389,-22.89 0.6648,-45.78 1.1411,-68.67 1.0617,-50.96 0.6052,-101.96 0.764,-152.94 0,-1.9 0,-3.81 0,-6.44 -3.1951,1.27 -3.2249,3.68 -3.8798,5.55 -20.0438,57.88 -40.0479,115.76 -60.0619,173.65 -5.4774,15.84 -10.915,31.7 -16.4221,47.53 -4.1278,11.88 -4.3759,12.04 -17.2158,12.07 -9.2877,0.03 -18.5753,0.06 -27.853,-0.01 -10.2303,-0.08 -10.6669,-0.36 -13.9017,-9.67 -9.5357,-27.4 -19.0416,-54.81 -28.5178,-82.23 -16.2235,-46.92 -32.4074,-93.85 -48.6509,-140.76 -0.7144,-2.07 -0.893,-4.46 -2.9172,-5.99 -2.5204,1.01 -1.5182,3.27 -1.5083,4.92 0.05,32.59 -0.8037,65.22 0.5755,97.76 1.7266,40.65 0.7046,81.28 1.4587,121.92 0.04,2.26 -0.06,4.52 -0.06,6.77 0,4.75 -2.3616,7.15 -7.0649,7.18 -6.7276,0.04 -13.4452,0.1 -20.1728,0.11 -9.9227,0.02 -19.8553,0.1 -29.778,-0.04 -9.3868,-0.13 -10.1608,-1.04 -10.4089,-10.76 -0.04,-1.61 -0.02,-3.23 -0.02,-4.84 0,-104.55 0,-209.09 0,-313.64 q 0,-15.82 15.9557,-15.83 c 20.8078,0 41.6256,-0.03 62.4335,0.01 11.4408,0.02 11.5103,0.05 15.1717,10.57 17.8906,51.45 35.7415,102.92 53.6123,154.39 8.7716,25.27 17.5532,50.55 26.3546,75.81 0.516,1.49 0.8038,3.15 3.4035,4.85 z"
       id="path8"
       style="fill:#ffffff;fill-opacity:1;stroke-width:0.996127" />
    <path
       class="cls-1"
       d="m 2071.8358,372.39 v 11.54 c 0,41.62 0,83.23 0,124.85 0,2.58 0.079,5.17 -0.05,7.74 -0.3771,7.32 -1.3495,8.66 -8.4144,8.74 -16.9678,0.21 -33.9356,0.22 -50.8935,0 -7.0451,-0.09 -7.958,-1.4 -8.335,-8.84 -0.1191,-2.25 -0.05,-4.52 -0.05,-6.77 0,-104.53 0,-209.05 0,-313.58 q 0,-15.77 15.9656,-15.78 c 29.768,0.02 59.546,0.09 89.314,0.09 14.7649,0 29.4604,1.16 43.8582,4.31 41.5066,9.08 74.2217,38.34 80.8104,83.95 4.6835,32.37 -0.1886,63 -21.4231,89.48 -12.0958,15.09 -27.6843,24.62 -45.5451,30.91 -1.8159,0.64 -3.6813,1.11 -5.4972,1.74 -5.9536,2.08 -6.0727,2.24 -2.5005,7.95 5.2888,8.46 10.7066,16.84 16.1144,25.22 19.3691,30.02 38.7878,60 58.0775,90.07 1.8158,2.82 5.6261,5.65 3.592,9.31 -1.9945,3.58 -6.4101,1.98 -9.7639,2 -19.5279,0.13 -39.0557,-0.12 -58.5835,0.16 -6.5391,0.1 -10.4883,-2.14 -13.733,-8.05 -23.6755,-43.19 -47.6785,-86.2 -71.6021,-129.27 -3.0859,-5.55 -6.2513,-11.05 -9.3769,-16.57 l -1.9746,0.8 z m 0,-81.17 c 0,1.93 0,3.87 0,5.8 0.01,13.86 -0.1091,27.72 0.099,41.57 0.099,6.97 1.2304,8.22 7.6306,8.42 17.6326,0.56 35.037,-0.26 52.0643,-6.11 37.6565,-12.96 41.0898,-48.8 32.2487,-72.89 -5.5269,-15.05 -17.7021,-22.27 -32.2388,-26.23 -16.5312,-4.51 -33.4593,-4.92 -50.4271,-4.62 -8.3946,0.15 -9.238,0.99 -9.3174,9.6 -0.1389,14.82 -0.04,29.65 -0.05,44.47 z"
       id="path10"
       style="fill:#ffffff;fill-opacity:1;stroke-width:0.996127" />
    <path
       class="cls-1"
       d="m 1921.408,283.27 c -10.5677,0 -21.1353,-0.12 -31.703,0.05 -5.2293,0.08 -8.9999,-1.78 -12.324,-5.98 -35.7712,-45.14 -112.1957,-46.52 -152.0154,2.05 -34.8088,42.45 -35.6919,101.66 -1.5678,144.69 18.9821,23.93 43.9277,36.83 74.8368,37.37 17.2357,0.3 33.8364,-1.76 49.4844,-9.51 10.4883,-5.2 19.9248,-11.78 27.0195,-21.22 3.215,-4.28 7.0253,-6.14 12.2644,-6.12 21.7803,0.1 43.5606,-0.06 65.331,0.07 8.5831,0.05 9.5456,1.49 5.9238,8.83 -27.6743,56.07 -71.0563,90.74 -133.847,97.26 -41.2188,4.28 -80.7111,-2.28 -115.6786,-26.34 -48.125,-33.11 -75.1743,-78.76 -79.9868,-137.77 -3.8301,-46.94 8.0672,-89.11 36.9422,-125.78 34.7889,-44.17 79.9172,-68.47 136.8834,-68.39 35.0965,0.05 68.0001,7.52 97.3117,27.79 27.4263,18.97 46.4183,45.01 60.7665,74.78 3.1058,6.44 2.1135,8.01 -5.0606,8.15 -11.5301,0.22 -23.0603,0.06 -34.5905,0.06 z"
       id="path12"
       style="fill:#ffffff;fill-opacity:1;stroke-width:0.996127" />
    <path
       class="cls-1"
       d="m 1327.5653,352.97 c 0,-51.62 0,-103.23 0,-154.85 0,-1.94 -0.02,-3.87 0,-5.81 0.1389,-11.42 0.6152,-11.94 12.0065,-12.01 12.1652,-0.07 24.3304,-0.08 36.4956,0 10.8355,0.07 11.5301,0.71 11.5599,11.45 0.079,25.49 0.03,50.97 0.03,76.46 0,2.26 -0.079,4.52 0.03,6.77 0.3275,6.9 1.2503,7.39 7.2237,3.62 43.6995,-27.54 89.2942,-28.75 134.4027,-5.89 40.0083,20.28 62.7213,55.07 69.7366,99.65 6.4696,41.11 -3.6813,78.28 -29.3612,110.64 -24.5487,30.92 -56.8569,46.92 -96.3889,48.55 -28.5078,1.17 -54.4953,-5.57 -78.2105,-21.58 -5.8147,-3.93 -6.8765,-3.23 -7.3924,3.62 -0.1191,1.61 -0.099,3.22 -0.129,4.84 -0.079,4.23 -2.054,6.77 -6.3902,6.78 -15.6779,0.06 -31.3656,0.06 -47.0435,-0.01 -4.2667,-0.02 -6.3803,-2.46 -6.4497,-6.74 -0.04,-2.9 -0.1191,-5.8 -0.1191,-8.71 0,-52.26 0,-104.52 0,-156.79 z m 209.7655,42.31 c 2.0937,-36.14 -28.9544,-76.78 -74.0331,-76.55 -41.4967,0.21 -73.4378,33.31 -73.5172,77.01 -0.069,41.51 31.4847,74.95 70.8876,74.98 45.2872,0.04 77.7641,-34.06 76.6627,-75.44 z"
       id="path14"
       style="fill:#ffffff;fill-opacity:1;stroke-width:0.996127" />
    <path
       class="cls-1"
       d="m 1159.1477,531.47 c -77.3275,3.27 -135.6133,-67.35 -135.6332,-138.26 -0.01,-76.74 64.1006,-137.42 134.8989,-137.65 76.2558,-0.25 136.3376,62.79 137.062,136.63 0.7938,80.59 -63.654,141.73 -136.3377,139.29 z m 72.5348,-139.64 c -0.079,-18.65 -4.8125,-35.61 -17.335,-49.93 -17.7913,-20.35 -40.0678,-27.56 -66.4323,-23.99 -27.4065,3.71 -46.071,18.85 -55.6166,44.41 -7.7893,20.85 -6.6979,42.43 -0.079,63.63 1.7265,5.54 4.3163,10.72 7.6404,15.55 15.9259,23.13 39.0458,30.43 65.3607,28.97 31.7824,-1.76 53.7512,-20.1 62.7213,-50.93 2.6196,-9.01 3.8897,-18.27 3.7508,-27.72 z"
       id="path16"
       style="fill:#ffffff;fill-opacity:1;stroke-width:0.996127" />
    <path
       class="cls-1"
       d="m 985.81828,308.63 c 0,36.14 0.12899,72.28 -0.0595,108.42 -0.0695,13.86 -1.08157,27.73 -3.65155,41.37 -8.07706,42.97 -42.30038,72.01 -85.8411,72.95 -12.80026,0.27 -25.49137,0.11 -38.14279,-3.1 -22.4451,-5.7 -39.22435,-18.47 -50.29807,-38.79 -8.50373,-15.6 -11.74845,-32.67 -12.24458,-50.28 -0.19846,-7.13 1.24033,-8.57 8.40451,-8.66 16.96778,-0.21 33.93556,-0.05 50.90335,-0.07 4.8125,0 7.96791,1.65 8.36482,7.07 0.18853,2.54 0.92281,5.08 1.71662,7.52 3.60193,11.15 11.42101,17.31 22.47487,17.85 11.1531,0.54 20.36134,-5.47 24.55864,-16.52 2.87757,-7.57 4.28659,-15.54 4.4652,-23.66 0.20838,-9.03 0.30761,-18.07 0.30761,-27.1 0.0298,-64.86 0.01,-129.72 0.01,-194.57 0,-2.58 -0.0199,-5.16 0,-7.74 0.0992,-12.64 0.42667,-13 12.96894,-13.03 15.05271,-0.04 30.09549,-0.08 45.1482,0.02 10.03183,0.07 10.87526,0.87 10.8951,11.19 0.0794,39.04 0.0298,78.09 0.0298,117.13 h -0.0298 z"
       id="path18"
       style="fill:#ffffff;fill-opacity:1;stroke-width:0.996127" />
  </g>
</svg>
