<svg width="136" height="37" viewBox="0 0 136 37" fill="none" xmlns="http://www.w3.org/2000/svg">
<path d="M131.04 0H78.1292C75.7883 0 73.8906 1.2492 73.8906 2.79017V33.5848C73.8906 35.1258 75.7883 36.375 78.1292 36.375H131.04C133.38 36.375 135.278 35.1258 135.278 33.5848V2.79017C135.278 1.2492 133.38 0 131.04 0Z" fill="#008CFE"/>
<path d="M83.7906 25C83.644 25 83.524 24.9533 83.4306 24.86C83.3373 24.7667 83.2906 24.6467 83.2906 24.5V11.5C83.2906 11.3533 83.3373 11.2333 83.4306 11.14C83.524 11.0467 83.644 11 83.7906 11H93.1306C93.2773 11 93.3973 11.0467 93.4906 11.14C93.584 11.2333 93.6306 11.3533 93.6306 11.5V13.38C93.6306 13.5267 93.584 13.6467 93.4906 13.74C93.3973 13.8333 93.2773 13.88 93.1306 13.88H86.7506V16.58H92.6906C92.8373 16.58 92.9573 16.6333 93.0506 16.74C93.144 16.8333 93.1906 16.9533 93.1906 17.1V18.84C93.1906 18.9733 93.144 19.0933 93.0506 19.2C92.9573 19.2933 92.8373 19.34 92.6906 19.34H86.7506V22.12H93.2906C93.4373 22.12 93.5573 22.1667 93.6506 22.26C93.744 22.3533 93.7906 22.4733 93.7906 22.62V24.5C93.7906 24.6467 93.744 24.7667 93.6506 24.86C93.5573 24.9533 93.4373 25 93.2906 25H83.7906ZM96.5641 25C96.4307 25 96.3107 24.9533 96.2041 24.86C96.1107 24.7667 96.0641 24.6467 96.0641 24.5V11.5C96.0641 11.3533 96.1107 11.2333 96.2041 11.14C96.3107 11.0467 96.4307 11 96.5641 11H98.7241C98.9374 11 99.0974 11.06 99.2041 11.18C99.3241 11.2867 99.3974 11.3733 99.4241 11.44L102.944 17.76L106.464 11.44C106.504 11.3733 106.571 11.2867 106.664 11.18C106.771 11.06 106.937 11 107.164 11H109.304C109.451 11 109.571 11.0467 109.664 11.14C109.771 11.2333 109.824 11.3533 109.824 11.5V24.5C109.824 24.6467 109.771 24.7667 109.664 24.86C109.571 24.9533 109.451 25 109.304 25H106.924C106.777 25 106.651 24.9533 106.544 24.86C106.451 24.7667 106.404 24.6467 106.404 24.5V17L104.144 21.18C104.091 21.3 104.011 21.4067 103.904 21.5C103.797 21.5933 103.651 21.64 103.464 21.64H102.424C102.237 21.64 102.091 21.5933 101.984 21.5C101.877 21.4067 101.791 21.3 101.724 21.18L99.4641 17V24.5C99.4641 24.6467 99.4174 24.7667 99.3241 24.86C99.2307 24.9533 99.1107 25 98.9641 25H96.5641ZM117.827 25.2C116.494 25.2 115.387 25.0133 114.507 24.64C113.627 24.2533 112.96 23.7533 112.507 23.14C112.054 22.5267 111.814 21.8733 111.787 21.18C111.787 21.0733 111.827 20.98 111.907 20.9C112 20.8067 112.107 20.76 112.227 20.76H114.747C114.934 20.76 115.074 20.7933 115.167 20.86C115.274 20.9267 115.367 21.0133 115.447 21.12C115.554 21.32 115.7 21.5133 115.887 21.7C116.087 21.8867 116.34 22.04 116.647 22.16C116.967 22.2667 117.36 22.32 117.827 22.32C118.6 22.32 119.18 22.2 119.567 21.96C119.967 21.72 120.167 21.3933 120.167 20.98C120.167 20.6867 120.06 20.4467 119.847 20.26C119.634 20.06 119.287 19.8867 118.807 19.74C118.34 19.58 117.714 19.42 116.927 19.26C115.914 19.0467 115.047 18.7733 114.327 18.44C113.62 18.0933 113.08 17.6467 112.707 17.1C112.334 16.54 112.147 15.8467 112.147 15.02C112.147 14.2067 112.374 13.48 112.827 12.84C113.294 12.2 113.94 11.7 114.767 11.34C115.594 10.98 116.574 10.8 117.707 10.8C118.627 10.8 119.434 10.92 120.127 11.16C120.834 11.4 121.427 11.72 121.907 12.12C122.387 12.52 122.747 12.9467 122.987 13.4C123.24 13.84 123.374 14.2733 123.387 14.7C123.387 14.8067 123.347 14.9067 123.267 15C123.187 15.08 123.087 15.12 122.967 15.12H120.327C120.18 15.12 120.054 15.0933 119.947 15.04C119.84 14.9867 119.747 14.9 119.667 14.78C119.587 14.4867 119.374 14.2333 119.027 14.02C118.694 13.7933 118.254 13.68 117.707 13.68C117.12 13.68 116.66 13.7867 116.327 14C116.007 14.2 115.847 14.5133 115.847 14.94C115.847 15.2067 115.934 15.44 116.107 15.64C116.294 15.84 116.594 16.0133 117.007 16.16C117.434 16.3067 118.014 16.46 118.747 16.62C119.96 16.8467 120.94 17.1333 121.687 17.48C122.434 17.8133 122.98 18.2533 123.327 18.8C123.674 19.3333 123.847 20.0067 123.847 20.82C123.847 21.7267 123.587 22.5133 123.067 23.18C122.56 23.8333 121.854 24.3333 120.947 24.68C120.04 25.0267 119 25.2 117.827 25.2Z" fill="white"/>
<path d="M3.77118 30.7786C2.46565 30.1812 1.20858 29.3421 0 28.2613L4.35916 22.55C5.00233 23.0002 5.57142 23.3441 6.06644 23.5819C6.56145 23.8196 7.00831 23.9384 7.40702 23.9384C8.44857 23.9384 8.96934 23.2441 8.96934 21.8555V3.95898H17.0133V22.417C17.0133 24.3077 16.6307 25.9472 15.8657 27.3355C15.1006 28.7238 14.0009 29.7944 12.5668 30.5472C11.1326 31.2995 9.43844 31.6756 7.48429 31.6756C6.31411 31.6756 5.0764 31.3766 3.77118 30.7786Z" fill="white"/>
<path d="M25.3054 30.2077C23.5954 29.2436 22.2485 27.9385 21.2645 26.2923C20.2806 24.6461 19.7887 22.846 19.7891 20.892C19.7891 18.899 20.2809 17.073 21.2645 15.414C22.2481 13.755 23.6015 12.4403 25.3246 11.4698C27.0478 10.4975 28.9638 10.0121 31.0729 10.0137C33.1819 10.0153 35.0979 10.5007 36.8211 11.4698C38.5432 12.4409 39.9003 13.7556 40.8922 15.414C41.8842 17.0723 42.3794 18.8983 42.3778 20.892C42.3778 22.8595 41.8794 24.666 40.8826 26.3115C39.8859 27.9571 38.5192 29.2588 36.7827 30.2168C35.0468 31.1751 33.1243 31.655 31.0153 31.6566C28.919 31.6566 27.0158 31.1736 25.3054 30.2077ZM33.0019 24.0937C33.5699 23.7839 34.0414 23.3234 34.3645 22.7628C34.6909 22.1968 34.854 21.5603 34.8536 20.8531C34.8536 20.1332 34.6898 19.4871 34.3621 18.9147C34.0417 18.3504 33.5708 17.8863 33.0019 17.5742C32.4082 17.2578 31.7458 17.0923 31.0731 17.0923C30.4004 17.0923 29.738 17.2578 29.1443 17.5742C28.5754 17.8863 28.1045 18.3504 27.7841 18.9147C27.4564 19.4871 27.2926 20.1332 27.2926 20.8531C27.2926 21.5606 27.4564 22.1971 27.7841 22.7628C28.1065 23.323 28.5772 23.7835 29.1443 24.0937C29.738 24.4101 30.4004 24.5756 31.0731 24.5756C31.7458 24.5756 32.4082 24.4101 33.0019 24.0937Z" fill="white"/>
<path d="M62.2288 11.4606C63.8329 12.4086 65.1623 13.758 66.0864 15.3759C67.0383 17.0221 67.5141 18.8158 67.5138 20.757C67.5138 22.712 67.038 24.5155 66.0864 26.1674C65.165 27.7894 63.8393 29.1452 62.2384 30.1029C60.6241 31.074 58.8656 31.5595 56.963 31.5595C54.828 31.5595 53.0598 30.8908 51.6582 29.5534L50.848 31.058H45.2736V21.1621H45.2539V1.9707H52.7771V11.152C53.961 10.393 55.3563 10.0137 56.963 10.014C58.8177 10.0042 60.6394 10.5046 62.2288 11.4606ZM58.1778 24.0552C58.7366 23.7537 59.2008 23.3031 59.5188 22.7536C59.8471 22.194 60.0111 21.5541 60.0108 20.8338C60.0105 20.1136 59.8433 19.4642 59.5092 18.8857C59.186 18.3181 58.7121 17.8508 58.1399 17.5357C57.5489 17.2122 56.8845 17.0469 56.2108 17.0557C55.5421 17.0487 54.8834 17.2181 54.301 17.5467C53.7338 17.8642 53.2643 18.3307 52.9431 18.8958C52.6152 19.4682 52.4513 20.1144 52.4517 20.8343C52.4517 21.5417 52.6187 22.1751 52.9527 22.7344C53.2814 23.2881 53.7551 23.7414 54.3226 24.0456C54.9151 24.3643 55.5789 24.527 56.2516 24.5183C56.97 24.5183 57.6121 24.364 58.1778 24.0552Z" fill="white"/>
</svg>
