<?xml version="1.0" encoding="UTF-8"?><svg id="Layer_2" xmlns="http://www.w3.org/2000/svg" viewBox="0 0 1246.13 307.37"><defs><style>.cls-1{fill:#f2884b;}.cls-2{fill:#d96a29;}</style></defs><g id="Layer_1-2"><g><g><path class="cls-2" d="M472.12,95.38v79.58c0,15.14-4.26,26.97-12.79,35.49-8.53,8.53-20.61,12.79-36.26,12.79-11.2,0-20.29-2.03-27.29-6.11-7-4.07-11.83-9.8-14.5-17.18-2.67-7.38-3.18-15.84-1.53-25.38l25.57-4.58c-1.53,11.2-.83,19.27,2.1,24.24,2.93,4.96,8.33,7.44,16.22,7.44s14.03-2.54,17.27-7.63c3.24-5.09,4.87-12.66,4.87-22.71V95.38h26.34Z"/><path class="cls-2" d="M542.92,124.01c9.67,0,18.16,1.97,25.48,5.92,7.31,3.94,13.04,9.61,17.17,16.98,4.13,7.38,6.2,16.29,6.2,26.72s-2.07,19.18-6.2,26.62c-4.14,7.44-9.86,13.14-17.17,17.08-7.32,3.94-15.81,5.92-25.48,5.92s-18-1.97-25.38-5.92c-7.38-3.94-13.14-9.64-17.27-17.08-4.14-7.44-6.2-16.32-6.2-26.62s2.07-19.34,6.2-26.72c4.13-7.38,9.89-13.04,17.27-16.98,7.38-3.94,15.84-5.92,25.38-5.92Zm0,19.46c-4.84,0-8.94,1.12-12.31,3.34-3.37,2.23-5.95,5.57-7.73,10.02-1.78,4.45-2.67,10.05-2.67,16.79s.89,12.34,2.67,16.79c1.78,4.45,4.36,7.79,7.73,10.02,3.37,2.23,7.47,3.34,12.31,3.34s8.74-1.11,12.12-3.34c3.37-2.22,5.95-5.56,7.73-10.02,1.78-4.45,2.67-10.05,2.67-16.79s-.89-12.34-2.67-16.79c-1.78-4.45-4.36-7.79-7.73-10.02-3.37-2.22-7.41-3.34-12.12-3.34Z"/><path class="cls-2" d="M669.82,223.24c-5.85,0-11.16-1.24-15.93-3.72-4.77-2.48-8.72-5.92-11.83-10.3-3.12-4.39-5.25-9.32-6.39-14.79l2.67-3.44-1.53,30.34h-23.09V84.13h26.14v68.7l-2.48-4.01c2.03-7.12,5.92-13.04,11.64-17.75,5.73-4.7,12.91-7.06,21.56-7.06,7.63,0,14.47,1.97,20.51,5.92,6.04,3.94,10.81,9.61,14.31,16.98,3.5,7.38,5.25,16.35,5.25,26.91s-1.75,19.15-5.25,26.53c-3.5,7.38-8.33,13.04-14.5,16.98-6.17,3.94-13.2,5.92-21.09,5.92Zm-7.82-20.04c6.99,0,12.5-2.51,16.51-7.54,4.01-5.02,6.01-12.37,6.01-22.04s-1.97-17.01-5.92-22.04c-3.94-5.02-9.42-7.54-16.41-7.54-4.58,0-8.53,1.21-11.83,3.63-3.31,2.42-5.89,5.85-7.73,10.3-1.85,4.45-2.77,9.73-2.77,15.84s.92,11.39,2.77,15.84c1.84,4.45,4.45,7.82,7.82,10.11,3.37,2.29,7.22,3.44,11.55,3.44Z"/><path class="cls-2" d="M734.9,221.33V95.38h94.46v21.18h-68.13v31.3h53.62v20.23h-53.62v32.06h70.8v21.18h-97.13Z"/><path class="cls-2" d="M911.8,125.92h27.1l-36.26,95.42h-30.15l-36.26-95.42h28.05l23.47,75.38,24.04-75.38Z"/><path class="cls-2" d="M996.53,223.24c-10.05,0-18.8-1.97-26.24-5.92-7.44-3.94-13.2-9.6-17.27-16.98-4.07-7.38-6.11-16.28-6.11-26.72s2.03-19.34,6.11-26.72c4.07-7.38,9.76-13.04,17.08-16.98,7.31-3.94,15.68-5.92,25.09-5.92s17.87,1.94,24.62,5.82c6.74,3.88,11.89,9.16,15.46,15.84,3.56,6.68,5.34,14.28,5.34,22.8,0,2.55-.07,4.96-.19,7.25-.13,2.29-.32,4.33-.57,6.11h-76.14v-18.13h64.69l-12.59,4.58c0-8.02-1.81-14.18-5.44-18.51-3.63-4.32-8.75-6.49-15.36-6.49-4.84,0-9,1.14-12.5,3.43-3.5,2.29-6.14,5.7-7.92,10.21-1.78,4.52-2.67,10.21-2.67,17.08s.98,12.31,2.96,16.7c1.97,4.39,4.77,7.67,8.4,9.83,3.63,2.16,7.98,3.24,13.07,3.24,5.6,0,10.11-1.08,13.55-3.24,3.44-2.16,6.11-5.15,8.02-8.97l20.8,8.02c-2.04,4.96-5.12,9.23-9.26,12.79-4.14,3.56-9.03,6.27-14.69,8.11-5.66,1.84-11.74,2.77-18.22,2.77Z"/><path class="cls-2" d="M1062.74,221.33V125.92h23.47l1.53,28.63-3.24-3.05c1.53-6.23,3.94-11.35,7.25-15.36,3.31-4.01,7.35-7.03,12.12-9.06,4.77-2.03,10.02-3.05,15.74-3.05,6.61,0,12.5,1.27,17.65,3.82,5.15,2.55,9.22,6.39,12.21,11.54,2.99,5.15,4.48,11.61,4.48,19.37v62.59h-26.14v-55.15c0-8.14-1.59-13.77-4.77-16.89-3.18-3.12-7.32-4.68-12.4-4.68-3.56,0-7.03,.86-10.4,2.58-3.37,1.72-6.11,4.48-8.21,8.3-2.1,3.82-3.15,8.91-3.15,15.27v50.57h-26.14Z"/><path class="cls-2" d="M1244.41,125.92v19.47h-74.23v-19.47h74.23Zm-30.53-29.2v93.51c0,4.58,1.18,7.92,3.53,10.02,2.35,2.1,5.56,3.15,9.64,3.15,3.31,0,6.14-.48,8.49-1.43,2.35-.95,4.48-2.26,6.39-3.91l4.2,17.37c-3.05,2.42-6.87,4.33-11.45,5.73-4.58,1.4-9.42,2.1-14.5,2.1-6.36,0-11.99-.95-16.89-2.86-4.9-1.91-8.72-4.96-11.45-9.16-2.74-4.2-4.1-9.79-4.1-16.79V103.97l26.14-7.25Z"/></g><path class="cls-1" d="M307.37,0V153.68c0,84.88-68.81,153.69-153.69,153.69S8.5,253.22,0,175.72l56.34-22c.01,24.92,9.5,49.85,28.47,68.82,18.98,18.98,43.92,28.47,68.86,28.47s49.87-9.49,68.85-28.47c7.01-7.02,7.01-18.39,0-25.41-7.01-7.01-18.39-7.01-25.41,0-23.95,23.95-62.94,23.95-86.89,0-23.95-23.95-23.95-62.94,0-86.89,23.95-23.96,62.94-23.96,86.89,0,7.22,7.22,12.43,15.95,15.33,25.48h-76.86c-9.92,0-17.96,8.04-17.96,17.96s8.04,17.96,17.96,17.96h97.48c9.92,0,17.96-8.04,17.96-17.96,0-.2,0-.41-.02-.61,.02-.33,.02-.67,.02-1.01-.42-25.39-10.55-49.27-28.51-67.23-18.88-18.88-43.65-28.37-68.45-28.47V0h153.31Z"/></g></g></svg>