<?xml version="1.0" encoding="UTF-8" standalone="no"?>
<svg
   id="Layer_2"
   viewBox="0 0 1692.55 490.05"
   version="1.1"
   sodipodi:docname="jobevent_white.svg"
   width="1692.55"
   height="490.04999"
   inkscape:version="1.2.1 (9c6d41e410, 2022-07-14)"
   xmlns:inkscape="http://www.inkscape.org/namespaces/inkscape"
   xmlns:sodipodi="http://sodipodi.sourceforge.net/DTD/sodipodi-0.dtd"
   xmlns="http://www.w3.org/2000/svg"
   xmlns:svg="http://www.w3.org/2000/svg">
  <sodipodi:namedview
     id="namedview30"
     pagecolor="#ffffff"
     bordercolor="#000000"
     borderopacity="0.25"
     inkscape:showpageshadow="2"
     inkscape:pageopacity="0.0"
     inkscape:pagecheckerboard="0"
     inkscape:deskcolor="#d1d1d1"
     showgrid="false"
     inkscape:zoom="0.48550312"
     inkscape:cx="520.07905"
     inkscape:cy="16.477752"
     inkscape:window-width="1920"
     inkscape:window-height="1009"
     inkscape:window-x="-8"
     inkscape:window-y="-8"
     inkscape:window-maximized="1"
     inkscape:current-layer="g26" />
  <defs
     id="defs4">
    <style
       id="style2">.cls-1{fill:#f2884b;}.cls-2{fill:#d96a29;}</style>
  </defs>
  <g
     id="g26"
     transform="scale(1.353719,1.5829962)">
    <g
       id="g22">
      <path
         class="cls-2"
         d="m 472.12,95.38 v 79.58 c 0,15.14 -4.26,26.97 -12.79,35.49 -8.53,8.53 -20.61,12.79 -36.26,12.79 -11.2,0 -20.29,-2.03 -27.29,-6.11 -7,-4.07 -11.83,-9.8 -14.5,-17.18 -2.67,-7.38 -3.18,-15.84 -1.53,-25.38 l 25.57,-4.58 c -1.53,11.2 -0.83,19.27 2.1,24.24 2.93,4.96 8.33,7.44 16.22,7.44 7.89,0 14.03,-2.54 17.27,-7.63 3.24,-5.09 4.87,-12.66 4.87,-22.71 V 95.38 Z"
         id="path6"
         style="fill:#ffffff;fill-opacity:1" />
      <path
         class="cls-2"
         d="m 542.92,124.01 c 9.67,0 18.16,1.97 25.48,5.92 7.31,3.94 13.04,9.61 17.17,16.98 4.13,7.38 6.2,16.29 6.2,26.72 0,10.43 -2.07,19.18 -6.2,26.62 -4.14,7.44 -9.86,13.14 -17.17,17.08 -7.32,3.94 -15.81,5.92 -25.48,5.92 -9.67,0 -18,-1.97 -25.38,-5.92 -7.38,-3.94 -13.14,-9.64 -17.27,-17.08 -4.14,-7.44 -6.2,-16.32 -6.2,-26.62 0,-10.3 2.07,-19.34 6.2,-26.72 4.13,-7.38 9.89,-13.04 17.27,-16.98 7.38,-3.94 15.84,-5.92 25.38,-5.92 z m 0,19.46 c -4.84,0 -8.94,1.12 -12.31,3.34 -3.37,2.23 -5.95,5.57 -7.73,10.02 -1.78,4.45 -2.67,10.05 -2.67,16.79 0,6.74 0.89,12.34 2.67,16.79 1.78,4.45 4.36,7.79 7.73,10.02 3.37,2.23 7.47,3.34 12.31,3.34 4.84,0 8.74,-1.11 12.12,-3.34 3.37,-2.22 5.95,-5.56 7.73,-10.02 1.78,-4.45 2.67,-10.05 2.67,-16.79 0,-6.74 -0.89,-12.34 -2.67,-16.79 -1.78,-4.45 -4.36,-7.79 -7.73,-10.02 -3.37,-2.22 -7.41,-3.34 -12.12,-3.34 z"
         id="path8"
         style="fill:#ffffff;fill-opacity:1" />
      <path
         class="cls-2"
         d="m 669.82,223.24 c -5.85,0 -11.16,-1.24 -15.93,-3.72 -4.77,-2.48 -8.72,-5.92 -11.83,-10.3 -3.12,-4.39 -5.25,-9.32 -6.39,-14.79 l 2.67,-3.44 -1.53,30.34 H 613.72 V 84.13 h 26.14 v 68.7 l -2.48,-4.01 c 2.03,-7.12 5.92,-13.04 11.64,-17.75 5.73,-4.7 12.91,-7.06 21.56,-7.06 7.63,0 14.47,1.97 20.51,5.92 6.04,3.94 10.81,9.61 14.31,16.98 3.5,7.38 5.25,16.35 5.25,26.91 0,10.56 -1.75,19.15 -5.25,26.53 -3.5,7.38 -8.33,13.04 -14.5,16.98 -6.17,3.94 -13.2,5.92 -21.09,5.92 z M 662,203.2 c 6.99,0 12.5,-2.51 16.51,-7.54 4.01,-5.02 6.01,-12.37 6.01,-22.04 0,-9.67 -1.97,-17.01 -5.92,-22.04 -3.94,-5.02 -9.42,-7.54 -16.41,-7.54 -4.58,0 -8.53,1.21 -11.83,3.63 -3.31,2.42 -5.89,5.85 -7.73,10.3 -1.85,4.45 -2.77,9.73 -2.77,15.84 0,6.11 0.92,11.39 2.77,15.84 1.84,4.45 4.45,7.82 7.82,10.11 3.37,2.29 7.22,3.44 11.55,3.44 z"
         id="path10"
         style="fill:#ffffff;fill-opacity:1" />
      <path
         class="cls-2"
         d="M 734.9,221.33 V 95.38 h 94.46 v 21.18 h -68.13 v 31.3 h 53.62 v 20.23 h -53.62 v 32.06 h 70.8 v 21.18 z"
         id="path12"
         style="fill:#ffffff;fill-opacity:1" />
      <path
         class="cls-2"
         d="m 911.8,125.92 h 27.1 l -36.26,95.42 h -30.15 l -36.26,-95.42 h 28.05 l 23.47,75.38 24.04,-75.38 z"
         id="path14"
         style="fill:#ffffff;fill-opacity:1" />
      <path
         class="cls-2"
         d="m 996.53,223.24 c -10.05,0 -18.8,-1.97 -26.24,-5.92 -7.44,-3.94 -13.2,-9.6 -17.27,-16.98 -4.07,-7.38 -6.11,-16.28 -6.11,-26.72 0,-10.44 2.03,-19.34 6.11,-26.72 4.07,-7.38 9.76,-13.04 17.08,-16.98 7.31,-3.94 15.68,-5.92 25.09,-5.92 9.41,0 17.87,1.94 24.62,5.82 6.74,3.88 11.89,9.16 15.46,15.84 3.56,6.68 5.34,14.28 5.34,22.8 0,2.55 -0.07,4.96 -0.19,7.25 -0.13,2.29 -0.32,4.33 -0.57,6.11 h -76.14 v -18.13 h 64.69 l -12.59,4.58 c 0,-8.02 -1.81,-14.18 -5.44,-18.51 -3.63,-4.32 -8.75,-6.49 -15.36,-6.49 -4.84,0 -9,1.14 -12.5,3.43 -3.5,2.29 -6.14,5.7 -7.92,10.21 -1.78,4.52 -2.67,10.21 -2.67,17.08 0,6.87 0.98,12.31 2.96,16.7 1.97,4.39 4.77,7.67 8.4,9.83 3.63,2.16 7.98,3.24 13.07,3.24 5.6,0 10.11,-1.08 13.55,-3.24 3.44,-2.16 6.11,-5.15 8.02,-8.97 l 20.8,8.02 c -2.04,4.96 -5.12,9.23 -9.26,12.79 -4.14,3.56 -9.03,6.27 -14.69,8.11 -5.66,1.84 -11.74,2.77 -18.22,2.77 z"
         id="path16"
         style="fill:#ffffff;fill-opacity:1" />
      <path
         class="cls-2"
         d="m 1062.74,221.33 v -95.41 h 23.47 l 1.53,28.63 -3.24,-3.05 c 1.53,-6.23 3.94,-11.35 7.25,-15.36 3.31,-4.01 7.35,-7.03 12.12,-9.06 4.77,-2.03 10.02,-3.05 15.74,-3.05 6.61,0 12.5,1.27 17.65,3.82 5.15,2.55 9.22,6.39 12.21,11.54 2.99,5.15 4.48,11.61 4.48,19.37 v 62.59 h -26.14 V 166.2 c 0,-8.14 -1.59,-13.77 -4.77,-16.89 -3.18,-3.12 -7.32,-4.68 -12.4,-4.68 -3.56,0 -7.03,0.86 -10.4,2.58 -3.37,1.72 -6.11,4.48 -8.21,8.3 -2.1,3.82 -3.15,8.91 -3.15,15.27 v 50.57 h -26.14 z"
         id="path18"
         style="fill:#ffffff;fill-opacity:1" />
      <path
         class="cls-2"
         d="m 1244.41,125.92 v 19.47 h -74.23 v -19.47 z m -30.53,-29.2 v 93.51 c 0,4.58 1.18,7.92 3.53,10.02 2.35,2.1 5.56,3.15 9.64,3.15 3.31,0 6.14,-0.48 8.49,-1.43 2.35,-0.95 4.48,-2.26 6.39,-3.91 l 4.2,17.37 c -3.05,2.42 -6.87,4.33 -11.45,5.73 -4.58,1.4 -9.42,2.1 -14.5,2.1 -6.36,0 -11.99,-0.95 -16.89,-2.86 -4.9,-1.91 -8.72,-4.96 -11.45,-9.16 -2.74,-4.2 -4.1,-9.79 -4.1,-16.79 v -90.48 z"
         id="path20"
         style="fill:#ffffff;fill-opacity:1" />
    </g>
    <path
       class="cls-1"
       d="m 307.37,0 v 153.68 c 0,84.88 -68.81,153.69 -153.69,153.69 C 68.8,307.37 8.5,253.22 0,175.72 l 56.34,-22 c 0.01,24.92 9.5,49.85 28.47,68.82 18.98,18.98 43.92,28.47 68.86,28.47 24.94,0 49.87,-9.49 68.85,-28.47 7.01,-7.02 7.01,-18.39 0,-25.41 -7.01,-7.01 -18.39,-7.01 -25.41,0 -23.95,23.95 -62.94,23.95 -86.89,0 -23.95,-23.95 -23.95,-62.94 0,-86.89 23.95,-23.96 62.94,-23.96 86.89,0 7.22,7.22 12.43,15.95 15.33,25.48 h -76.86 c -9.92,0 -17.96,8.04 -17.96,17.96 0,9.92 8.04,17.96 17.96,17.96 h 97.48 c 9.92,0 17.96,-8.04 17.96,-17.96 0,-0.2 0,-0.41 -0.02,-0.61 0.02,-0.33 0.02,-0.67 0.02,-1.01 C 250.6,126.67 240.47,102.79 222.51,84.83 203.63,65.95 178.86,56.46 154.06,56.36 V 0 Z"
       id="path24"
       style="fill:#ffffff;fill-opacity:1" />
  </g>
</svg>
