<?xml version="1.0" encoding="UTF-8" standalone="no"?>
<svg
   id="Layer_1"
   viewBox="0 0 1692.55 490.04999"
   version="1.1"
   sodipodi:docname="jobid.svg"
   width="1692.55"
   height="490.04999"
   inkscape:version="1.2.1 (9c6d41e410, 2022-07-14)"
   xmlns:inkscape="http://www.inkscape.org/namespaces/inkscape"
   xmlns:sodipodi="http://sodipodi.sourceforge.net/DTD/sodipodi-0.dtd"
   xmlns="http://www.w3.org/2000/svg"
   xmlns:svg="http://www.w3.org/2000/svg">
  <sodipodi:namedview
     id="namedview19"
     pagecolor="#ffffff"
     bordercolor="#000000"
     borderopacity="0.25"
     inkscape:showpageshadow="2"
     inkscape:pageopacity="0.0"
     inkscape:pagecheckerboard="0"
     inkscape:deskcolor="#d1d1d1"
     showgrid="false"
     inkscape:zoom="0.76759259"
     inkscape:cx="900.86852"
     inkscape:cy="218.8661"
     inkscape:window-width="1920"
     inkscape:window-height="1009"
     inkscape:window-x="-8"
     inkscape:window-y="-8"
     inkscape:window-maximized="1"
     inkscape:current-layer="Layer_1" />
  <defs
     id="defs4">
    <style
       id="style2">.cls-1{fill:#008cfe;}.cls-2{fill:#fff;}</style>
  </defs>
  <path
     class="cls-1"
     d="m 1654.065,1.7311561 h -518.0433 c -22.9291,0 -41.5035,16.7723579 -41.5035,37.4477179 V 452.55421 c 0,20.67535 18.5744,37.44771 41.5035,37.44771 h 518.0433 c 22.929,0 41.5035,-16.77236 41.5035,-37.44771 V 39.178874 c 0,-20.67536 -18.5745,-37.4477179 -41.5035,-37.4477179 z"
     id="path6"
     style="stroke-width:2.54714" />
  <path
     class="cls-1"
     d="M 59.218822,476.47328 C 39.832484,466.97949 21.184204,453.60907 3.2493809,436.41477 L 67.952515,345.53812 c 9.545557,7.17309 17.984027,12.63201 25.34001,16.40316 7.355985,3.77114 13.973905,5.6699 19.902975,5.6699 15.45003,0 23.17504,-11.04972 23.17504,-33.14914 V 49.727526 H 255.73921 V 343.37565 c 0,30.09003 -5.68305,56.17157 -17.02455,78.24463 -11.3661,22.07306 -27.67719,39.10913 -48.95788,51.10822 -21.28069,11.97272 -46.42388,17.95909 -75.42959,17.95909 -17.368974,0 -35.746632,-4.7469 -55.108368,-14.26706 z"
     id="path8"
     style="stroke-width:2.54714;fill:#ffffff;fill-opacity:1" />
  <path
     class="cls-1"
     d="m 378.77358,467.34869 c -25.38922,-15.34829 -45.366,-36.10276 -59.97956,-62.28979 -14.61356,-26.18703 -21.89574,-54.82663 -21.89574,-85.91878 0,-31.6987 7.30678,-60.76024 21.89574,-87.15824 14.58895,-26.39801 34.68875,-47.31071 60.25018,-62.73812 25.56143,-15.48015 54.00128,-23.18066 85.29497,-23.15429 31.29368,0 59.73353,7.75326 85.31956,23.15429 25.56143,15.45378 45.68583,36.36648 60.4224,62.73812 14.71197,26.37163 22.06795,55.43317 22.04335,87.15824 0,31.30313 -7.40519,60.0482 -22.19096,86.20886 -14.78578,26.18703 -35.08239,46.88877 -60.84063,62.13157 -25.75824,15.2428 -54.29651,22.89058 -85.59019,22.91695 -31.09687,0 -59.36451,-7.67415 -84.72912,-23.04881 z m 114.22686,-97.25858 c 8.43847,-4.93149 15.42542,-12.26281 20.2228,-21.17642 4.84659,-8.99273 7.25758,-19.11943 7.25758,-30.38012 0,-11.44529 -2.43559,-21.73022 -7.28218,-30.82844 -4.74817,-8.96635 -11.73513,-16.35041 -20.1982,-21.33465 -8.8075,-5.03698 -18.64828,-7.67414 -28.61207,-7.67414 -9.96379,0 -19.80457,2.63716 -28.61207,7.67414 -8.43847,4.95787 -15.42542,12.34193 -20.1982,21.33465 -4.87119,9.09822 -7.28218,19.38315 -7.28218,30.82844 0,11.44529 2.43559,21.38739 7.28218,30.38012 4.79738,8.91361 11.75973,16.24493 20.1982,21.17642 8.8075,5.03698 18.64828,7.67415 28.61207,7.67415 9.96379,0 19.80457,-2.63717 28.61207,-7.67415 z"
     id="path10"
     style="stroke-width:2.54714;fill:#ffffff;fill-opacity:1" />
  <path
     class="cls-1"
     d="m 926.73285,169.16465 c 23.81469,15.08457 43.54546,36.55108 57.24875,62.28979 14.12152,26.18703 21.1823,54.72114 21.1823,85.60232 0,31.09215 -7.06078,59.78449 -21.1823,86.07701 -13.67869,25.81782 -33.33565,47.36345 -57.10114,62.60625 -23.9623,15.45378 -50.06497,23.18067 -78.28341,23.18067 -31.68731,0 -57.93759,-10.62777 -78.72624,-31.90968 l -12.03036,23.94544 H 675.10409 V 323.51781 h -0.29523 V 18.187054 H 786.45252 V 164.25952 c 17.5658,-12.0782 38.28064,-18.11731 62.11993,-18.09094 27.52959,-0.15823 54.56713,7.80601 78.1358,23.02244 z m -60.12717,200.37166 c 8.29086,-4.79964 15.17941,-11.97272 19.90298,-20.70173 4.87119,-8.91362 7.30678,-19.09307 7.30678,-30.53835 0,-11.44529 -2.4848,-21.78297 -7.45439,-30.98667 -4.79738,-9.0191 -11.83354,-16.4559 -20.32121,-21.46651 -8.7583,-5.14247 -18.62368,-7.77963 -28.63667,-7.64777 -9.91459,-0.10549 -19.70617,2.58442 -28.34145,7.806 -8.41387,5.06335 -15.37622,12.47378 -20.149,21.46651 -4.87119,9.09821 -7.30678,19.38315 -7.28218,30.82844 0,11.26068 2.4848,21.33465 7.42979,30.22189 4.87119,8.80812 11.90734,16.03395 20.32121,20.85996 8.7829,5.06335 18.64828,7.64777 28.63667,7.51591 10.65265,0 20.19821,-2.45256 28.58747,-7.35768 z"
     id="path12"
     style="stroke-width:2.54714;fill:#ffffff;fill-opacity:1" />
  <path
     class="cls-2"
     d="M 1255.9316,432.30079 H 1154.6945 V 59.300429 h 101.2371 z"
     id="path14"
     style="stroke-width:2.54714" />
  <path
     class="cls-2"
     d="M 1319.134,432.27442 V 59.300429 h 133.318 c 33.6062,0 64.4079,8.096091 92.3803,24.288273 27.9724,16.192182 50.065,38.502578 66.3023,66.904828 16.2372,28.40225 24.3559,60.04821 24.3559,94.91151 0,34.86329 -8.0695,66.79934 -24.2329,95.30707 -16.1635,28.48137 -38.1331,50.87088 -65.9333,67.16855 -27.8002,16.29767 -58.5034,24.4465 -92.1097,24.4465 h -134.056 z m 137.7463,-105.1437 c 14.4168,0 27.2836,-3.40194 38.6251,-10.23219 11.1693,-6.64565 20.3458,-16.58776 26.4471,-28.66596 6.2981,-12.28918 9.4717,-26.58261 9.4717,-42.88028 0,-15.74386 -3.149,-29.82631 -9.4717,-42.22098 -6.0767,-12.13095 -15.2532,-22.1258 -26.4471,-28.79782 -11.3169,-6.80388 -24.2575,-10.20582 -38.8711,-10.2322 h -34.9348 v 163.00306 h 35.1808 z"
     id="path16"
     style="stroke-width:2.54714" />
</svg>
