<svg width="97" height="30" viewBox="0 0 97 30" fill="none" xmlns="http://www.w3.org/2000/svg">
<path d="M93.8284 0.0898438H62.8959C61.5274 0.0898438 60.418 1.09832 60.418 2.34233V27.2027C60.418 28.4467 61.5274 29.4552 62.8959 29.4552H93.8284C95.197 29.4552 96.3064 28.4467 96.3064 27.2027V2.34233C96.3064 1.09832 95.197 0.0898438 93.8284 0.0898438Z" fill="white"/>
<path d="M70.4413 20.7578C70.3065 20.7578 70.1962 20.7149 70.1105 20.6292C70.0247 20.5434 69.9818 20.4331 69.9818 20.2983V8.35222C69.9818 8.21744 70.0247 8.10717 70.1105 8.0214C70.1962 7.93563 70.3065 7.89275 70.4413 7.89275H72.904C73.0388 7.89275 73.1491 7.93563 73.2348 8.0214C73.3206 8.10717 73.3635 8.21744 73.3635 8.35222V20.2983C73.3635 20.4331 73.3206 20.5434 73.2348 20.6292C73.1491 20.7149 73.0388 20.7578 72.904 20.7578H70.4413ZM76.4 20.7578C76.2652 20.7578 76.1549 20.7149 76.0692 20.6292C75.9834 20.5434 75.9405 20.4331 75.9405 20.2983V8.35222C75.9405 8.21744 75.9834 8.10717 76.0692 8.0214C76.1549 7.93563 76.2652 7.89275 76.4 7.89275H81.1784C82.3792 7.89275 83.4023 8.08879 84.2477 8.48087C85.0931 8.86069 85.7425 9.4243 86.1958 10.1717C86.6492 10.9069 86.8942 11.8197 86.931 12.9101C86.9432 13.4492 86.9493 13.921 86.9493 14.3253C86.9493 14.7296 86.9432 15.1952 86.931 15.7221C86.882 16.8615 86.6369 17.805 86.1958 18.5524C85.767 19.2998 85.136 19.8573 84.3028 20.2248C83.4819 20.5802 82.4711 20.7578 81.2703 20.7578H76.4ZM79.2303 18.1113H81.1784C81.7053 18.1113 82.1403 18.0316 82.4833 17.8724C82.8386 17.7008 83.1021 17.4374 83.2736 17.0821C83.4574 16.7268 83.5554 16.2612 83.5677 15.6853C83.5922 15.33 83.6044 15.0114 83.6044 14.7296C83.6167 14.4478 83.6167 14.166 83.6044 13.8842C83.6044 13.6024 83.5922 13.2899 83.5677 12.9469C83.5432 12.1137 83.3226 11.5072 82.906 11.1274C82.5017 10.7353 81.8952 10.5393 81.0866 10.5393H79.2303V18.1113Z" fill="#008CFE"/>
<path d="M3.65815 24.9052C2.60135 24.423 1.58379 23.7456 0.605469 22.873L4.1341 18.2623C4.65473 18.6258 5.1154 18.9034 5.5161 19.0954C5.91681 19.2873 6.27853 19.3832 6.60127 19.3832C7.44438 19.3832 7.86593 18.8227 7.86593 17.7017V3.25391H14.3773V18.155C14.3773 19.6813 14.0676 21.0049 13.4483 22.1256C12.829 23.2464 11.9389 24.1107 10.778 24.7185C9.61704 25.3258 8.24566 25.6294 6.66382 25.6294C5.71658 25.6294 4.71469 25.388 3.65815 24.9052Z" fill="white"/>
<path d="M21.0884 24.4588C19.7042 23.6805 18.6139 22.6269 17.8174 21.2979C17.0209 19.969 16.6228 18.5157 16.623 16.9383C16.623 15.3293 17.0212 13.8552 17.8174 12.5159C18.6136 11.1766 19.7091 10.1152 21.104 9.33179C22.4988 8.54681 24.0498 8.15496 25.757 8.15625C27.4642 8.15754 29.0152 8.54939 30.41 9.33179C31.8041 10.1157 32.9026 11.1771 33.7056 12.5159C34.5085 13.8547 34.9094 15.3288 34.9081 16.9383C34.9081 18.5266 34.5046 19.985 33.6978 21.3134C32.8909 22.6419 31.7847 23.6928 30.379 24.4661C28.9738 25.2398 27.4176 25.6272 25.7104 25.6285C24.0135 25.6285 22.4729 25.2386 21.0884 24.4588ZM27.3185 19.523C27.7783 19.2729 28.16 18.9011 28.4215 18.4486C28.6857 17.9917 28.8177 17.4778 28.8175 16.9069C28.8175 16.3257 28.6848 15.8041 28.4196 15.342C28.1602 14.8865 27.779 14.5118 27.3185 14.2598C26.8379 14.0044 26.3018 13.8708 25.7572 13.8708C25.2126 13.8708 24.6765 14.0044 24.1959 14.2598C23.7354 14.5118 23.3542 14.8865 23.0948 15.342C22.8296 15.8041 22.6969 16.3257 22.6969 16.9069C22.6969 17.478 22.8296 17.9919 23.0948 18.4486C23.3558 18.9008 23.7368 19.2726 24.1959 19.523C24.6765 19.7784 25.2126 19.912 25.7572 19.912C26.3018 19.912 26.8379 19.7784 27.3185 19.523Z" fill="white"/>
<path d="M50.981 9.3252C52.2794 10.0905 53.3556 11.1799 54.1036 12.486C54.8742 13.815 55.2594 15.2631 55.2591 16.8302C55.2591 18.4084 54.8739 19.8643 54.1036 21.198C53.3578 22.5074 52.2847 23.6019 50.9888 24.3751C49.682 25.159 48.2586 25.551 46.7184 25.551C44.9902 25.551 43.5589 25.0112 42.4244 23.9314L41.7686 25.1461H37.2562V17.1572H37.2402V1.66406H43.3301V9.07606C44.2884 8.46337 45.4179 8.15715 46.7184 8.15741C48.2198 8.14943 49.6944 8.55343 50.981 9.3252ZM47.7018 19.4928C48.1542 19.2494 48.5299 18.8856 48.7874 18.442C49.0531 17.9902 49.1859 17.4736 49.1856 16.8922C49.1853 16.3107 49.05 15.7865 48.7796 15.3195C48.518 14.8612 48.1343 14.484 47.6711 14.2296C47.1928 13.9684 46.6549 13.835 46.1096 13.8421C45.5683 13.8365 45.0351 13.9732 44.5636 14.2385C44.1045 14.4948 43.7244 14.8715 43.4645 15.3276C43.199 15.7897 43.0664 16.3114 43.0666 16.8926C43.0666 17.4637 43.2018 17.975 43.4723 18.4265C43.7383 18.8735 44.1217 19.2395 44.5811 19.485C45.0607 19.7423 45.5981 19.8737 46.1426 19.8667C46.7241 19.8667 47.2439 19.742 47.7018 19.4928Z" fill="white"/>
</svg>
