<?xml version="1.0" encoding="UTF-8" standalone="no"?>
<svg
   id="Layer_1"
   viewBox="0 0 1692.55 490.04999"
   version="1.1"
   sodipodi:docname="jobid.svg"
   width="1692.55"
   height="490.04999"
   xmlns:inkscape="http://www.inkscape.org/namespaces/inkscape"
   xmlns:sodipodi="http://sodipodi.sourceforge.net/DTD/sodipodi-0.dtd"
   xmlns="http://www.w3.org/2000/svg"
   xmlns:svg="http://www.w3.org/2000/svg">
  <sodipodi:namedview
     id="namedview19"
     pagecolor="#ffffff"
     bordercolor="#000000"
     borderopacity="0.25"
     inkscape:showpageshadow="2"
     inkscape:pageopacity="0.0"
     inkscape:pagecheckerboard="0"
     inkscape:deskcolor="#d1d1d1"
     showgrid="false" />
  <defs
     id="defs4">
    <style
       id="style2">.cls-1{fill:#008cfe;}.cls-2{fill:#fff;}</style>
  </defs>
  <path
     class="cls-1"
     d="M 867.07,447.28 H 656.5 c -9.32,0 -16.87,6.36 -16.87,14.2 v 156.75 c 0,7.84 7.55,14.2 16.87,14.2 h 210.57 c 9.32,0 16.87,-6.36 16.87,-14.2 V 461.48 c 0,-7.84 -7.55,-14.2 -16.87,-14.2 z"
     id="path6" />
  <path
     class="cls-1"
     d="m 218.81,627.3 c -7.88,-3.6 -15.46,-8.67 -22.75,-15.19 l 26.3,-34.46 c 3.88,2.72 7.31,4.79 10.3,6.22 2.99,1.43 5.68,2.15 8.09,2.15 6.28,0 9.42,-4.19 9.42,-12.57 V 465.48 h 48.52 v 111.35 c 0,11.41 -2.31,21.3 -6.92,29.67 -4.62,8.37 -11.25,14.83 -19.9,19.38 -8.65,4.54 -18.87,6.81 -30.66,6.81 -7.06,0 -14.53,-1.8 -22.4,-5.41 z"
     id="path8" />
  <path
     class="cls-1"
     d="m 348.7,623.84 c -10.32,-5.82 -18.44,-13.69 -24.38,-23.62 -5.94,-9.93 -8.9,-20.79 -8.9,-32.58 0,-12.02 2.97,-23.04 8.9,-33.05 5.93,-10.01 14.1,-17.94 24.49,-23.79 10.39,-5.87 21.95,-8.79 34.67,-8.78 12.72,0 24.28,2.94 34.68,8.78 10.39,5.86 18.57,13.79 24.56,23.79 5.98,10 8.97,21.02 8.96,33.05 0,11.87 -3.01,22.77 -9.02,32.69 -6.01,9.93 -14.26,17.78 -24.73,23.56 -10.47,5.78 -22.07,8.68 -34.79,8.69 -12.64,0 -24.13,-2.91 -34.44,-8.74 z m 46.43,-36.88 c 3.43,-1.87 6.27,-4.65 8.22,-8.03 1.97,-3.41 2.95,-7.25 2.95,-11.52 0,-4.34 -0.99,-8.24 -2.96,-11.69 -1.93,-3.4 -4.77,-6.2 -8.21,-8.09 -3.58,-1.91 -7.58,-2.91 -11.63,-2.91 -4.05,0 -8.05,1 -11.63,2.91 -3.43,1.88 -6.27,4.68 -8.21,8.09 -1.98,3.45 -2.96,7.35 -2.96,11.69 0,4.34 0.99,8.11 2.96,11.52 1.95,3.38 4.78,6.16 8.21,8.03 3.58,1.91 7.58,2.91 11.63,2.91 4.05,0 8.05,-1 11.63,-2.91 z"
     id="path10" />
  <path
     class="cls-1"
     d="m 571.43,510.77 c 9.68,5.72 17.7,13.86 23.27,23.62 5.74,9.93 8.61,20.75 8.61,32.46 0,11.79 -2.87,22.67 -8.61,32.64 -5.56,9.79 -13.55,17.96 -23.21,23.74 -9.74,5.86 -20.35,8.79 -31.82,8.79 -12.88,0 -23.55,-4.03 -32,-12.1 l -4.89,9.08 h -33.63 v -59.7 h -0.12 V 453.52 h 45.38 v 55.39 c 7.14,-4.58 15.56,-6.87 25.25,-6.86 11.19,-0.06 22.18,2.96 31.76,8.73 z m -24.44,75.98 c 3.37,-1.82 6.17,-4.54 8.09,-7.85 1.98,-3.38 2.97,-7.24 2.97,-11.58 0,-4.34 -1.01,-8.26 -3.03,-11.75 -1.95,-3.42 -4.81,-6.24 -8.26,-8.14 -3.56,-1.95 -7.57,-2.95 -11.64,-2.9 -4.03,-0.04 -8.01,0.98 -11.52,2.96 -3.42,1.92 -6.25,4.73 -8.19,8.14 -1.98,3.45 -2.97,7.35 -2.96,11.69 0,4.27 1.01,8.09 3.02,11.46 1.98,3.34 4.84,6.08 8.26,7.91 3.57,1.92 7.58,2.9 11.64,2.85 4.33,0 8.21,-0.93 11.62,-2.79 z"
     id="path12" />
  <path
     class="cls-2"
     d="M 705.24,610.55 H 664.09 V 469.11 h 41.15 z"
     id="path14" />
  <path
     class="cls-2"
     d="M 730.93,610.54 V 469.11 h 54.19 c 13.66,0 26.18,3.07 37.55,9.21 11.37,6.14 20.35,14.6 26.95,25.37 6.6,10.77 9.9,22.77 9.9,35.99 0,13.22 -3.28,25.33 -9.85,36.14 -6.57,10.8 -15.5,19.29 -26.8,25.47 -11.3,6.18 -23.78,9.27 -37.44,9.27 h -54.49 z m 55.99,-39.87 c 5.86,0 11.09,-1.29 15.7,-3.88 4.54,-2.52 8.27,-6.29 10.75,-10.87 2.56,-4.66 3.85,-10.08 3.85,-16.26 0,-5.97 -1.28,-11.31 -3.85,-16.01 -2.47,-4.6 -6.2,-8.39 -10.75,-10.92 -4.6,-2.58 -9.86,-3.87 -15.8,-3.88 h -14.2 v 61.81 h 14.3 z"
     id="path16" />
</svg>
