<?xml version="1.0" encoding="UTF-8" standalone="no"?>
<svg
   id="Layer_2"
   viewBox="0 0 1692.55 490.05"
   version="1.1"
   sodipodi:docname="joble_white.svg"
   inkscape:version="1.2.1 (9c6d41e410, 2022-07-14)"
   xmlns:inkscape="http://www.inkscape.org/namespaces/inkscape"
   xmlns:sodipodi="http://sodipodi.sourceforge.net/DTD/sodipodi-0.dtd"
   xmlns="http://www.w3.org/2000/svg"
   xmlns:svg="http://www.w3.org/2000/svg">
  <sodipodi:namedview
     id="namedview32"
     pagecolor="#ffffff"
     bordercolor="#000000"
     borderopacity="0.25"
     inkscape:showpageshadow="2"
     inkscape:pageopacity="0.0"
     inkscape:pagecheckerboard="0"
     inkscape:deskcolor="#d1d1d1"
     showgrid="false"
     inkscape:zoom="0.71489762"
     inkscape:cx="568.61289"
     inkscape:cy="244.7903"
     inkscape:window-width="1920"
     inkscape:window-height="1009"
     inkscape:window-x="-8"
     inkscape:window-y="-8"
     inkscape:window-maximized="1"
     inkscape:current-layer="g26" />
  <defs
     id="defs4">
    <style
       id="style2">.cls-1{fill:#002d56;}.cls-2{fill:#07c0ea;}.cls-3{fill:#4a96fc;}</style>
  </defs>
  <g
     id="Layer_1-2">
    <g
       id="g28">
      <g
         id="g16"
         style="fill:#ffffff;fill-opacity:1">
        <path
           class="cls-1"
           d="M730.25,396.71c-18.79,0-35.3-3.59-49.52-10.78-14.23-7.18-25.21-17.75-32.95-31.7-7.74-13.95-11.6-30.87-11.6-50.77h55.95c0,8.85,1.31,16.51,3.94,23,2.62,6.49,6.63,11.47,12.02,14.92,5.39,3.46,12.36,5.18,20.93,5.18s14.99-1.59,20.1-4.77c5.11-3.17,8.84-7.73,11.19-13.68,2.34-5.94,3.52-13.05,3.52-21.34V101.63h55.95v205.14c0,29.01-8.08,51.25-24.25,66.72-16.16,15.48-37.92,23.21-65.27,23.21Z"
           id="path6"
           style="fill:#ffffff;fill-opacity:1" />
        <path
           class="cls-1"
           d="M968.96,396.71c-19.89,0-37.78-4.63-53.67-13.88-15.89-9.25-28.46-22.1-37.71-38.54-9.26-16.43-13.88-35.29-13.88-56.57s4.62-40.96,13.88-57.4c9.25-16.43,21.89-29.28,37.92-38.54,16.02-9.25,33.98-13.88,53.88-13.88s38.19,4.63,54.08,13.88c15.88,9.26,28.45,22.11,37.71,38.54,9.25,16.44,13.88,35.43,13.88,56.98s-4.63,40.55-13.88,56.98c-9.26,16.44-21.9,29.29-37.92,38.54-16.03,9.25-34.13,13.88-54.29,13.88Zm0-48.49c9.39,0,17.75-2.21,25.07-6.63,7.32-4.42,13.12-11.19,17.41-20.31,4.28-9.12,6.42-20.44,6.42-33.98s-2.14-24.79-6.42-33.78c-4.29-8.97-10.09-15.75-17.41-20.31-7.32-4.56-15.54-6.84-24.66-6.84s-16.99,2.28-24.45,6.84c-7.46,4.56-13.33,11.33-17.61,20.31-4.29,8.98-6.42,20.24-6.42,33.78s2.14,24.87,6.42,33.98c4.28,9.12,10.08,15.89,17.41,20.31,7.32,4.42,15.4,6.63,24.24,6.63Z"
           id="path8"
           style="fill:#ffffff;fill-opacity:1" />
        <path
           class="cls-1"
           d="M1241.24,396.71c-10.78,0-20.38-1.39-28.8-4.14-8.43-2.76-15.89-6.56-22.38-11.4-6.5-4.83-11.95-10.29-16.37-16.37l-6.22,26.94h-49.73V93.34h55.95v118.53c6.63-9.67,15.4-17.75,26.32-24.24,10.91-6.49,24.52-9.74,40.82-9.74,19.34,0,36.54,4.77,51.6,14.3,15.06,9.53,26.94,22.52,35.64,38.96,8.7,16.44,13.06,35.3,13.06,56.57s-4.35,39.37-13.06,55.95c-8.7,16.58-20.51,29.57-35.43,38.96-14.92,9.39-32.05,14.09-51.39,14.09Zm-13.26-48.9c11.05,0,20.79-2.55,29.22-7.67,8.42-5.11,14.99-12.16,19.68-21.14,4.7-8.97,7.05-19.41,7.05-31.29s-2.35-22.44-7.05-31.7c-4.7-9.25-11.26-16.43-19.68-21.55-8.43-5.11-18.17-7.67-29.22-7.67s-20.38,2.56-28.8,7.67c-8.43,5.12-15.06,12.23-19.89,21.34-4.84,9.12-7.25,19.62-7.25,31.5s2.41,22.45,7.25,31.7c4.83,9.26,11.46,16.37,19.89,21.34,8.42,4.97,18.03,7.46,28.8,7.46Z"
           id="path10"
           style="fill:#ffffff;fill-opacity:1" />
        <path
           class="cls-1"
           d="M1383.8,391.73V93.34h55.95V391.73h-55.95Z"
           id="path12"
           style="fill:#ffffff;fill-opacity:1" />
        <path
           class="cls-1"
           d="M1589.36,396.71c-21,0-39.58-4.49-55.74-13.47-16.16-8.97-28.74-21.55-37.71-37.71-8.98-16.16-13.47-34.88-13.47-56.16s4.42-41.09,13.26-57.81c8.84-16.71,21.34-29.84,37.51-39.37,16.16-9.53,34.88-14.3,56.16-14.3s38.81,4.56,54.29,13.68c15.47,9.12,27.49,21.41,36.05,36.88,8.56,15.48,12.85,33.02,12.85,52.63v9.32c0,3.46-.28,6.98-.83,10.57h-169.5v-33.98h113.97c-.83-13.53-5.6-24.17-14.3-31.91-8.7-7.73-19.55-11.6-32.53-11.6-9.4,0-18.1,2.14-26.11,6.42-8.02,4.29-14.3,10.85-18.86,19.69-4.56,8.84-6.84,20.03-6.84,33.57v12.02c0,11.33,2.14,21.21,6.42,29.63,4.28,8.43,10.29,14.92,18.03,19.48,7.73,4.56,16.71,6.84,26.94,6.84s18.71-2.21,25.49-6.63c6.77-4.42,11.81-10.08,15.13-16.99h57.19c-3.87,12.99-10.36,24.73-19.48,35.23-9.12,10.5-20.31,18.79-33.57,24.87-13.26,6.07-28.05,9.12-44.34,9.12Z"
           id="path14"
           style="fill:#ffffff;fill-opacity:1" />
      </g>
      <g
         id="g26">
        <path
           class="cls-2"
           d="M389.52,0c59.91,0,108.65,48.74,108.65,108.65,0,12.92-10.47,23.39-23.39,23.39s-23.39-10.47-23.39-23.39c0-34.11-27.75-61.87-61.87-61.87s-61.87,27.75-61.87,61.87c0,12.92-10.47,23.39-23.39,23.39s-23.39-10.47-23.39-23.39C280.87,48.74,329.61,0,389.52,0Z"
           id="path18"
           style="fill:#ffffff;fill-opacity:1" />
        <path
           class="cls-2"
           d="M110.95,0c59.91,0,108.65,48.74,108.65,108.65s-48.74,108.65-108.65,108.65S2.29,168.56,2.29,108.65,51.04,0,110.95,0Zm0,170.52c34.11,0,61.87-27.75,61.87-61.87s-27.75-61.87-61.87-61.87-61.87,27.75-61.87,61.87,27.75,61.87,61.87,61.87Z"
           id="path20"
           style="fill:#ffffff;fill-opacity:1" />
        <path
           class="cls-2"
           d="M196.21,85.26c12.92,0,23.39,10.47,23.39,23.39v203.67c0,13.3,14.03,24.53,30.63,24.53s30.63-11.23,30.63-24.53V108.65c0-12.92,10.47-23.39,23.39-23.39s23.39,10.47,23.39,23.39v203.67c0,39.32-34.73,71.31-77.42,71.31s-77.42-31.99-77.42-71.31V108.65c0-12.92,10.47-23.39,23.39-23.39Z"
           id="path22"
           style="fill:#ffffff;fill-opacity:1" />
        <path
           class="cls-3"
           d="M23.39,216.4c12.92,0,23.39,10.47,23.39,23.39,0,54.35,21.16,105.44,59.59,143.87,38.43,38.43,89.53,59.59,143.87,59.59s105.44-21.16,143.87-59.59c38.43-38.43,59.59-89.53,59.59-143.87,0-12.92,10.47-23.39,23.39-23.39s23.39,10.47,23.39,23.39c0,66.85-26.03,129.69-73.3,176.96-47.27,47.27-110.11,73.3-176.96,73.3s-129.69-26.03-176.96-73.3C26.03,369.48,0,306.64,0,239.8c0-12.92,10.47-23.39,23.39-23.39Z"
           id="path24"
           style="fill:#ffffff;fill-opacity:1" />
      </g>
    </g>
  </g>
</svg>
