<?xml version="1.0" encoding="UTF-8" standalone="no"?>
<svg
   id="Layer_2"
   viewBox="0 0 1692.5501 490.04998"
   version="1.1"
   sodipodi:docname="jobmingle.svg"
   width="1692.55"
   height="490.04999"
   inkscape:version="1.2.1 (9c6d41e410, 2022-07-14)"
   xmlns:inkscape="http://www.inkscape.org/namespaces/inkscape"
   xmlns:sodipodi="http://sodipodi.sourceforge.net/DTD/sodipodi-0.dtd"
   xmlns="http://www.w3.org/2000/svg"
   xmlns:svg="http://www.w3.org/2000/svg">
  <sodipodi:namedview
     id="namedview38"
     pagecolor="#ffffff"
     bordercolor="#000000"
     borderopacity="0.25"
     inkscape:showpageshadow="2"
     inkscape:pageopacity="0.0"
     inkscape:pagecheckerboard="0"
     inkscape:deskcolor="#d1d1d1"
     showgrid="false"
     inkscape:zoom="0.54566938"
     inkscape:cx="477.39531"
     inkscape:cy="1.8326115"
     inkscape:window-width="1920"
     inkscape:window-height="1009"
     inkscape:window-x="-8"
     inkscape:window-y="-8"
     inkscape:window-maximized="1"
     inkscape:current-layer="g34" />
  <defs
     id="defs4">
    <style
       id="style2">.cls-1{fill:#ea3970;}.cls-2{fill:#a80837;}</style>
  </defs>
  <g
     id="Layer_1-2"
     transform="scale(1.5256198,1.9285788)">
    <g
       id="g34">
      <g
         id="g24"
         style="fill:#ffffff;fill-opacity:1">
        <path
           class="cls-2"
           d="m 426.13,164.74 c 0,5.38 -0.58,10.39 -1.74,15.02 -1.16,4.64 -3.19,8.7 -6.09,12.18 -2.9,3.48 -6.8,6.22 -11.7,8.22 -4.9,2 -11.1,3 -18.58,3 -6.96,0 -13,-0.98 -18.11,-2.93 -5.12,-1.95 -9.04,-4.03 -11.78,-6.25 l 7.12,-15.66 c 2.63,1.79 5.88,3.51 9.73,5.14 3.85,1.64 7.77,2.45 11.78,2.45 6.75,0 11.65,-1.68 14.71,-5.06 3.06,-3.37 4.59,-9.17 4.59,-17.4 V 91.19 h 20.09 v 73.54 z"
           id="path6"
           style="fill:#ffffff;fill-opacity:1" />
        <path
           class="cls-2"
           d="m 523.39,159.36 c 0,6.54 -0.95,12.5 -2.85,17.87 -1.9,5.38 -4.59,9.96 -8.07,13.76 -3.48,3.8 -7.67,6.75 -12.57,8.86 -4.9,2.11 -10.31,3.16 -16.21,3.16 -5.9,0 -11.28,-1.05 -16.13,-3.16 -4.85,-2.11 -9.02,-5.06 -12.49,-8.86 -3.48,-3.8 -6.2,-8.38 -8.15,-13.76 -1.95,-5.38 -2.93,-11.33 -2.93,-17.87 0,-6.54 0.97,-12.47 2.93,-17.79 1.95,-5.32 4.69,-9.88 8.22,-13.68 3.53,-3.79 7.72,-6.72 12.57,-8.78 4.85,-2.06 10.17,-3.08 15.97,-3.08 5.8,0 11.15,1.03 16.05,3.08 4.9,2.06 9.09,4.98 12.57,8.78 3.48,3.8 6.19,8.36 8.14,13.68 1.95,5.33 2.93,11.26 2.93,17.79 z m -19.61,0 c 0,-8.22 -1.77,-14.73 -5.3,-19.53 -3.53,-4.8 -8.46,-7.2 -14.79,-7.2 -6.33,0 -11.26,2.4 -14.79,7.2 -3.53,4.8 -5.3,11.31 -5.3,19.53 0,8.22 1.76,14.92 5.3,19.77 3.53,4.85 8.46,7.28 14.79,7.28 6.33,0 11.25,-2.42 14.79,-7.28 3.53,-4.85 5.3,-11.44 5.3,-19.77 z"
           id="path8"
           style="fill:#ffffff;fill-opacity:1" />
        <path
           class="cls-2"
           d="m 615.6,159.52 c 0,6.64 -0.98,12.63 -2.93,17.95 -1.95,5.33 -4.74,9.88 -8.38,13.68 -3.64,3.8 -8.04,6.7 -13.21,8.7 -5.17,2 -11.02,3 -17.56,3 -6.54,0 -12.36,-0.47 -18.11,-1.42 -5.75,-0.95 -10.52,-2 -14.31,-3.16 V 81.23 l 19.14,-3.16 v 42.86 c 2.21,-1.16 4.93,-2.21 8.14,-3.16 3.22,-0.95 6.77,-1.42 10.68,-1.42 5.8,0 10.99,1.03 15.58,3.08 4.59,2.06 8.41,4.98 11.47,8.78 3.06,3.8 5.4,8.36 7.04,13.68 1.63,5.33 2.45,11.21 2.45,17.63 z m -19.61,-0.32 c 0,-8.12 -1.61,-14.55 -4.82,-19.29 -3.22,-4.75 -8.3,-7.12 -15.26,-7.12 -3.16,0 -6.14,0.47 -8.94,1.42 -2.79,0.95 -5.04,2 -6.72,3.16 v 47.61 c 1.37,0.32 3.14,0.61 5.3,0.87 2.16,0.26 4.77,0.4 7.83,0.4 7.06,0 12.6,-2.4 16.61,-7.2 4.01,-4.8 6.01,-11.41 6.01,-19.85 z"
           id="path10"
           style="fill:#ffffff;fill-opacity:1" />
        <path
           class="cls-2"
           d="m 658.22,91.19 c 2.32,4.01 4.9,8.91 7.75,14.71 2.85,5.8 5.75,11.89 8.7,18.27 2.95,6.38 5.88,12.86 8.78,19.45 2.9,6.59 5.56,12.68 7.99,18.27 2.42,-5.59 5.06,-11.68 7.91,-18.27 2.85,-6.59 5.75,-13.07 8.7,-19.45 2.95,-6.38 5.85,-12.47 8.7,-18.27 2.85,-5.8 5.43,-10.7 7.75,-14.71 h 17.96 c 0.97,8.01 1.88,16.53 2.74,25.54 0.86,9.01 1.64,18.24 2.33,27.68 0.7,9.44 1.34,18.93 1.93,28.47 0.59,9.54 1.1,18.85 1.53,27.92 h -19.61 c -0.43,-12.76 -0.94,-25.88 -1.53,-39.38 -0.59,-13.5 -1.48,-26.57 -2.66,-39.22 -1.16,2.43 -2.53,5.33 -4.11,8.7 -1.58,3.38 -3.27,7.04 -5.06,10.99 -1.79,3.95 -3.61,8.04 -5.46,12.26 -1.85,4.22 -3.64,8.3 -5.38,12.26 -1.74,3.95 -3.35,7.65 -4.82,11.07 -1.48,3.43 -2.74,6.35 -3.8,8.78 h -14.87 c -1.06,-2.42 -2.32,-5.38 -3.8,-8.86 -1.48,-3.48 -3.08,-7.2 -4.82,-11.15 -1.74,-3.95 -3.53,-8.04 -5.38,-12.26 -1.85,-4.22 -3.67,-8.28 -5.46,-12.18 -1.79,-3.9 -3.48,-7.56 -5.06,-10.99 -1.58,-3.43 -2.95,-6.3 -4.11,-8.62 -1.18,12.65 -2.07,25.73 -2.66,39.22 -0.59,13.5 -1.1,26.62 -1.53,39.38 h -19.61 c 0.43,-9.07 0.94,-18.45 1.53,-28.15 0.59,-9.7 1.24,-19.32 1.93,-28.86 0.7,-9.54 1.48,-18.79 2.34,-27.76 0.86,-8.96 1.77,-17.24 2.74,-24.83 h 18.43 z"
           id="path12"
           style="fill:#ffffff;fill-opacity:1" />
        <path
           class="cls-2"
           d="m 792.42,93.88 c 0,3.59 -1.16,6.43 -3.48,8.54 -2.32,2.11 -5.06,3.16 -8.22,3.16 -3.16,0 -6.06,-1.05 -8.38,-3.16 -2.32,-2.11 -3.48,-4.96 -3.48,-8.54 0,-3.58 1.16,-6.59 3.48,-8.7 2.32,-2.11 5.11,-3.16 8.38,-3.16 3.27,0 5.9,1.05 8.22,3.16 2.32,2.11 3.48,5.01 3.48,8.7 z m -2.06,106.92 h -19.14 v -82.72 h 19.14 z"
           id="path14"
           style="fill:#ffffff;fill-opacity:1" />
        <path
           class="cls-2"
           d="m 812.66,120.77 c 3.69,-1.05 8.49,-2.06 14.39,-3.01 5.9,-0.95 12.44,-1.42 19.61,-1.42 6.75,0 12.39,0.92 16.92,2.77 4.53,1.85 8.15,4.43 10.83,7.75 2.68,3.32 4.59,7.33 5.69,12.02 1.11,4.69 1.66,9.83 1.66,15.42 v 46.5 h -19.14 v -43.49 c 0,-4.43 -0.29,-8.2 -0.87,-11.31 -0.58,-3.11 -1.53,-5.64 -2.85,-7.59 -1.32,-1.95 -3.11,-3.37 -5.38,-4.27 -2.27,-0.89 -5.04,-1.34 -8.3,-1.34 -2.43,0 -4.96,0.16 -7.59,0.47 -2.64,0.32 -4.59,0.58 -5.85,0.79 v 66.74 h -19.14 v -80.03 z"
           id="path16"
           style="fill:#ffffff;fill-opacity:1" />
        <path
           class="cls-2"
           d="m 971.45,192.41 c 0,13.18 -3.35,22.83 -10.04,28.94 -6.7,6.11 -16.95,9.17 -30.76,9.17 -5.06,0 -9.99,-0.42 -14.79,-1.26 -4.8,-0.85 -9.15,-1.95 -13.05,-3.32 l 3.48,-16.29 c 3.27,1.37 6.98,2.48 11.15,3.32 4.16,0.84 8.67,1.27 13.52,1.27 7.7,0 13.18,-1.58 16.45,-4.75 3.27,-3.16 4.9,-7.86 4.9,-14.08 v -3.16 c -1.9,0.95 -4.4,1.9 -7.51,2.85 -3.11,0.95 -6.67,1.42 -10.68,1.42 -5.27,0 -10.1,-0.84 -14.47,-2.53 -4.38,-1.69 -8.12,-4.16 -11.23,-7.43 -3.11,-3.27 -5.54,-7.35 -7.28,-12.26 -1.74,-4.9 -2.61,-10.57 -2.61,-17 0,-6.01 0.92,-11.55 2.77,-16.61 1.84,-5.06 4.53,-9.38 8.07,-12.97 3.53,-3.58 7.83,-6.38 12.89,-8.38 5.06,-2 10.81,-3 17.24,-3 6.43,0 12.12,0.47 17.71,1.42 5.59,0.95 10.33,1.95 14.23,3.01 v 71.64 z m -53.3,-35.11 c 0,8.12 1.76,14.05 5.3,17.79 3.53,3.74 8.09,5.61 13.68,5.61 3.06,0 5.93,-0.42 8.62,-1.27 2.69,-0.84 4.88,-1.84 6.56,-3 v -42.86 c -1.37,-0.32 -3.06,-0.61 -5.06,-0.87 -2,-0.26 -4.53,-0.4 -7.59,-0.4 -6.96,0 -12.29,2.29 -15.97,6.88 -3.69,4.59 -5.54,10.62 -5.54,18.11 z"
           id="path18"
           style="fill:#ffffff;fill-opacity:1" />
        <path
           class="cls-2"
           d="m 1022.53,202.38 c -5.69,-0.11 -10.41,-0.74 -14.16,-1.9 -3.74,-1.16 -6.72,-2.82 -8.94,-4.98 -2.21,-2.16 -3.77,-4.85 -4.67,-8.07 -0.9,-3.21 -1.34,-6.88 -1.34,-10.99 V 81.23 l 19.14,-3.16 v 94.74 c 0,2.32 0.18,4.27 0.55,5.85 0.37,1.58 1.03,2.93 1.98,4.03 0.95,1.11 2.24,1.95 3.88,2.53 1.63,0.58 3.72,1.03 6.25,1.34 z"
           id="path20"
           style="fill:#ffffff;fill-opacity:1" />
        <path
           class="cls-2"
           d="m 1034.08,159.83 c 0,-7.28 1.08,-13.65 3.24,-19.14 2.16,-5.48 5.03,-10.04 8.62,-13.68 3.58,-3.64 7.7,-6.38 12.34,-8.22 4.64,-1.84 9.38,-2.77 14.23,-2.77 11.39,0 20.27,3.53 26.65,10.6 6.38,7.07 9.57,17.61 9.57,31.63 0,1.05 -0.03,2.24 -0.08,3.56 -0.05,1.32 -0.13,2.51 -0.24,3.56 h -54.56 c 0.53,6.64 2.87,11.78 7.04,15.42 4.16,3.64 10.2,5.46 18.11,5.46 4.64,0 8.88,-0.42 12.73,-1.26 3.85,-0.84 6.88,-1.74 9.09,-2.69 l 2.53,15.66 c -1.05,0.53 -2.51,1.08 -4.35,1.66 -1.85,0.58 -3.95,1.11 -6.33,1.58 -2.37,0.47 -4.93,0.87 -7.67,1.19 -2.74,0.32 -5.54,0.47 -8.38,0.47 -7.28,0 -13.6,-1.08 -18.98,-3.24 -5.38,-2.16 -9.81,-5.16 -13.29,-9.01 -3.48,-3.85 -6.06,-8.38 -7.75,-13.6 -1.69,-5.22 -2.53,-10.94 -2.53,-17.16 z m 55.51,-8.54 c 0,-2.63 -0.37,-5.14 -1.11,-7.51 -0.74,-2.37 -1.82,-4.43 -3.24,-6.17 -1.42,-1.74 -3.16,-3.11 -5.22,-4.11 -2.06,-1 -4.51,-1.5 -7.35,-1.5 -2.84,0 -5.54,0.55 -7.75,1.66 -2.21,1.11 -4.09,2.56 -5.62,4.35 -1.53,1.79 -2.72,3.85 -3.56,6.17 -0.84,2.32 -1.42,4.69 -1.74,7.12 h 35.58 z"
           id="path22"
           style="fill:#ffffff;fill-opacity:1" />
      </g>
      <g
         id="g32"
         style="fill:#008cfe;fill-opacity:1">
        <path
           class="cls-1"
           d="m 225.74,76.59 c -27.45,0 -52.03,12.49 -68.37,32.09 C 141.03,89.09 116.45,76.59 89,76.59 c -49.07,0 -89,39.93 -89,89 0,49.07 39.93,89 89,89 11.4,0 20.63,-9.24 20.63,-20.63 0,-11.39 -9.24,-20.63 -20.63,-20.63 -26.32,0 -47.74,-21.41 -47.74,-47.74 0,-26.33 21.41,-47.74 47.74,-47.74 26.33,0 47.74,21.41 47.74,47.74 0,49.08 39.93,89 89,89 49.07,0 89,-39.93 89,-89 0,-49.07 -39.93,-89 -89,-89 z m 0,136.74 c -26.32,0 -47.74,-21.41 -47.74,-47.74 0,-26.33 21.41,-47.74 47.74,-47.74 26.33,0 47.74,21.41 47.74,47.74 0,26.33 -21.41,47.74 -47.74,47.74 z"
           id="path26"
           style="fill:#008cfe;fill-opacity:1" />
        <circle
           class="cls-1"
           cx="89"
           cy="26.809999"
           r="26.809999"
           id="circle28"
           style="fill:#008cfe;fill-opacity:1" />
        <circle
           class="cls-1"
           cx="225.74001"
           cy="26.809999"
           r="26.809999"
           id="circle30"
           style="fill:#008cfe;fill-opacity:1" />
      </g>
    </g>
  </g>
</svg>
