<?xml version="1.0" encoding="UTF-8"?><svg id="Layer_2" xmlns="http://www.w3.org/2000/svg" viewBox="0 0 1108.73 254.6"><defs><style>.cls-1{fill:#ea3970;}.cls-2{fill:#a80837;}</style></defs><g id="Layer_1-2"><g><g><path class="cls-2" d="M426.13,164.74c0,5.38-.58,10.39-1.74,15.02-1.16,4.64-3.19,8.7-6.09,12.18-2.9,3.48-6.8,6.22-11.7,8.22-4.9,2-11.1,3-18.58,3-6.96,0-13-.98-18.11-2.93-5.12-1.95-9.04-4.03-11.78-6.25l7.12-15.66c2.63,1.79,5.88,3.51,9.73,5.14,3.85,1.64,7.77,2.45,11.78,2.45,6.75,0,11.65-1.68,14.71-5.06,3.06-3.37,4.59-9.17,4.59-17.4V91.19h20.09v73.54Z"/><path class="cls-2" d="M523.39,159.36c0,6.54-.95,12.5-2.85,17.87-1.9,5.38-4.59,9.96-8.07,13.76s-7.67,6.75-12.57,8.86c-4.9,2.11-10.31,3.16-16.21,3.16s-11.28-1.05-16.13-3.16c-4.85-2.11-9.02-5.06-12.49-8.86-3.48-3.8-6.2-8.38-8.15-13.76-1.95-5.38-2.93-11.33-2.93-17.87s.97-12.47,2.93-17.79c1.95-5.32,4.69-9.88,8.22-13.68,3.53-3.79,7.72-6.72,12.57-8.78,4.85-2.06,10.17-3.08,15.97-3.08s11.15,1.03,16.05,3.08c4.9,2.06,9.09,4.98,12.57,8.78,3.48,3.8,6.19,8.36,8.14,13.68,1.95,5.33,2.93,11.26,2.93,17.79Zm-19.61,0c0-8.22-1.77-14.73-5.3-19.53-3.53-4.8-8.46-7.2-14.79-7.2s-11.26,2.4-14.79,7.2c-3.53,4.8-5.3,11.31-5.3,19.53s1.76,14.92,5.3,19.77c3.53,4.85,8.46,7.28,14.79,7.28s11.25-2.42,14.79-7.28c3.53-4.85,5.3-11.44,5.3-19.77Z"/><path class="cls-2" d="M615.6,159.52c0,6.64-.98,12.63-2.93,17.95-1.95,5.33-4.74,9.88-8.38,13.68s-8.04,6.7-13.21,8.7c-5.17,2-11.02,3-17.56,3s-12.36-.47-18.11-1.42c-5.75-.95-10.52-2-14.31-3.16V81.23l19.14-3.16v42.86c2.21-1.16,4.93-2.21,8.14-3.16,3.22-.95,6.77-1.42,10.68-1.42,5.8,0,10.99,1.03,15.58,3.08,4.59,2.06,8.41,4.98,11.47,8.78,3.06,3.8,5.4,8.36,7.04,13.68,1.63,5.33,2.45,11.21,2.45,17.63Zm-19.61-.32c0-8.12-1.61-14.55-4.82-19.29-3.22-4.75-8.3-7.12-15.26-7.12-3.16,0-6.14,.47-8.94,1.42-2.79,.95-5.04,2-6.72,3.16v47.61c1.37,.32,3.14,.61,5.3,.87,2.16,.26,4.77,.4,7.83,.4,7.06,0,12.6-2.4,16.61-7.2,4.01-4.8,6.01-11.41,6.01-19.85Z"/><path class="cls-2" d="M658.22,91.19c2.32,4.01,4.9,8.91,7.75,14.71,2.85,5.8,5.75,11.89,8.7,18.27,2.95,6.38,5.88,12.86,8.78,19.45,2.9,6.59,5.56,12.68,7.99,18.27,2.42-5.59,5.06-11.68,7.91-18.27,2.85-6.59,5.75-13.07,8.7-19.45,2.95-6.38,5.85-12.47,8.7-18.27,2.85-5.8,5.43-10.7,7.75-14.71h17.96c.97,8.01,1.88,16.53,2.74,25.54,.86,9.01,1.64,18.24,2.33,27.68,.7,9.44,1.34,18.93,1.93,28.47,.59,9.54,1.1,18.85,1.53,27.92h-19.61c-.43-12.76-.94-25.88-1.53-39.38-.59-13.5-1.48-26.57-2.66-39.22-1.16,2.43-2.53,5.33-4.11,8.7-1.58,3.38-3.27,7.04-5.06,10.99-1.79,3.95-3.61,8.04-5.46,12.26-1.85,4.22-3.64,8.3-5.38,12.26-1.74,3.95-3.35,7.65-4.82,11.07-1.48,3.43-2.74,6.35-3.8,8.78h-14.87c-1.06-2.42-2.32-5.38-3.8-8.86-1.48-3.48-3.08-7.2-4.82-11.15-1.74-3.95-3.53-8.04-5.38-12.26-1.85-4.22-3.67-8.28-5.46-12.18-1.79-3.9-3.48-7.56-5.06-10.99-1.58-3.43-2.95-6.3-4.11-8.62-1.18,12.65-2.07,25.73-2.66,39.22-.59,13.5-1.1,26.62-1.53,39.38h-19.61c.43-9.07,.94-18.45,1.53-28.15,.59-9.7,1.24-19.32,1.93-28.86,.7-9.54,1.48-18.79,2.34-27.76,.86-8.96,1.77-17.24,2.74-24.83h18.43Z"/><path class="cls-2" d="M792.42,93.88c0,3.59-1.16,6.43-3.48,8.54-2.32,2.11-5.06,3.16-8.22,3.16s-6.06-1.05-8.38-3.16c-2.32-2.11-3.48-4.96-3.48-8.54s1.16-6.59,3.48-8.7c2.32-2.11,5.11-3.16,8.38-3.16s5.9,1.05,8.22,3.16c2.32,2.11,3.48,5.01,3.48,8.7Zm-2.06,106.92h-19.14V118.08h19.14v82.72Z"/><path class="cls-2" d="M812.66,120.77c3.69-1.05,8.49-2.06,14.39-3.01,5.9-.95,12.44-1.42,19.61-1.42,6.75,0,12.39,.92,16.92,2.77,4.53,1.85,8.15,4.43,10.83,7.75s4.59,7.33,5.69,12.02c1.11,4.69,1.66,9.83,1.66,15.42v46.5h-19.14v-43.49c0-4.43-.29-8.2-.87-11.31-.58-3.11-1.53-5.64-2.85-7.59-1.32-1.95-3.11-3.37-5.38-4.27-2.27-.89-5.04-1.34-8.3-1.34-2.43,0-4.96,.16-7.59,.47-2.64,.32-4.59,.58-5.85,.79v66.74h-19.14V120.77Z"/><path class="cls-2" d="M971.45,192.41c0,13.18-3.35,22.83-10.04,28.94-6.7,6.11-16.95,9.17-30.76,9.17-5.06,0-9.99-.42-14.79-1.26-4.8-.85-9.15-1.95-13.05-3.32l3.48-16.29c3.27,1.37,6.98,2.48,11.15,3.32,4.16,.84,8.67,1.27,13.52,1.27,7.7,0,13.18-1.58,16.45-4.75,3.27-3.16,4.9-7.86,4.9-14.08v-3.16c-1.9,.95-4.4,1.9-7.51,2.85-3.11,.95-6.67,1.42-10.68,1.42-5.27,0-10.1-.84-14.47-2.53-4.38-1.69-8.12-4.16-11.23-7.43-3.11-3.27-5.54-7.35-7.28-12.26-1.74-4.9-2.61-10.57-2.61-17,0-6.01,.92-11.55,2.77-16.61,1.84-5.06,4.53-9.38,8.07-12.97,3.53-3.58,7.83-6.38,12.89-8.38,5.06-2,10.81-3,17.24-3s12.12,.47,17.71,1.42c5.59,.95,10.33,1.95,14.23,3.01v71.64Zm-53.3-35.11c0,8.12,1.76,14.05,5.3,17.79,3.53,3.74,8.09,5.61,13.68,5.61,3.06,0,5.93-.42,8.62-1.27,2.69-.84,4.88-1.84,6.56-3v-42.86c-1.37-.32-3.06-.61-5.06-.87-2-.26-4.53-.4-7.59-.4-6.96,0-12.29,2.29-15.97,6.88-3.69,4.59-5.54,10.62-5.54,18.11Z"/><path class="cls-2" d="M1022.53,202.38c-5.69-.11-10.41-.74-14.16-1.9-3.74-1.16-6.72-2.82-8.94-4.98-2.21-2.16-3.77-4.85-4.67-8.07-.9-3.21-1.34-6.88-1.34-10.99V81.23l19.14-3.16v94.74c0,2.32,.18,4.27,.55,5.85,.37,1.58,1.03,2.93,1.98,4.03,.95,1.11,2.24,1.95,3.88,2.53,1.63,.58,3.72,1.03,6.25,1.34l-2.69,15.82Z"/><path class="cls-2" d="M1034.08,159.83c0-7.28,1.08-13.65,3.24-19.14,2.16-5.48,5.03-10.04,8.62-13.68,3.58-3.64,7.7-6.38,12.34-8.22,4.64-1.84,9.38-2.77,14.23-2.77,11.39,0,20.27,3.53,26.65,10.6,6.38,7.07,9.57,17.61,9.57,31.63,0,1.05-.03,2.24-.08,3.56-.05,1.32-.13,2.51-.24,3.56h-54.56c.53,6.64,2.87,11.78,7.04,15.42,4.16,3.64,10.2,5.46,18.11,5.46,4.64,0,8.88-.42,12.73-1.26,3.85-.84,6.88-1.74,9.09-2.69l2.53,15.66c-1.05,.53-2.51,1.08-4.35,1.66-1.85,.58-3.95,1.11-6.33,1.58-2.37,.47-4.93,.87-7.67,1.19-2.74,.32-5.54,.47-8.38,.47-7.28,0-13.6-1.08-18.98-3.24-5.38-2.16-9.81-5.16-13.29-9.01-3.48-3.85-6.06-8.38-7.75-13.6-1.69-5.22-2.53-10.94-2.53-17.16Zm55.51-8.54c0-2.63-.37-5.14-1.11-7.51-.74-2.37-1.82-4.43-3.24-6.17-1.42-1.74-3.16-3.11-5.22-4.11-2.06-1-4.51-1.5-7.35-1.5s-5.54,.55-7.75,1.66c-2.21,1.11-4.09,2.56-5.62,4.35-1.53,1.79-2.72,3.85-3.56,6.17-.84,2.32-1.42,4.69-1.74,7.12h35.58Z"/></g><g><path class="cls-1" d="M225.74,76.59c-27.45,0-52.03,12.49-68.37,32.09-16.34-19.59-40.92-32.09-68.37-32.09C39.93,76.59,0,116.52,0,165.59s39.93,89,89,89c11.4,0,20.63-9.24,20.63-20.63s-9.24-20.63-20.63-20.63c-26.32,0-47.74-21.41-47.74-47.74s21.41-47.74,47.74-47.74,47.74,21.41,47.74,47.74c0,49.08,39.93,89,89,89s89-39.93,89-89-39.93-89-89-89Zm0,136.74c-26.32,0-47.74-21.41-47.74-47.74s21.41-47.74,47.74-47.74,47.74,21.41,47.74,47.74-21.41,47.74-47.74,47.74Z"/><circle class="cls-1" cx="89" cy="26.81" r="26.81"/><circle class="cls-1" cx="225.74" cy="26.81" r="26.81"/></g></g></g></svg>