<?xml version="1.0" encoding="UTF-8"?><svg id="Layer_2" xmlns="http://www.w3.org/2000/svg" viewBox="0 0 1881.04 548.8"><defs><style>.cls-1{letter-spacing:-.03em;}.cls-2{fill:#008cfe;}.cls-3{letter-spacing:-.02em;}.cls-4{letter-spacing:0em;}.cls-5{letter-spacing:-.02em;}.cls-6{fill:#191919;font-family:DMSans-SemiBold, 'DM Sans';font-size:365.81px;font-weight:600;}</style></defs><g id="Layer_1-2"><g><g><path class="cls-2" d="M177.64,548.8L0,272.47,177.64,0l177.64,272.47-177.64,276.33ZM30.03,272.57l147.6,229.61,147.6-229.61L177.64,46.17,30.03,272.57Z"/><polygon class="cls-2" points="308.86 268.43 47.06 268.43 108.26 177.34 125.22 188.73 85.41 247.99 270.41 247.99 177.66 110.68 162.65 133.03 145.69 121.63 177.62 74.11 308.86 268.43"/><path class="cls-2" d="M203.36,379.59H117.34l-70.4-103.61H308.21l-42.74,67.37-62.11,36.23Zm-75.19-20.43h69.67l53.05-30.95,20.17-31.8H85.53l42.63,62.74Z"/><rect class="cls-2" x="127.51" y="353.39" width="20.43" height="81.13" transform="translate(-189.59 135.05) rotate(-32.39)"/><rect class="cls-2" x="165.1" y="443.32" width="20.43" height="22.04" transform="translate(-227.23 180.27) rotate(-34.65)"/><line class="cls-2" x1="109.41" y1="193.95" x2="98.02" y2="194.68"/></g><text class="cls-6" transform="translate(418.2 380.85)"><tspan x="0" y="0">Job</tspan><tspan class="cls-1" x="651.13" y="0">P</tspan><tspan class="cls-5" x="861.1" y="0">a</tspan><tspan class="cls-3" x="1064.85" y="0">y</tspan><tspan class="cls-4" x="1271.53" y="0">s</tspan></text></g></g></svg>