<svg width="14" height="14" viewBox="0 0 14 14" fill="none" xmlns="http://www.w3.org/2000/svg">
<path d="M5 4H1M1 1H4M13 13L8.5 10L6 12L1 8M10.5 6C9.83696 6 9.20107 5.73661 8.73223 5.26777C8.26339 4.79893 8 4.16304 8 3.5C8 2.83696 8.26339 2.20107 8.73223 1.73223C9.20107 1.26339 9.83696 1 10.5 1C11.163 1 11.7989 1.26339 12.2678 1.73223C12.7366 2.20107 13 2.83696 13 3.5C13 4.16304 12.7366 4.79893 12.2678 5.26777C11.7989 5.73661 11.163 6 10.5 6Z" stroke="#3F698D" stroke-linecap="round" stroke-linejoin="round"/>
</svg>
