<svg width="22" height="22" viewBox="0 0 22 22" fill="none" xmlns="http://www.w3.org/2000/svg">
<path d="M14.55 2.44444V2.19444H14.3H7.7H7.45V2.44444V11V11.25H7.7H14.3H14.55V11V2.44444ZM4.4 16.8611H4.15V17.1111V21.75H2.45V14.9167H19.55V21.75H17.85V17.1111V16.8611H17.6H4.4ZM7.7 0.25H14.3C15.3478 0.25 16.25 1.21264 16.25 2.44444V13.1944H5.75V2.44444C5.75 1.21264 6.6522 0.25 7.7 0.25ZM18.95 11.9722V8.80556H21.75V11.9722H18.95ZM0.25 11.9722V8.80556H3.05V11.9722H0.25Z" fill="white" stroke="#2907B0" stroke-width="0.5"/>
</svg>
