<svg width="21" height="18" viewBox="0 0 21 18" fill="none" xmlns="http://www.w3.org/2000/svg">
<path d="M13.9251 11.5C13.7546 11.5 13.5911 11.579 13.4706 11.7197C13.35 11.8603 13.2823 12.0511 13.2823 12.25C13.2823 12.4489 13.35 12.6397 13.4706 12.7803C13.5911 12.921 13.7546 13 13.9251 13H16.9251C17.0956 13 17.2592 12.921 17.3797 12.7803C17.5003 12.6397 17.568 12.4489 17.568 12.25C17.568 12.0511 17.5003 11.8603 17.3797 11.7197C17.2592 11.579 17.0956 11.5 16.9251 11.5H13.9251ZM0 3.75C0 2.75544 0.338647 1.80161 0.941442 1.09835C1.54424 0.395088 2.3618 0 3.21429 0H17.3537C18.2062 0 19.0238 0.395088 19.6266 1.09835C20.2294 1.80161 20.568 2.75544 20.568 3.75V14.25C20.568 15.2446 20.2294 16.1984 19.6266 16.9017C19.0238 17.6049 18.2062 18 17.3537 18H3.21514C2.36266 18 1.5451 17.6049 0.9423 16.9017C0.339504 16.1984 0.000857285 15.2446 0.000857285 14.25V3.75H0ZM3.21429 1.5C2.7028 1.5 2.21226 1.73705 1.85058 2.15901C1.4889 2.58097 1.28571 3.15326 1.28571 3.75V4.5H19.2823V3.75C19.2823 3.15326 19.0791 2.58097 18.7174 2.15901C18.3557 1.73705 17.8652 1.5 17.3537 1.5H3.21429ZM1.28571 14.25C1.28571 14.8467 1.4889 15.419 1.85058 15.841C2.21226 16.2629 2.7028 16.5 3.21429 16.5H17.3537C17.8652 16.5 18.3557 16.2629 18.7174 15.841C19.0791 15.419 19.2823 14.8467 19.2823 14.25V6H1.28657V14.25H1.28571Z" fill="#3F698D"/>
</svg>
